<svg width="490" height="132" viewBox="0 0 490 132" fill="none" xmlns="http://www.w3.org/2000/svg">
<g clip-path="url(#clip0_0_14723)">
<path d="M80 132C116.451 132 146 102.451 146 66C146 29.5492 116.451 0 80 0C43.5492 0 14 29.5492 14 66C14 102.451 43.5492 132 80 132Z" fill="#3696FF"/>
<path d="M80 110.001C104.301 110.001 124.001 90.3007 124.001 65.9994C124.001 41.6981 104.301 21.998 80 21.998C55.6987 21.998 35.9986 41.6981 35.9986 65.9994C35.9986 90.3007 55.6987 110.001 80 110.001Z" fill="white"/>
<path d="M80 87.9992C92.1495 87.9992 101.999 78.1501 101.999 66.0006C101.999 53.8511 92.1495 44.002 80 44.002C67.8505 44.002 58.0014 53.8511 58.0014 66.0006C58.0014 78.1501 67.8505 87.9992 80 87.9992Z" fill="#E61629"/>
<path d="M221.698 64.4083C221.257 64.6269 221.257 64.8497 221.698 65.0724C228.434 68.6282 231.804 74.5475 231.804 82.8388C231.804 90.239 229.247 95.7542 224.144 99.38C219.033 103.01 212.334 104.825 204.043 104.825H174.508C174.147 104.827 173.796 104.71 173.51 104.491C173.292 104.204 173.176 103.853 173.18 103.493V28.43C173.18 28.0588 173.287 27.7659 173.51 27.5432C173.637 27.4049 173.791 27.2941 173.963 27.2175C174.134 27.1409 174.32 27.1001 174.508 27.0977H203.156C212.19 27.0977 218.996 28.8013 223.587 32.2085C228.248 35.6117 230.583 41.1268 230.583 48.7498C230.583 56.0057 227.621 61.2238 221.698 64.4083ZM192.163 42.8675C191.792 42.8675 191.61 43.0532 191.61 43.4203V57.4123C191.61 57.7835 191.796 57.965 192.163 57.965H203.156C206.192 57.965 208.523 57.338 210.152 56.0799C211.781 54.7475 212.594 52.8954 212.594 50.5277C212.594 48.0857 211.781 46.1964 210.152 44.864C208.523 43.5317 206.192 42.8675 203.156 42.8675H192.163ZM204.043 88.9438C207.005 88.9438 209.302 88.2797 210.932 86.9473C212.557 85.5407 213.374 83.5442 213.374 80.9495C213.374 78.4333 212.557 76.511 210.928 75.1745C209.372 73.772 207.079 73.0708 204.043 73.0708H192.163C191.792 73.0708 191.61 73.2523 191.61 73.6235V88.391C191.61 88.7623 191.796 88.9438 192.163 88.9438H204.043V88.9438ZM290.788 71.0702C291.155 73.2894 291.266 76.214 291.118 79.8399C291.043 80.7309 290.561 81.1723 289.674 81.1723H255.808C255.659 81.1723 255.511 81.2465 255.366 81.395C255.218 81.4693 255.181 81.5807 255.255 81.725C255.403 82.5418 255.77 83.6143 256.364 84.9467C257.251 86.5018 258.584 87.7599 260.362 88.7252C262.135 89.6863 264.322 90.1689 266.912 90.1689C271.573 90.1689 275.24 88.6509 277.905 85.6149C278.202 85.2437 278.532 85.058 278.903 85.058C279.275 85.058 279.572 85.2065 279.79 85.5035L288.341 95.2757C288.483 95.3757 288.597 95.5088 288.675 95.6635C288.753 95.8181 288.791 95.9895 288.787 96.1625C288.787 96.4595 288.638 96.7565 288.341 97.0494C285.751 99.8627 282.529 102.012 278.681 103.493C274.906 104.974 270.761 105.712 266.244 105.712C259.508 105.712 253.774 104.268 249.034 101.381C244.373 98.4189 241.003 94.3104 238.928 89.0552C237.377 85.355 236.597 80.7309 236.597 75.1787C236.597 71.3259 237.191 67.6299 238.375 64.0742C240.302 58.5962 243.449 54.302 247.813 51.1959C252.256 48.0114 257.507 46.4192 263.579 46.4192C268.467 46.4192 272.836 47.4917 276.684 49.6367C280.51 51.6899 283.725 54.7165 286.007 58.4105C288.453 62.1107 290.045 66.3305 290.783 71.0702H290.788ZM263.579 62.2963C259.73 62.2963 257.177 64.1113 255.919 67.7413C255.639 68.4908 255.453 69.2723 255.366 70.0678C255.218 70.439 255.366 70.6247 255.808 70.6247H271.577C271.87 70.6247 272.019 70.4762 272.019 70.1792C272.019 69.5893 271.87 68.8468 271.577 67.9599C271.058 66.1078 270.092 64.7012 268.69 63.74C267.358 62.7789 265.654 62.2963 263.579 62.2963V62.2963ZM334.067 60.8525C334.067 61.2238 333.919 61.5538 333.622 61.8549C333.504 61.9671 333.364 62.0543 333.212 62.111C333.059 62.1677 332.897 62.1929 332.735 62.1849H322.628C322.257 62.1849 322.076 62.3705 322.076 62.7418V82.9502C322.076 87.17 323.775 89.2779 327.182 89.2779H331.291C331.662 89.2779 331.955 89.4264 332.178 89.7234C332.319 89.8234 332.433 89.9566 332.511 90.1112C332.589 90.2659 332.627 90.4373 332.623 90.6103V103.493C332.623 104.305 332.178 104.788 331.291 104.936C328.702 105.057 326.111 105.13 323.519 105.155C317.076 105.155 312.304 104.157 309.193 102.16C306.087 100.085 304.491 96.1997 304.421 90.4989V62.7377C304.421 62.3705 304.235 62.1849 303.864 62.1849H297.536C297.176 62.1885 296.825 62.0725 296.538 61.8549C296.318 61.5673 296.2 61.2145 296.204 60.8525V48.7498C296.204 48.3785 296.315 48.0857 296.534 47.8629C296.661 47.7242 296.816 47.6131 296.989 47.5364C297.161 47.4598 297.347 47.4193 297.536 47.4174H303.864C304.235 47.4174 304.421 47.2318 304.421 46.8647V28.5043C304.412 28.3418 304.437 28.1793 304.494 28.0268C304.551 27.8743 304.638 27.735 304.751 27.6174C304.878 27.4787 305.033 27.3676 305.206 27.2909C305.378 27.2143 305.564 27.1738 305.753 27.1719H320.743C321.115 27.1719 321.407 27.3204 321.63 27.6174C321.771 27.7174 321.886 27.8506 321.964 28.0052C322.041 28.1599 322.08 28.3313 322.076 28.5043V46.8605C322.076 47.2318 322.261 47.4133 322.628 47.4133H332.735C333.106 47.4133 333.399 47.5618 333.622 47.8588C333.763 47.9588 333.877 48.092 333.955 48.2466C334.033 48.4013 334.071 48.5726 334.067 48.7457V60.8484V60.8525Z" fill="white"/>
<path fill-rule="evenodd" clip-rule="evenodd" d="M358.099 102.383C362.616 104.603 367.797 105.712 373.646 105.712C379.496 105.712 384.639 104.599 389.082 102.383C393.595 100.086 397.076 96.8683 399.518 92.7227C401.96 88.5771 403.181 83.8003 403.181 78.3966V28.4304C403.185 28.2574 403.147 28.086 403.069 27.9314C402.992 27.7767 402.877 27.6436 402.736 27.5436C402.636 27.4023 402.503 27.2878 402.348 27.2101C402.193 27.1324 402.022 27.094 401.849 27.0981H386.083C385.712 27.0981 385.382 27.2466 385.085 27.5436C384.972 27.661 384.884 27.8002 384.827 27.9526C384.769 28.1051 384.743 28.2677 384.751 28.4304V78.3966C384.751 81.8781 383.711 84.6913 381.641 86.8363C379.644 88.9112 376.979 89.9466 373.646 89.9466C370.243 89.9466 367.5 88.9071 365.429 86.8363C363.433 84.6913 362.43 81.8781 362.43 78.3966V28.4304C362.435 28.2578 362.397 28.0866 362.32 27.932C362.243 27.7774 362.13 27.644 361.989 27.5436C361.889 27.4017 361.755 27.2869 361.599 27.2091C361.444 27.1314 361.272 27.0933 361.098 27.0981H345.332C344.961 27.0981 344.631 27.2466 344.334 27.5436C344.221 27.6608 344.133 27.8 344.075 27.9525C344.018 28.105 343.992 28.2676 344 28.4304V78.3966C344 83.8003 345.221 88.5771 347.663 92.7227C350.168 96.8559 353.784 100.202 358.099 102.379V102.383ZM413.263 104.491C413.56 104.714 413.89 104.821 414.261 104.821H430.027C430.398 104.821 430.695 104.714 430.918 104.491C431.055 104.363 431.165 104.209 431.241 104.037C431.316 103.866 431.357 103.681 431.359 103.493V82.8392C431.359 82.6907 431.433 82.4679 431.582 82.1709L437.357 74.2922C437.654 73.8467 437.91 73.8467 438.132 74.2922L455.565 103.934C455.862 104.528 456.419 104.825 457.231 104.825H474.886C475.629 104.825 475.996 104.566 475.996 104.046C475.996 103.972 475.922 103.716 475.773 103.27L450.681 61.6326C450.606 61.4098 450.644 61.1499 450.792 60.8529L474.775 28.7646C474.959 28.502 475.074 28.1968 475.109 27.8777C475.109 27.3579 474.738 27.0981 473.999 27.0981H456.01C455.709 27.1029 455.413 27.1754 455.144 27.3104C454.874 27.4454 454.639 27.6393 454.455 27.8777L432.027 57.5241C431.879 57.6726 431.73 57.7468 431.582 57.7468C431.433 57.6726 431.359 57.5241 431.359 57.3013V28.4304C431.363 28.2578 431.325 28.0868 431.249 27.9323C431.172 27.7777 431.058 27.6443 430.918 27.5436C430.817 27.402 430.683 27.2873 430.528 27.2096C430.373 27.132 430.201 27.0936 430.027 27.0981H414.261C413.89 27.0981 413.56 27.2466 413.263 27.5436C413.15 27.6608 413.062 27.8 413.004 27.9525C412.947 28.105 412.921 28.2676 412.929 28.4304V103.497C412.929 103.868 413.04 104.198 413.259 104.495L413.263 104.491Z" fill="#3696FF"/>
</g>
<defs>
<clipPath id="clip0_0_14723">
<rect width="462" height="132" fill="white" transform="translate(14)"/>
</clipPath>
</defs>
</svg>