<svg width="490" height="132" viewBox="0 0 490 132" fill="none" xmlns="http://www.w3.org/2000/svg">
<path fill-rule="evenodd" clip-rule="evenodd" d="M284.233 99.6575C289.633 99.6575 294.236 98.793 298.043 97.064C301.85 95.335 305.088 92.9235 307.757 89.8295L304.254 86.053C303.889 85.6587 303.465 85.4615 302.979 85.4615C302.464 85.4615 301.948 85.689 301.432 86.144C300.31 87.1753 299.18 88.0626 298.043 88.8058C296.905 89.5489 295.677 90.1632 294.357 90.6485C293.038 91.1338 291.597 91.4902 290.035 91.7178C288.473 91.9453 286.721 92.059 284.78 92.059C281.595 92.059 278.629 91.4827 275.884 90.33C273.139 89.1773 270.758 87.5014 268.741 85.3022C266.724 83.1031 265.131 80.411 263.963 77.226C262.795 74.041 262.211 70.4162 262.211 66.3515C262.211 62.3475 262.773 58.753 263.895 55.568C265.017 52.383 266.587 49.6833 268.604 47.469C270.621 45.2547 273.025 43.5636 275.816 42.3958C278.607 41.2279 281.685 40.644 285.052 40.644C287.843 40.644 290.194 40.9398 292.105 41.5312C294.016 42.1228 295.608 42.7825 296.883 43.5105C298.156 44.2385 299.188 44.8982 299.977 45.4897C300.765 46.0813 301.432 46.377 301.979 46.377C302.464 46.377 302.851 46.2784 303.139 46.0813C303.427 45.8841 303.662 45.6338 303.844 45.3305L306.756 41.281C304.056 38.733 300.932 36.7158 297.383 35.2295C293.834 33.7432 289.739 33 285.098 33C280.366 33 276.043 33.8114 272.13 35.4343C268.217 37.0571 264.858 39.3397 262.052 42.282C259.246 45.2243 257.07 48.743 255.523 52.838C253.976 56.933 253.202 61.4375 253.202 66.3515C253.202 71.2655 253.946 75.77 255.432 79.865C256.918 83.96 259.011 87.4711 261.711 90.3983C264.411 93.3254 267.672 95.6004 271.493 97.2233C275.315 98.8461 279.562 99.6575 284.233 99.6575ZM28.023 98.9295C31.663 98.9295 34.9087 98.4821 37.76 97.5872C40.6113 96.6924 43.0152 95.426 44.9717 93.788C46.9282 92.15 48.4146 90.1935 49.4308 87.9185C50.4469 85.6435 50.955 83.1258 50.955 80.3655C50.955 76.3008 49.7492 73.0173 47.3377 70.5148C44.9263 68.0122 41.3242 66.306 36.5315 65.396C38.5942 64.759 40.3914 63.9324 41.9232 62.9163C43.4551 61.9001 44.7215 60.755 45.7225 59.481C46.7235 58.207 47.4743 56.8344 47.9748 55.3633C48.4753 53.8921 48.7255 52.3527 48.7255 50.745C48.7255 48.106 48.2857 45.7324 47.406 43.6242C46.5263 41.5161 45.1538 39.734 43.2882 38.278C41.4227 36.822 39.0416 35.6997 36.1448 34.911C33.2479 34.1223 29.7975 33.728 25.7935 33.728H5V98.9295H28.023ZM25.4295 62.939H13.7815V40.6895H25.7935C30.6468 40.6895 34.2262 41.5767 36.5315 43.3512C38.8368 45.1257 39.9895 47.9392 39.9895 51.7915C39.9895 53.4295 39.7013 54.9386 39.125 56.3187C38.5487 57.6989 37.6614 58.8743 36.4632 59.845C35.2651 60.8157 33.7484 61.574 31.9132 62.12C30.0781 62.666 27.9168 62.939 25.4295 62.939ZM13.7815 91.9225H27.8865C30.4042 91.9225 32.573 91.6343 34.393 91.058C36.213 90.4817 37.7069 89.6702 38.8747 88.6237C40.0426 87.5772 40.8995 86.3336 41.4455 84.8927C41.9915 83.4519 42.2645 81.867 42.2645 80.138C42.2645 76.771 41.0663 74.1092 38.67 72.1527C36.2737 70.1962 32.6792 69.218 27.8865 69.218H13.7815V91.9225ZM104.008 98.9295L104.053 91.7405H72.6585V69.491H98.0475V62.575H72.6585V40.917H104.008V33.728H63.8315V98.9295H104.008ZM139.361 41.1445V98.9295H130.58V41.1445H109.423V33.728H160.473V41.1445H139.361ZM196.555 98.9295L223.127 33.728H216.074C215.316 33.728 214.672 33.9479 214.141 34.3877C213.61 34.8276 213.253 35.3053 213.072 35.821L194.735 81.8215C194.341 82.8528 193.977 83.9752 193.643 85.1885C193.309 86.4018 192.991 87.6758 192.688 89.0105C192.384 87.6758 192.043 86.4018 191.664 85.1885C191.285 83.9752 190.898 82.8528 190.503 81.8215L172.121 35.821C171.879 35.2143 171.515 34.7138 171.029 34.3195C170.544 33.9252 169.907 33.728 169.118 33.728H162.066L188.638 98.9295H196.555ZM240.553 33.728V98.9295H231.727V33.728H240.553ZM340.972 41.1445V98.9295H332.19V41.1445H311.033V33.728H362.084V41.1445H340.972ZM396.891 99.612C401.684 99.612 406.06 98.8006 410.018 97.1777C413.977 95.5549 417.366 93.2723 420.188 90.33C423.008 87.3877 425.193 83.8766 426.74 79.7967C428.286 75.7169 429.06 71.2352 429.06 66.3515C429.06 61.4678 428.286 56.9861 426.74 52.9062C425.193 48.8264 423.008 45.3078 420.188 42.3503C417.366 39.3928 413.977 37.095 410.018 35.457C406.06 33.819 401.684 33 396.891 33C392.099 33 387.731 33.819 383.788 35.457C379.844 37.095 376.462 39.3928 373.641 42.3503C370.82 45.3078 368.636 48.8264 367.089 52.9062C365.542 56.9861 364.768 61.4678 364.768 66.3515C364.768 71.2352 365.542 75.7169 367.089 79.7967C368.636 83.8766 370.82 87.3877 373.641 90.33C376.462 93.2723 379.844 95.5549 383.788 97.1777C387.731 98.8006 392.099 99.612 396.891 99.612ZM387.382 90.2163C390.233 91.3841 393.403 91.968 396.892 91.968C400.41 91.968 403.595 91.3841 406.447 90.2163C409.298 89.0484 411.724 87.3649 413.727 85.1658C415.728 82.9666 417.275 80.2821 418.367 77.1123C419.46 73.9424 420.005 70.3555 420.005 66.3515C420.005 62.3475 419.46 58.753 418.367 55.568C417.275 52.383 415.728 49.6909 413.727 47.4918C411.724 45.2926 409.298 43.6015 406.447 42.4185C403.595 41.2355 400.41 40.644 396.892 40.644C393.403 40.644 390.233 41.2355 387.382 42.4185C384.531 43.6015 382.096 45.2926 380.079 47.4918C378.062 49.6909 376.508 52.383 375.415 55.568C374.323 58.753 373.777 62.3475 373.777 66.3515C373.777 70.3555 374.323 73.9424 375.415 77.1123C376.508 80.2821 378.062 82.9666 380.079 85.1658C382.096 87.3649 384.531 89.0484 387.382 90.2163ZM450.445 98.9295V71.7205H457.134C458.377 71.7205 459.295 71.8797 459.886 72.1982C460.478 72.5168 461.031 73.04 461.547 73.768L478.473 97.064C479.231 98.3077 480.414 98.9295 482.022 98.9295H489.848L470.829 73.04C470.01 71.8267 469.039 70.9015 467.917 70.2645C470.435 69.6882 472.687 68.8388 474.674 67.7165C476.661 66.5942 478.344 65.2368 479.724 63.6443C481.104 62.0518 482.159 60.2545 482.887 58.2525C483.615 56.2505 483.979 54.0968 483.979 51.7915C483.979 49.0312 483.508 46.5363 482.568 44.3067C481.628 42.0772 480.179 40.1738 478.223 38.5965C476.266 37.0192 473.786 35.8134 470.784 34.9792C467.781 34.1451 464.216 33.728 460.091 33.728H441.664V98.9295H450.445ZM450.445 65.305H459.727C462.275 65.305 464.527 64.9941 466.484 64.3722C468.44 63.7504 470.078 62.8708 471.398 61.7332C472.717 60.5958 473.711 59.2383 474.378 57.661C475.045 56.0837 475.379 54.3395 475.379 52.4285C475.379 48.5458 474.105 45.6187 471.557 43.647C469.009 41.6753 465.187 40.6895 460.091 40.6895H450.445V65.305Z" fill="#242D36"/>
</svg>