<svg width="490" height="132" viewBox="0 0 490 132" fill="none" xmlns="http://www.w3.org/2000/svg">
<g clip-path="url(#clip0_0_2685)">
<path d="M57.8468 102.568C72.3279 98.6308 81.2034 89.9555 84.7403 76.075C86.1417 70.7363 86.1417 57.9902 84.7403 52.7183C81.6706 41.04 74.1964 32.1644 64.3866 28.6943C58.2016 26.4807 47.5703 26.1727 40.053 27.8941L39.4951 28.027L37.6933 28.4941V1H11L11 98.2304L16.8725 100.032C26.6823 103.035 32.6216 103.903 43.032 103.903C50.773 103.969 53.7093 103.636 57.8468 102.568ZM207.73 102.768C212.001 101.767 219.408 98.3639 220.209 97.0959C220.543 96.5621 215.337 82.8818 214.136 81.2134C214.069 81.08 212.535 81.7473 210.799 82.6816C208.923 83.6826 206.752 84.3316 205.059 84.4089L204.727 84.4166L204.444 84.4161C200.15 84.3965 199.873 83.7571 199.856 67.0924L199.855 64.8519L199.855 64.2632V47.046L208.872 47.0456C213.517 47.0364 217.206 46.8378 217.206 46.5121C217.206 46.2514 215.869 42.2344 214.252 37.5082L214.136 37.1694L211 28.3607H199.855L199.855 9.67533L173.162 9.67533L173.162 28.3607H162.485V47.046H173.028L173.295 67.9335L173.496 88.7543L175.698 93.2254C178.167 98.2971 181.57 101.233 186.775 102.768C191.046 104.036 202.258 104.036 207.73 102.768ZM306.428 102.435L319.375 65.9982C326.515 45.9115 332.454 29.2282 332.521 28.9612C332.652 28.6335 326.797 28.3702 319.507 28.3609L318.17 28.3609C307.328 28.3676 305.556 28.5005 305.105 29.3131L305.07 29.3834C305.054 29.4194 305.04 29.4566 305.027 29.4951C304.827 30.1625 302.891 37.3029 300.622 45.3776C298.461 53.3028 296.171 61.4209 295.582 63.6117L295.551 63.7293L294.483 67.3996L289.545 50.3826L289.272 49.4504C286.687 40.6159 284.342 32.4701 283.894 30.906L283.872 30.8298L283.205 28.2939L274.396 28.4941L265.654 28.6943L261.116 44.3766C260.845 45.299 260.573 46.2229 260.304 47.1398L260.035 48.0542C257.94 55.1935 256.04 61.7352 255.478 63.6156L255.444 63.7293L254.376 67.3996L244.967 38.7043L235.491 10.009L222.678 9.8088C221.63 9.79891 220.611 9.79341 219.637 9.7921L218.559 9.79237C213.507 9.80197 209.879 9.9299 209.931 10.1425C209.931 10.1821 210.034 10.5099 210.23 11.0991L210.336 11.4154C211.961 16.2569 218.296 34.2917 225.88 55.6352L226.148 56.3886L242.364 102.101H262.851L268.524 83.2154C271.593 72.8718 274.196 64.4634 274.33 64.5968C274.463 64.7303 276.198 70.3359 278.267 77.1427C278.721 78.6222 279.201 80.1853 279.684 81.7615L280.169 83.3394L280.491 84.3896C281.883 88.9271 283.205 93.2454 283.928 95.6364L284.006 95.8947L286.008 102.435H306.428ZM142.531 102.234C147.808 100.497 153.271 97.3944 157.125 93.9439L157.546 93.5591L161.35 90.0222L144.8 77.076L142.465 79.4116C136.525 85.2174 126.782 86.1517 120.176 81.5471C118.229 80.1846 115.274 74.7221 115.111 72.0893L115.104 71.8708V70.4026L163.352 70.4026L162.885 64.2632C161.55 44.7103 152.875 32.2979 137.793 28.1605C130.319 26.0917 120.443 26.2919 113.436 28.6943C99.2214 33.5658 90.3459 46.045 89.3449 62.5948C88.1437 82.9485 98.821 98.5641 116.839 102.835C122.445 104.17 137.727 103.769 142.531 102.234ZM352.341 103.369C360.215 103.369 364.553 102.234 369.691 98.7643C371.026 97.83 372.161 97.0959 372.294 97.0959C372.357 97.0959 372.782 98.18 373.225 99.5472L373.295 99.7653L374.096 102.435H396.718L396.718 76.0434C396.704 62.3438 396.441 50.2656 396.051 48.3806C394.049 37.7033 387.176 30.763 376.165 28.0937C368.624 26.2252 358.08 26.3587 350.672 28.3607C346.966 29.336 338.762 33.5424 335.566 36.1032L335.324 36.3019L333.055 38.1704L338.927 44.6436C342.197 48.1804 344.933 51.05 345.067 51.05C345.2 51.05 346.735 50.1157 348.47 49.048C354.743 45.044 360.949 44.1097 365.888 46.3786C368.824 47.7133 370.692 50.5828 370.692 53.9195C370.692 55.4544 370.425 55.5211 362.351 56.3219C339.261 58.5241 328.917 65.6646 328.117 79.812C327.526 89.6631 331.846 97.1875 340.38 101.304L340.796 101.5L341.306 101.728C344.763 103.253 345.907 103.433 352.341 103.369ZM419.074 132.932C428.75 132.264 435.691 128.594 440.162 121.787C440.216 121.704 440.3 121.548 440.414 121.324L440.537 121.077C440.957 120.224 441.66 118.698 442.588 116.635L443.181 115.313C446.899 106.997 453.468 91.8685 460.062 76.5137L461.161 73.9536L461.692 72.7145C469.922 53.5168 477.825 34.8142 479.868 29.4951C480.24 28.5046 479.462 28.3755 469.171 28.362L468.35 28.3612L468.138 28.3611L452.975 28.3607L445.834 49.048C441.964 60.4594 438.76 70.069 438.76 70.5361C438.76 72.8484 436.929 68.2278 430.547 49.7458L430.352 49.1814L423.145 28.3607L394.116 28.3607L397.452 35.8348C399.01 39.2827 404.181 50.9332 409.801 63.6032L410.284 64.6916L410.768 65.7839C411.173 66.6956 411.578 67.6103 411.984 68.5256L412.715 70.173L413.202 71.2702L425.547 99.1647L424.546 101.634C421.543 109.175 419.808 111.977 417.673 112.845C414.67 114.113 412.267 114.046 407.729 112.445C405.594 111.711 403.592 111.31 403.325 111.577C403.125 111.911 402.257 113.779 401.523 115.781C400.83 117.672 399.541 121.11 398.613 123.567L398.453 123.989L396.718 128.527L399.588 129.795C404.526 131.931 413.135 133.332 419.074 132.932ZM138.461 56.3886L125.432 56.3883C125.295 56.3882 125.159 56.3881 125.026 56.3879L124.246 56.3869C116.152 56.3725 115.189 56.251 115.303 55.3708L115.316 55.2861C115.33 55.2136 115.349 55.1363 115.371 55.054C115.571 54.3199 115.971 53.052 116.172 52.1844C116.772 49.9822 119.642 46.4454 122.044 44.9772C124.98 43.1754 129.652 43.3089 132.521 45.2442C134.99 46.9125 137.393 50.8498 137.993 54.1864L138.461 56.3886ZM39.5184 84.0894L39.2282 84.0162L37.6933 83.6158L37.6933 47.7133L39.5618 47.3129C40.5628 47.1127 41.6973 46.8458 42.031 46.7123C44.3666 45.9115 48.5041 46.5788 51.774 48.1804C54.4434 49.5818 55.8448 50.8498 57.3796 53.3189C59.1814 56.2552 59.3816 57.2562 59.5818 63.3956C59.9155 72.2044 58.781 76.5421 55.1107 80.2124C53.6426 81.6806 51.3069 83.2154 49.8388 83.6158C47.1438 84.45 42.0425 84.6672 39.5184 84.0894ZM356.678 85.084C352.274 83.2822 351.407 76.6756 355.144 72.9385C356.478 71.6038 358.347 70.803 361.35 70.1357C363.632 69.6285 366.517 69.1816 368.001 69.1381L368.223 69.1347L370.759 69.068L370.559 75.808C370.359 82.3479 370.292 82.6816 368.557 83.9495C366.288 85.6846 359.548 86.2852 356.678 85.084Z" fill="white"/>
</g>
<defs>
<clipPath id="clip0_0_2685">
<rect width="490" height="132" fill="white"/>
</clipPath>
</defs>
</svg>