<svg width="490" height="132" viewBox="0 0 490 132" fill="none" xmlns="http://www.w3.org/2000/svg">
<path fill-rule="evenodd" clip-rule="evenodd" d="M53.21 64.8001C56.75 64.0801 58.21 63.8701 61.04 62.1701C63.1499 60.8334 64.8926 58.991 66.11 56.8101C67.5366 54.1086 68.0356 51.013 67.53 48.0001C66.53 42.5601 62.15 38.9201 56.84 38.0501C51.7 37.2101 32.47 37.5301 26.5 37.5301L14.36 94.6201C21.8933 94.6201 29.4267 94.6201 36.96 94.6201C45.23 94.6201 53.59 94.0601 59.18 88.4701C60.107 87.5109 60.9191 86.4471 61.6 85.3001C64.68 79.9401 65.34 72.7401 60.6 68.4601C58.26 66.3401 56.82 65.8801 53.21 64.8001M39.08 47.3401C41.84 47.3401 47.08 46.9901 49.29 47.9301C52.0478 48.9877 53.4876 52.0259 52.56 54.8301C50.88 61.2001 41.27 60.3801 36.43 60.3601L39.08 47.3401ZM34.33 69.8201C40.42 69.8201 49.33 68.4201 49.33 75.7101C49.33 85.4201 38.24 84.1301 31.33 84.1401L34.33 69.8201Z" fill="white"/>
<path fill-rule="evenodd" clip-rule="evenodd" d="M294.24 51.92H281.24L268.74 111.79L283.11 111.74L288.3 87.74C288.824 88.5821 289.392 89.3966 290 90.18C291.866 92.5058 294.394 94.2109 297.25 95.07C303.52 97.07 310.96 95.2 315.95 91.07C317.403 89.9058 318.676 88.5345 319.73 87C327.11 76.28 326.58 58.13 315.64 52.75C308.9 49.43 299.48 51.5 294.64 56.91C294.066 57.6337 293.426 58.3031 292.73 58.91L294.24 51.92ZM300.45 62.36C307.13 61.05 310.14 66.48 309.27 73.2C307.75 84.86 297.27 87.73 292.85 82.06C288.75 76.76 291.86 64 300.45 62.36Z" fill="#2192D1"/>
<path fill-rule="evenodd" clip-rule="evenodd" d="M277.11 38.9201C274.76 37.3301 264.82 36.4801 261.38 36.3601C255.31 36.1501 250.45 36.5101 245.38 38.6701C241.247 40.3484 237.828 43.414 235.71 47.3401C233.63 51.5601 233.33 58.1201 235.82 62.1001C238.31 66.0801 241.45 67.4501 246.67 69.5801C250.4 71.1001 256.88 73.7301 255.95 78.5801C254.68 85.1601 242.49 85.4401 235.67 83.3001C232.67 82.3001 230.81 81.2201 229.17 80.6701L226.72 92.9001C227.88 93.1401 229.2 93.6401 230.38 93.9601C242.71 97.3101 260.76 97.5801 269.05 86.4701C271.91 82.2273 272.97 77.0238 272 72.0001C270.46 64.8501 263.41 61.7601 257.48 59.1201C255.386 58.3629 253.409 57.3124 251.61 56.0001C250.741 55.1849 250.24 54.0524 250.222 52.8613C250.203 51.6702 250.668 50.5224 251.51 49.6801C254.62 46.6801 262.36 46.9901 266.56 47.8101C270.15 48.5101 272.17 49.6501 273.62 49.9701L277.11 38.9201Z" fill="#2192D1"/>
<path fill-rule="evenodd" clip-rule="evenodd" d="M116.36 52.4298L125.15 92.0998C125.5 93.6598 126.03 94.5698 125.32 95.9598C120.24 105.96 110.09 99.6298 108.86 99.7598L106.74 110.52C112.88 111.93 118.64 114.15 125.94 111.24C128.491 110.194 130.744 108.535 132.5 106.41C133.06 105.72 133.62 105.21 134.17 104.41C135.17 102.94 136.17 101.6 137.17 99.9298L164.85 52.2998H149.42L135 80.3898L131.15 52.3898L116.36 52.4298Z" fill="white"/>
<path fill-rule="evenodd" clip-rule="evenodd" d="M89.64 95.8702C104.64 95.8702 116.51 86.4802 116.51 71.6502V70.5002C116.51 58.5002 107.45 51.2102 95.44 51.2002H94.07C78.8 51.2002 67.4 60.6302 67.4 75.5102V77.2502C67.4 89.6802 77.1 95.8602 89.64 95.8702M92.76 61.0002C95.0065 60.5958 97.3058 61.3472 98.88 63.0002C105.14 69.1802 100.12 85.0002 91.37 85.8202C78.05 87.1202 80.45 62.5002 92.76 61.0002Z" fill="white"/>
<path fill-rule="evenodd" clip-rule="evenodd" d="M376.63 74.7401C377.63 66.8101 375.43 60.7401 371.35 56.8201C363 48.7401 344 49.2301 334.49 58.5101C333.94 59.0401 333.67 59.5101 333.16 60.0801C330.291 63.5432 328.497 67.7701 328 72.2401C325.95 88.0101 335.7 96.4601 350.93 95.8401C358.79 95.5101 364.52 93.4801 370.04 88.4401C373.61 85.1901 376.04 79.7201 376.64 74.7401M353.09 61.0001C366.32 59.3501 363.65 84.4901 351.89 85.8101C348.896 86.2495 345.927 84.8708 344.33 82.3001C341.33 77.3001 342.87 69.4301 346.22 65.2301C347.79 62.8924 350.296 61.3495 353.09 61.0001V61.0001Z" fill="#2192D1"/>
<path fill-rule="evenodd" clip-rule="evenodd" d="M225.49 77.22C226.27 75.56 226.55 70.69 226.55 68.57C226.55 57.76 219.84 50.95 209.09 50.96C198.78 50.96 191.43 53.9 186.52 61.25C183.406 65.9219 181.826 71.4482 182 77.06C182 88.49 190.79 96.06 202.35 96.06C206.97 96.06 214.97 95.42 218.84 93.6L220.92 82.97C215.32 84.66 213.15 86.58 205.24 86.37C202.67 86.4485 200.155 85.6161 198.14 84.02C196.332 82.2756 195.326 79.8617 195.36 77.35L225.49 77.22ZM197.2 69.06C197.65 65.47 201.2 60.18 206.09 59.61C211.96 58.91 215.19 63.35 214.21 69.1L197.2 69.06Z" fill="white"/>
<path fill-rule="evenodd" clip-rule="evenodd" d="M429 42.41L426.91 52.28H418.25L416.25 62.46H424.72L421.6 77.13C420.35 84.85 420.92 92.21 429.52 94.73C434.08 96.07 438.38 95.08 442.92 94.53L444.92 84.38C435.58 86.45 434.69 83.72 436.09 77.32L439.36 62.46H447.75L450.06 52.29H441.55L444.46 38.23L429 42.41Z" fill="#2192D1"/>
<path fill-rule="evenodd" clip-rule="evenodd" d="M486 54.2402V53.5902C481.95 52.6802 478.93 51.5902 474.41 51.2502C466.89 50.6702 458.02 51.9902 453.41 58.0002C451.175 61.1146 450.517 65.0919 451.63 68.7602C454.08 76.5602 465.45 76.4902 467.51 80.6802C468.58 82.8402 466.92 84.3202 465.51 84.9302C462.19 86.3202 456.91 85.6602 453.51 84.6802C452.636 84.4272 451.774 84.1302 450.93 83.7902C450.198 83.431 449.439 83.1301 448.66 82.8902L446.6 93.2702C448.67 94.6302 455.28 95.3902 458.24 95.6202C462.37 95.9402 467.06 95.8702 470.85 94.6902C478.23 92.4102 483.51 86.5202 482.4 78.7902C481.16 70.1902 470.1 69.6202 466.66 66.7102C462.4 63.1202 467.52 58.8402 477.72 61.4302C479.44 61.8602 481.38 62.6702 482.92 62.9702L486 54.2402Z" fill="#2192D1"/>
<path fill-rule="evenodd" clip-rule="evenodd" d="M186.83 32.9202L172.23 32.9102L159.69 94.6202L174.37 94.6102L186.83 32.9202V32.9202Z" fill="white"/>
<path fill-rule="evenodd" clip-rule="evenodd" d="M415 51.7601C408.93 50.5501 404 51.3501 399.76 55.8301L396.62 59.4901L398.06 52.1601C395.62 52.1601 386.26 51.8501 384.61 52.2701L376 94.6201H390.87L395.81 72.5501C397.05 68.8301 398.45 66.0301 401.26 64.5501C405.26 62.4001 408.48 63.6401 412.45 64.4801L415 51.7601Z" fill="#2192D1"/>
<path fill-rule="evenodd" clip-rule="evenodd" d="M19.14 26.8399C19.14 28.1499 18.88 30.0699 20.51 30.4399C22.14 30.8099 23.22 28.7899 24.21 27.6799C28.77 22.6799 34.45 21.1299 41.07 21.1599C51.26 21.2999 60.38 24.7499 69.62 28.6799C70.92 29.2399 73.01 30.0699 73.45 27.9999C73.84 26.1699 70.96 24.5499 69.66 23.5499C60 16.1999 47.9 7.05994 35.47 5.99994C30.7133 5.52905 26.0819 7.70651 23.41 11.6699C20.36 16.0599 19.31 21.5899 19.14 26.8399" fill="#BD2026"/>
<path fill-rule="evenodd" clip-rule="evenodd" d="M55.85 109L58 107.33C59.23 106.42 61 105.18 60.15 103.44C59.15 101.8 56.7 103.11 55.44 103.72C43.02 109.61 21.3 116.27 10.75 103.79C9.74999 102.67 7.64999 100.19 6.32999 102.32C5.17999 104.26 7.15999 113.2 7.99999 115.58C11.24 125.07 18.29 127.48 27.55 124.99C38.76 121.99 46.76 115.73 55.87 108.99" fill="#BD2026"/>
</svg>