<svg width="490" height="132" viewBox="0 0 490 132" fill="none" xmlns="http://www.w3.org/2000/svg">
<path d="M114.53 94.049C105.946 94.049 98.8338 86.9368 98.8338 78.3533V64.6195C98.8338 56.0359 105.946 48.9238 114.53 48.9238H123.358C131.942 48.9238 139.054 56.0359 139.054 64.6195V76.6365H110.851V78.3533C110.851 80.3152 112.322 81.7867 114.284 81.7867H138.809L135.866 94.049H114.53ZM114.53 59.7146C112.568 59.7146 111.096 61.1861 111.096 63.1481V66.3362H127.037V63.1481C127.037 61.1861 125.566 59.7146 123.604 59.7146H114.53Z" fill="white"/>
<path d="M48.6822 94.0741L48.6822 49.4395H36.9104L36.9104 94.0741H48.6822Z" fill="white"/>
<path d="M68.4234 94.0467L52.973 49.4121H65.4805L75.2903 77.8606L85.1001 49.4121H97.6076L82.1572 94.0467H68.4234Z" fill="white"/>
<path d="M238.378 94.049C229.795 94.049 222.683 86.9368 222.683 78.3533V64.6195C222.683 56.0359 229.795 48.9238 238.378 48.9238H247.207C255.791 48.9238 262.903 56.0359 262.903 64.6195V78.3533C262.903 86.9368 255.791 94.049 247.207 94.049H238.378ZM238.378 60.9408C236.416 60.9408 234.945 62.4123 234.945 64.3743V78.108C234.945 80.07 236.416 81.5414 238.378 81.5414H247.207C249.169 81.5414 250.641 80.07 250.641 78.108V64.3743C250.641 62.4123 249.169 60.9408 247.207 60.9408H238.378Z" fill="white"/>
<path d="M201.346 94.049C192.763 94.049 185.651 86.9368 185.651 78.3533V64.6195C185.651 56.0359 192.763 48.9238 201.346 48.9238H219.249L216.306 61.1861H201.346C199.384 61.1861 197.913 62.6576 197.913 64.6195V78.3533C197.913 80.3152 199.384 81.7867 201.346 81.7867H219.249L216.306 94.049H201.346Z" fill="white"/>
<path d="M268.298 94.049V64.6195C268.298 56.0359 275.41 48.9238 283.994 48.9238H296.256L293.313 61.1861H283.994C282.032 61.1861 280.561 62.6576 280.561 64.6195V94.2942H268.298V94.049Z" fill="white"/>
<path d="M313.423 94.049C304.84 94.049 297.728 86.9368 297.728 78.3533V64.6195C297.728 56.0359 304.84 48.9238 313.423 48.9238H322.252C330.836 48.9238 337.948 56.0359 337.948 64.6195V76.6365H309.745V78.3533C309.745 80.3152 311.216 81.7867 313.178 81.7867H337.458L334.515 94.049H313.423ZM313.423 59.7146C311.462 59.7146 309.99 61.1861 309.99 63.1481V66.3362H325.931V63.1481C325.931 61.1861 324.459 59.7146 322.498 59.7146H313.423Z" fill="white"/>
<path d="M42.6727 44.2623C39.2392 44.2623 36.5415 41.5646 36.5415 38.1311C36.5415 34.6977 39.2392 32 42.6727 32C46.1061 32 48.8038 34.6977 48.8038 38.1311C48.8038 41.5646 46.1061 44.2623 42.6727 44.2623Z" fill="white"/>
<path d="M142.242 94.0483L145.185 81.7861H165.541C167.503 81.7861 168.974 80.3146 168.974 78.3526V73.693C168.974 71.731 167.503 70.2595 165.786 70.2595C165.786 70.2595 156.957 69.5238 156.712 69.5238C148.619 68.7881 142.242 61.9212 142.242 53.8281V50.8851C142.242 42.3016 149.354 35.1895 157.938 35.1895H178.293L175.35 47.4517H157.938C155.976 47.4517 154.505 48.9232 154.505 50.8851V53.8281C154.505 55.5448 155.976 57.2615 157.693 57.2615H158.919C161.371 57.5068 166.276 57.9973 166.522 57.9973C174.615 58.4878 180.991 65.5999 180.991 73.693V78.3526C180.991 86.9362 173.879 94.0483 165.295 94.0483H142.242V94.0483Z" fill="white"/>
<path d="M405.881 94.0481C397.297 94.0481 390.185 86.936 390.185 78.1072V64.3734C390.185 55.7898 397.297 48.6777 406.126 48.6777H414.955C423.538 48.6777 430.651 55.7898 430.651 64.6187V76.6357L402.447 76.3904V78.1072C402.447 80.0691 403.919 81.5406 405.881 81.5406H430.16L427.217 93.8029L405.881 94.0481ZM405.881 59.7138C403.919 59.7138 402.447 61.1852 402.447 63.1472V66.3354H418.388V63.1472C418.388 61.1852 416.917 59.7138 414.955 59.7138H405.881Z" fill="#FF5500"/>
<path d="M447.573 78.3526V59.714H459.344L462.042 48.9232H447.573V35.1895H435.31V78.5979C435.31 87.1814 442.422 94.2936 451.006 94.2936H463.268V82.0313H451.006C449.289 81.7861 447.573 80.3146 447.573 78.3526Z" fill="#FF5500"/>
<path d="M382.583 62.4117C384.054 59.9592 385.035 57.0163 385.035 54.0733V50.8851C385.035 42.3016 377.923 35.1895 369.339 35.1895H363.208H362.227H358.794H346.531V47.4517V50.8851V54.0733V73.4477V78.5979V82.0313V94.2936H358.794H362.227H371.056C379.64 94.2936 386.752 87.1814 386.752 78.5979V73.4477C386.752 69.0333 385.28 65.3546 382.583 62.4117ZM369.094 47.2065C371.056 47.2065 372.528 48.6779 372.528 50.6399V53.8281C372.528 55.7901 371.056 57.2615 369.094 57.2615H361.982H358.548V47.2065H369.094V47.2065ZM374.489 78.3526C374.489 80.3146 373.018 81.7861 371.056 81.7861H363.208H358.794V69.5238H362.227H369.339H371.301C373.263 69.5238 374.735 70.9953 374.735 72.9572V78.3526H374.489Z" fill="#FF5500"/>
<path d="M472.342 59.9599V50.8858H469.154V48.9238H477.738V50.8858H474.55V59.9599H472.342Z" fill="#FF5500"/>
<path d="M485.586 56.5264H484.114L481.907 52.8478V59.9599H479.7V48.9238H481.907L484.85 53.8287L487.793 48.9238H490V59.9599H487.793V52.8478L485.586 56.5264Z" fill="#FF5500"/>
<path d="M15.6957 94.0455C7.11211 94.0455 0 86.9334 0 78.3498V34.9414H12.2623V78.3498C12.2623 80.3118 13.7337 81.7833 15.6957 81.7833H32.1271L29.1842 94.0455H15.6957Z" fill="white"/>
</svg>