<svg width="490" height="132" viewBox="0 0 490 132" fill="none" xmlns="http://www.w3.org/2000/svg">
<path fill-rule="evenodd" clip-rule="evenodd" d="M116.311 45.5715L111.7 61.7119H111.698L33.588 61.7119L50.8499 1.29449L143.894 1.29449C158.135 1.29449 164.609 9.8388 160.638 23.6489L158.912 29.6036C155.804 40.479 148.9 45.5715 137.679 45.5715H116.311ZM140.182 30.6399L143.807 17.6068H124.301L120.577 30.6399L140.182 30.6399Z" fill="#F8FF13"/>
<path fill-rule="evenodd" clip-rule="evenodd" d="M174.304 51.6116L168.577 61.71H148.38L184.027 1.29253H218.206V61.71H200.77V51.6116L174.304 51.6116ZM200.77 17.6915H193.542L182.626 36.9386L200.77 36.9386V17.6915Z" fill="#F8FF13"/>
<path fill-rule="evenodd" clip-rule="evenodd" d="M290.708 23.6489L289.155 29.0859C286.884 37.0962 282.586 41.9252 276.058 43.9456L281.474 61.7119H262.83L257.753 45.0537H246.53L241.77 61.7119H223.645L240.907 1.29449L273.964 1.29449C288.205 1.29449 294.679 9.66621 290.708 23.6489ZM273.878 17.6068H254.371L250.648 30.6399L270.253 30.6399L273.878 17.6068Z" fill="#F8FF13"/>
<path d="M306.409 61.7129L323.671 1.29546L305.546 1.29546L288.284 61.7129H306.409Z" fill="#F8FF13"/>
<path d="M192.866 70.3423L172.421 94.4973L164.038 70.3423L85.6675 70.3423L68.4056 130.76H146.515L156.047 97.3187L162.397 116.001H174.049L190.906 96.2169L180.953 130.76L199.079 130.76L216.341 70.3423L192.864 70.3423H192.866Z" fill="#F8FF13"/>
<path fill-rule="evenodd" clip-rule="evenodd" d="M204.896 130.759L240.542 70.3414H274.72V130.759H257.286V120.66H230.819L225.092 130.759H204.896ZM250.057 86.741L239.141 105.988H257.286V86.741H250.057Z" fill="#F8FF13"/>
<path d="M335.912 87.6013L340.832 70.3394H285.851L280.931 87.6013H300.772L288.441 130.757H306.566L318.897 87.6013H335.912Z" fill="#F8FF13"/>
<path d="M359.99 87.6013H387.437L392.442 70.3394H363.183C351.962 70.3394 345.058 75.4319 341.951 86.3073L335.564 108.402C331.508 122.557 338.067 130.757 352.309 130.757H375.094L380.013 113.495H352.567L359.99 87.6013Z" fill="#F8FF13"/>
<path d="M439.227 70.3423L433.062 91.9197H412.347L418.512 70.3423H400.387L383.125 130.76H401.251L407.415 109.182H428.13L421.965 130.76H440.091L457.352 70.3423H439.227Z" fill="#F8FF13"/>
<path d="M382.356 52.2938H376.855L383.4 29.3258H380.108L377.056 39.3643C375.53 44.2363 374.593 47.0604 374.245 47.8367C373.523 49.4971 372.585 50.6947 371.435 51.4302C370.283 52.167 368.73 52.4812 366.777 52.3741L365.251 52.2537L366.696 47.1541H367.9C368.65 47.1541 369.239 46.6793 369.668 45.729C370.096 44.7787 370.979 42.068 372.318 37.5975L376.373 24.1861L390.386 24.1861L382.356 52.2938Z" fill="black"/>
<path fill-rule="evenodd" clip-rule="evenodd" d="M404.967 51.0486C406.091 50.0849 406.974 48.4928 407.617 46.2703L411.993 30.8914C412.556 28.9105 412.449 27.2642 411.672 25.9525C410.895 24.6415 409.45 23.9849 407.336 23.9849L404.003 23.9849C402.156 23.9849 400.67 24.4668 399.546 25.4305C398.421 26.3942 397.539 27.9869 396.896 30.2088L392.52 45.5877C391.957 47.5693 392.063 49.2156 392.841 50.5266C393.616 51.839 395.062 52.4941 397.177 52.4941H400.509C402.357 52.4941 403.842 52.0123 404.967 51.0486ZM405.77 29.0443C406.599 29.0443 406.894 29.4733 406.653 30.3292L402.156 46.1097C401.915 46.9931 401.46 47.4348 400.791 47.4348H398.783C397.926 47.4348 397.618 47.0198 397.86 46.19L402.397 30.3694C402.611 29.486 403.065 29.0443 403.762 29.0443H405.77Z" fill="black"/>
<path d="M433.436 29.3289L428.738 29.3289L422.152 52.2969H416.652L423.197 29.3289H418.499L419.945 24.1892L434.921 24.1892L433.436 29.3289Z" fill="black"/>
<path fill-rule="evenodd" clip-rule="evenodd" d="M447.29 51.0486C448.414 50.0849 449.298 48.4928 449.94 46.2703L454.317 30.8914C454.879 28.9105 454.772 27.2642 453.996 25.9525C453.219 24.6415 451.774 23.9849 449.659 23.9849L446.326 23.9849C444.479 23.9849 442.994 24.4668 441.869 25.4305C440.745 26.3942 439.862 27.9869 439.219 30.2088L434.843 45.5877C434.28 47.5693 434.387 49.2156 435.164 50.5266C435.94 51.839 437.385 52.4941 439.5 52.4941H442.833C444.68 52.4941 446.166 52.0123 447.29 51.0486ZM448.093 29.0443C448.923 29.0443 449.217 29.4733 448.976 30.3292L444.479 46.1097C444.238 46.9931 443.783 47.4348 443.114 47.4348H441.106C440.249 47.4348 439.942 47.0198 440.184 46.19L444.72 30.3694C444.934 29.486 445.389 29.0443 446.085 29.0443H448.093Z" fill="black"/>
</svg>