<svg width="490" height="132" viewBox="0 0 490 132" fill="none" xmlns="http://www.w3.org/2000/svg">
<path fill-rule="evenodd" clip-rule="evenodd" d="M12.1248 34.3968C12.611 31.6324 13.1033 28.8694 13.578 26.1027C13.7215 25.2631 14.4687 24.9998 15.0198 24.5968C19.4634 21.3492 23.9352 18.1398 28.3986 14.9189C28.6391 14.9189 28.8802 14.9189 29.1214 14.9189C29.5572 15.2197 30.0533 15.0991 30.5235 15.0998C44.4038 15.1059 58.2833 15.1059 72.1636 15.0998C72.6337 15.0991 73.1298 15.2189 73.5656 14.9189C73.8061 14.9189 74.0472 14.9189 74.2884 14.9189C77.6726 18.4054 81.4049 21.5179 84.9555 24.825C86.05 25.8455 87.6383 26.5958 87.3482 28.5298C87.3742 28.9595 87.4169 29.3892 87.3398 29.8189C87.2742 30.3402 87.0849 30.8371 87.0429 31.3637C86.8124 32.6246 86.4293 33.8534 86.2629 35.1295C86.1568 35.5409 85.9935 35.9065 85.5409 36.0439C85.3218 36.066 85.1051 36.066 84.886 36.0492C78.7236 36.1172 72.5635 36.0729 66.4034 36.0721C65.6302 36.0721 64.8334 36.1027 64.2037 35.5119C64.1847 35.1555 64.1648 34.7998 64.1457 34.4441C63.9755 34.2266 63.8763 33.9832 63.8771 33.7038C63.9328 33.1779 64.0778 32.6841 64.4129 32.262C64.7319 32.0285 64.8891 32.3208 65.0891 32.4742C64.9662 32.2674 64.8197 32.0873 64.5693 32.0277C64.3213 31.801 64.3495 31.4522 64.1839 31.1866C64.0358 31.0821 63.8801 31.0157 63.7008 30.9851C54.1824 30.9874 44.6724 30.8546 35.1709 31.0615C35.0098 31.1447 34.8671 31.2576 34.7557 31.4042C34.5572 31.7789 34.4504 32.2369 33.9581 32.3529C34.1802 32.2361 33.6917 32.5032 33.794 32.2903C33.8428 32.1872 33.7085 32.0987 33.5787 32.1132C33.7627 33.2352 33.4467 34.2739 33.0445 35.3043C32.8827 35.5905 32.64 35.7699 32.337 35.8844C30.3174 36.2935 28.278 36.0676 26.2501 36.0844C22.182 36.1156 18.1132 36.1538 14.0474 36.0531C13.0941 36.0302 11.6035 36.279 12.1248 34.3968Z" fill="#F0E075"/>
<path fill-rule="evenodd" clip-rule="evenodd" d="M73.5649 14.9185C73.0329 15.5093 72.3269 15.2688 71.6965 15.2696C58.1276 15.2833 44.5579 15.2833 30.9891 15.2696C30.3586 15.2688 29.6526 15.5093 29.1207 14.9185C43.9351 14.9185 58.7504 14.9185 73.5649 14.9185Z" fill="#F1E27C"/>
<path fill-rule="evenodd" clip-rule="evenodd" d="M146.006 85.7397C151.928 85.7397 157.866 85.7771 163.803 85.7092C165.05 85.6947 165.883 86.0916 166.776 86.9357C171.581 91.4823 176.423 95.9931 181.356 100.4C182.119 101.083 181.859 101.46 181.73 102.154C181.569 103.024 181.119 103.1 180.386 103.097C174.303 103.073 168.221 103.065 162.14 103.098C161.001 103.105 160.153 102.612 159.549 101.781C157.25 98.6232 154.252 97.5722 150.363 97.9508C146.844 98.2942 143.265 98.0195 139.712 98.0271C138.991 98.0286 138.387 97.9882 137.771 97.4035C135.093 94.8581 132.336 92.3944 129.592 89.92C129.067 89.4468 128.715 88.9606 128.868 88.2134C130.301 81.2725 131.791 74.3438 133.14 67.3876C134.668 59.4972 136.065 51.5824 137.528 43.6791C137.88 41.7771 138.185 39.8598 138.659 37.9876C139.152 36.0467 141.174 35.5918 142.5 34.4935C144.482 32.8525 146.8 31.6413 148.758 29.9263C149.489 29.2859 150.396 28.9669 151.506 28.9737C161.863 29.0363 172.22 29.0226 182.578 28.9905C183.55 28.9875 184.224 29.279 184.931 29.9484C187.462 32.3396 189.97 34.7728 192.688 36.9389C194.606 38.4677 193.735 40.172 193.435 41.8091C192.327 47.8647 191.103 53.8981 189.912 59.9369C188.756 65.8024 187.48 71.6457 186.464 77.5349C185.895 80.8321 185.329 84.1209 184.487 87.3585C183.671 90.4947 181.943 92.8646 178.85 94.1346C178.069 94.4559 177.391 94.6429 176.717 94.0315C174.11 91.6747 171.517 89.3002 168.902 86.9525C168.295 86.4068 168.329 85.9412 168.494 85.1146C169.933 77.9249 171.203 70.7016 172.588 63.5019C173.916 56.5923 175.266 49.6873 176.743 42.8105C177.008 41.5756 176.545 41.6542 175.746 41.655C169.061 41.6596 162.377 41.6817 155.693 41.6313C154.684 41.6237 154.306 42.0503 154.151 42.9044C152.581 51.5595 150.912 60.1933 149.124 68.8072C147.965 74.3812 147.052 80.0078 146.006 85.7397Z" fill="white"/>
<path fill-rule="evenodd" clip-rule="evenodd" d="M290.751 72.653C292.23 65.3396 293.745 58.4163 294.985 51.4448C295.47 48.7277 296.14 46.0411 296.467 43.3034C296.57 42.4371 296.9 42.3684 297.582 42.3722C301.371 42.3898 305.159 42.3814 309.15 42.3814C308.216 47.0608 307.286 51.6166 306.405 56.1815C305.371 61.5379 304.404 66.9073 303.363 72.2614C302.222 78.1292 301.025 83.9863 299.863 89.8511C299.566 91.3478 299.229 92.8422 299.063 94.3549C298.955 95.3525 298.446 95.5067 297.625 95.5021C294.373 95.4861 291.121 95.4388 287.873 95.528C286.806 95.5571 286.63 94.9091 286.31 94.2206C282.49 85.9998 278.663 77.7812 274.838 69.5619C274.173 68.1354 273.51 66.7081 272.816 65.2145C271.979 66.7287 271.923 68.4048 271.635 69.9649C270.382 76.7676 269.278 83.5963 267.644 90.3243C267.477 91.0127 267.609 91.7096 267.371 92.4339C267.052 93.4017 267.303 94.861 266.541 95.3311C265.75 95.8204 264.445 95.4907 263.364 95.4937C260.36 95.5013 257.355 95.496 254.327 95.496C255.876 87.3301 257.379 79.2771 258.938 71.2357C259.952 66.0006 261.079 60.7884 262.098 55.5534C262.893 51.4639 263.635 47.363 264.316 43.253C264.434 42.5378 264.647 42.3684 265.298 42.3722C268.911 42.3921 272.524 42.3913 276.136 42.3722C276.716 42.3692 276.818 42.618 277.055 43.1316C279.874 49.2513 282.79 55.3267 285.641 61.4311C287.338 65.0595 288.964 68.7215 290.751 72.653Z" fill="white"/>
<path fill-rule="evenodd" clip-rule="evenodd" d="M321.701 65.561C321.251 67.7736 320.792 69.9855 320.355 72.202C318.905 79.5642 317.445 86.9264 316.045 94.2985C315.896 95.0839 315.691 95.5029 314.848 95.5006C311.061 95.4869 307.274 95.4945 303.437 95.4945C305.001 87.1355 306.384 78.8727 308.127 70.6869C309.617 63.6934 310.662 56.6158 312.313 49.6513C312.809 47.56 313.24 45.3993 313.46 43.2378C313.536 42.486 313.818 42.3684 314.452 42.3722C317.944 42.3898 321.437 42.3852 324.93 42.3761C325.524 42.3745 325.868 42.5615 326.147 43.1614C329.582 50.5435 333.13 57.8737 336.482 65.2939C337.56 67.682 338.956 69.9458 339.661 72.7431C340.536 71.0136 340.587 69.2681 340.918 67.6248C342.03 62.1058 343.009 56.5594 344.038 51.0228C344.456 48.7743 344.894 46.5273 345.278 44.272C345.477 43.0996 345.669 42.2601 347.288 42.3303C350.891 42.4875 354.506 42.3791 358.221 42.3791C356.552 50.7526 354.865 59.0162 353.264 67.2958C351.527 76.2799 349.849 85.2755 348.208 94.2771C348.04 95.1953 347.726 95.5105 346.845 95.5037C343.533 95.4808 340.22 95.4602 336.909 95.5174C336.009 95.5334 335.658 95.0992 335.333 94.3954C332.283 87.8049 329.201 81.2311 326.158 74.6382C324.765 71.6196 323.435 68.5712 322.075 65.5358C321.95 65.545 321.825 65.5526 321.701 65.561Z" fill="white"/>
<path fill-rule="evenodd" clip-rule="evenodd" d="M209.87 95.4947C206.62 95.4947 203.358 95.6641 200.123 95.4428C197.416 95.2581 194.641 95.2237 192.14 93.7323C189.803 92.3387 189.032 89.4116 189.393 86.6632C190.047 81.7037 191.133 76.838 192.085 71.9418C193.616 64.0606 195.18 56.1855 196.713 48.3051C197.015 46.7488 197.317 45.1842 197.473 43.6104C197.565 42.6724 197.934 42.3648 198.824 42.3709C202.255 42.3945 205.686 42.4128 209.116 42.3617C210.225 42.3457 210.228 42.8326 210.058 43.6867C208.865 49.7232 207.715 55.7695 206.53 61.8075C205.616 66.4641 204.616 71.1038 203.767 75.771C203.4 77.7913 203.092 79.8208 202.583 81.8128C202.394 82.5516 202.69 82.8684 203.517 82.8638C209.356 82.834 215.195 82.7974 221.032 82.8882C222.278 82.9073 222.249 82.009 222.371 81.432C223.064 78.1622 223.605 74.8605 224.244 71.5785C225.286 66.2298 226.384 60.8932 227.418 55.5429C228.197 51.5107 228.969 47.4754 229.615 43.4211C229.755 42.5373 229.995 42.3571 230.795 42.3648C234.286 42.3991 237.777 42.3877 241.269 42.3732C242.078 42.3701 242.374 42.435 242.162 43.4791C240.699 50.6589 239.37 57.8662 237.964 65.0567C236.817 70.9221 235.538 76.7625 234.491 82.6447C234.047 85.1398 233.453 87.5501 232.497 89.8879C231.434 92.489 229.227 93.6575 226.757 94.3887C223.673 95.3 220.481 95.5107 217.275 95.4954C214.806 95.4863 212.339 95.4947 209.87 95.4947Z" fill="white"/>
<path fill-rule="evenodd" clip-rule="evenodd" d="M420.441 95.1145C414.724 95.1137 409.006 95.0816 403.288 95.1404C402.117 95.1534 401.886 94.8885 402.114 93.7322C404.352 82.3523 406.539 70.9625 408.729 59.5727C409.728 54.3803 410.737 49.1896 411.654 43.9827C411.844 42.9035 412.266 42.6532 413.294 42.657C424.851 42.6913 436.407 42.6974 447.964 42.6524C449.257 42.6471 449.425 42.9852 449.152 44.1896C448.5 47.0601 447.961 49.9604 447.501 52.8668C447.286 54.2231 446.798 54.7047 445.333 54.6864C437.991 54.5963 430.647 54.6666 423.304 54.6231C422.175 54.6162 421.577 54.7956 421.424 56.0976C421.198 58.0012 420.779 59.8932 420.299 61.7525C420.02 62.8363 420.405 62.95 421.325 62.9439C425.779 62.9103 430.234 62.966 434.687 62.9027C435.857 62.8867 436.127 63.1828 435.879 64.3307C435.235 67.3264 434.65 70.3374 434.159 73.3614C433.954 74.6215 433.453 74.9825 432.172 74.9542C427.841 74.8604 423.506 74.9497 419.173 74.8955C418.146 74.8825 417.685 75.0985 417.546 76.2159C417.333 77.9408 416.944 79.6512 416.523 81.341C416.195 82.653 416.31 83.1934 417.941 83.1713C425.283 83.0713 432.627 83.1728 439.97 83.0896C441.452 83.0736 441.65 83.4827 441.359 84.8016C440.686 87.8522 440.083 90.9227 439.578 94.0055C439.396 95.1183 438.804 95.1282 437.956 95.1251C432.119 95.1045 426.28 95.1145 420.441 95.1145Z" fill="#21A44B"/>
<path fill-rule="evenodd" clip-rule="evenodd" d="M7.45915 102.406C7.31871 102.274 7.17904 102.142 7.0386 102.011C5.85787 100.55 4.13447 99.6268 3.09799 98.0224C2.69958 97.5836 2.38055 96.9951 1.8875 96.7295C-0.0610555 95.6778 0.158758 94.1849 0.885362 92.5355C1.5387 92.4042 2.20042 92.4248 2.86063 92.4256C17.94 92.4264 33.0193 92.4279 48.0986 92.418C49.0733 92.4172 50.0182 92.4668 50.8982 92.9301C54.3602 95.6053 57.3743 98.7826 60.6677 101.649C63.5993 104.202 66.424 106.878 69.2869 109.509C70.1555 110.308 71.092 111.069 71.2965 112.344C71.1935 112.678 70.908 112.831 70.6424 113.007C70.0692 113.509 69.3961 113.7 68.6435 113.699C60.154 113.682 51.6637 113.781 43.1742 113.649C42.5804 113.577 42.153 113.215 41.7416 112.824L41.7805 112.861C39.9762 110.898 37.6583 109.515 35.8127 107.594C35.6952 107.462 35.5884 107.324 35.4784 107.183C35.3365 107.053 35.1793 106.957 34.9938 106.9C27.7484 106.781 20.509 106.842 13.2705 106.875C12.6927 106.984 12.2187 106.778 11.8066 106.388C11.441 106.234 11.154 106 11.0105 105.617C9.98089 104.376 8.70246 103.41 7.45915 102.406Z" fill="#F0E075"/>
<path fill-rule="evenodd" clip-rule="evenodd" d="M481.449 54.6462C479.884 54.6454 478.317 54.6912 476.755 54.6286C475.847 54.5912 475.523 54.9332 475.354 55.8155C472.952 68.4517 470.502 81.0772 468.1 93.7119C467.921 94.656 467.739 95.1811 466.576 95.1475C463.39 95.0544 460.197 95.0674 457.01 95.1399C455.835 95.1666 455.802 94.7674 455.996 93.779C458.451 81.2764 460.847 68.7631 463.31 56.262C463.554 55.0209 463.43 54.5676 462.019 54.6149C458.893 54.7179 455.762 54.6195 452.633 54.6637C451.723 54.6775 451.536 54.4668 451.732 53.5433C452.418 50.3117 453.039 47.0649 453.59 43.8082C453.748 42.877 454.133 42.6618 455.004 42.6641C466.197 42.6877 477.39 42.687 488.583 42.6656C489.49 42.6641 489.937 42.832 489.718 43.87C489.036 47.1038 488.371 50.343 487.773 53.5937C487.623 54.4065 487.352 54.7011 486.504 54.6668C484.821 54.5966 483.134 54.6462 481.449 54.6462Z" fill="#21A44B"/>
<path fill-rule="evenodd" clip-rule="evenodd" d="M243.173 95.4945C241.308 95.4945 239.443 95.4823 237.578 95.5006C236.794 95.5075 236.446 95.477 236.662 94.41C238.126 87.1729 239.449 79.9069 240.871 72.6622C242.134 66.2258 243.577 59.823 244.724 53.3675C245.319 50.0161 246.112 46.7052 246.604 43.34C246.721 42.5409 246.942 42.3608 247.678 42.3669C251.468 42.3952 255.259 42.4089 259.05 42.3616C260.069 42.3486 260.107 42.8462 259.962 43.5866C258.049 53.3606 256.149 63.137 254.22 72.908C252.803 80.0908 251.295 87.2569 249.963 94.4542C249.764 95.5312 249.331 95.5037 248.588 95.4983C246.783 95.4869 244.978 95.4945 243.173 95.4945Z" fill="white"/>
<path fill-rule="evenodd" clip-rule="evenodd" d="M55.9524 94.6821C55.9951 93.9295 55.396 93.5296 55.0266 93.0045C55.457 92.4862 56.0592 92.4374 56.6629 92.4366C62.1697 92.4313 67.6773 92.4008 73.184 92.4527C73.4229 92.4549 73.6565 92.5244 73.8824 92.5984C74.8738 93.0846 74.683 93.9051 74.448 94.7134C74.2678 95.3308 74.0076 95.9216 73.6832 96.4787C72.7871 97.7984 72.272 99.4012 70.8584 100.345C70.36 100.666 69.8097 100.89 69.2923 101.177C68.5389 101.53 67.794 101.896 67.1514 102.442C66.1416 102.989 65.2669 102.775 64.4976 101.97C63.7756 101.025 63.1978 99.9187 61.9033 99.5943C61.0584 98.9806 60.1051 98.5044 59.4465 97.6549L59.4747 97.6915C58.3375 96.6444 57.356 95.4155 55.9524 94.6821Z" fill="#F0E074"/>
<path fill-rule="evenodd" clip-rule="evenodd" d="M6.75772 61.8945C6.87602 60.1574 7.32557 58.4866 7.79344 56.822C9.3306 56.4549 10.8914 56.6716 12.4393 56.6594C16.8653 56.6251 21.2913 56.6594 25.7166 56.6388C26.6577 56.635 27.672 56.7594 28.2933 55.771C28.4093 55.5932 28.5566 55.4459 28.7337 55.3291C29.4511 55.3657 29.4542 55.9389 29.5649 56.432C29.6694 57.3288 29.4282 58.1867 29.2695 59.0552C29.2328 59.5445 29.1962 60.0322 29.0787 60.5107C28.7215 61.3366 29.1191 62.3738 28.3589 63.0882C28.1475 63.1554 27.9392 63.15 27.73 63.0752C26.847 62.2074 25.7578 62.0693 24.5763 62.0754C19.2871 62.1036 13.9971 62.0822 8.70704 62.0884C8.05294 62.0891 7.38205 62.2143 6.75772 61.8945Z" fill="#FDF7AC"/>
<path fill-rule="evenodd" clip-rule="evenodd" d="M70.7355 112.562C70.9233 112.49 71.1111 112.418 71.2981 112.346C71.9514 112.961 72.5872 113.599 73.2665 114.187C74.122 114.927 73.5008 115.753 73.4176 116.524C73.3206 117.428 72.546 117.158 71.9964 117.159C63.6573 117.169 55.3189 117.163 46.9805 117.174C46.3622 117.175 45.828 117.121 45.354 116.636C44.4389 115.699 43.468 114.816 42.5201 113.912C42.8033 113.673 43.1322 113.661 43.4757 113.715C52.2193 113.829 60.9638 113.8 69.7029 113.729C69.8945 113.698 70.0708 113.622 70.2234 113.499C70.5173 113.256 70.3806 112.773 70.7355 112.562Z" fill="#5A2803"/>
<path fill-rule="evenodd" clip-rule="evenodd" d="M59.1282 61.8899C59.2786 60.1513 59.5823 58.4439 60.1769 56.7968C66.411 57.238 72.6536 56.9327 78.8923 56.9701C79.5327 56.9739 80.2448 56.9495 80.5844 56.203C80.6836 55.9077 80.8096 55.6283 81.0408 55.41C81.8102 55.236 81.7911 55.8275 81.9025 56.2946C81.9239 56.777 81.7865 57.2349 81.6797 57.6982C81.6232 58.147 81.6239 58.5988 81.6171 59.0507C81.6071 59.4964 81.5736 59.9376 81.3354 60.3337C81.0691 60.7184 80.8386 60.3764 80.5951 60.294C80.7355 60.6298 81.0492 60.8336 81.2438 61.1328C81.3507 61.519 81.2354 61.8709 81.0881 62.2204C80.8088 62.5952 80.6989 63.2393 79.9814 62.9257C79.3258 61.8922 78.3428 61.6892 77.1971 61.7083C71.1752 61.8098 65.1486 61.5366 59.1282 61.8899Z" fill="#FDF7AE"/>
<path fill-rule="evenodd" clip-rule="evenodd" d="M64.1121 33.6915C64.1228 33.9426 64.1328 34.1937 64.1434 34.4448C55.6135 34.4677 47.0835 34.4868 38.5543 34.5219C37.8826 34.5242 37.0652 34.2166 36.6943 35.1538C35.8601 35.7881 35.0014 35.7797 34.1214 35.2546C33.4757 33.7991 33.8871 32.5955 34.9991 31.5544C35.4624 31.3972 35.9455 31.3979 36.4256 31.3972C45.0151 31.3888 53.6054 31.3781 62.1957 31.404C64.3465 31.4109 64.4884 31.6254 64.1121 33.6915Z" fill="#B75810"/>
<path fill-rule="evenodd" clip-rule="evenodd" d="M36.1692 107.377C37.9933 109.253 40.4761 110.455 41.782 112.863C41.4142 112.869 41.0638 112.83 40.8188 112.502C39.3206 110.5 37.2415 110.333 34.9342 110.385C29.7183 110.504 24.487 110.228 19.2832 110.498C16.3142 110.652 14.2619 109.624 12.5774 107.398C13.0461 106.916 13.6628 106.922 14.2611 106.92C20.9318 106.899 27.6018 106.907 34.2733 106.91C34.9495 106.91 35.5845 107.027 36.1692 107.377Z" fill="#5D2904"/>
<path fill-rule="evenodd" clip-rule="evenodd" d="M9.23826 49.2255C9.22757 48.4837 9.22452 47.7441 9.62369 47.0762C10.3747 46.413 11.3021 46.5221 12.1889 46.5191C16.499 46.503 20.809 46.5092 25.119 46.5137C27.0759 46.516 29.0382 46.5992 30.9509 46.0527C31.5104 46.729 31.4005 47.4487 31.0936 48.1829C30.7135 48.6867 30.6403 49.3454 30.2594 49.8529C30.032 50.1147 29.745 50.275 29.4153 50.3727C25.6929 50.7451 21.9607 50.4841 18.2346 50.5383C15.7678 50.5742 13.2979 50.6245 10.835 50.4925C10.1083 50.4536 9.01615 50.5879 9.23826 49.2255Z" fill="#F8EE96"/>
<path fill-rule="evenodd" clip-rule="evenodd" d="M8.15674 55.0185C8.29259 53.7904 8.36129 52.5502 8.88029 51.3984C9.89464 51.8129 10.9464 51.9449 12.0409 51.9411C16.8981 51.9213 21.7561 51.9258 26.6126 51.9365C27.5064 51.9388 28.4177 51.8465 29.2733 52.2266C30.0632 53.4348 29.8236 54.4781 28.7596 55.3871V55.3879C28.0689 56.0076 27.2103 55.9664 26.3753 55.968C21.1036 55.9825 15.8319 55.9992 10.5609 55.9519C9.69238 55.9428 8.5895 56.2656 8.15674 55.0185Z" fill="#FBF3A3"/>
<path fill-rule="evenodd" clip-rule="evenodd" d="M32.727 35.5123C32.7293 35.2726 32.7315 35.0322 32.7338 34.7926C32.9308 34.604 33.1544 34.5697 33.4032 34.675C33.6803 35.0902 33.5978 35.6054 33.7871 36.0481C33.826 36.3122 33.8153 36.5732 33.7688 36.8342C33.3284 37.8478 33.4566 39.0621 32.6629 39.9513C31.6729 40.5856 30.5937 40.7863 29.4198 40.7802C24.0856 40.7527 18.7513 40.7779 13.417 40.758C12.595 40.7558 11.718 40.8825 11.0395 40.21C11.0792 39.3529 10.9578 38.4714 11.4333 37.6814C12.1889 37.0144 13.1216 37.1281 14.0131 37.125C18.9482 37.1098 23.8841 37.0792 28.8184 37.1411C30.4128 37.1609 31.8111 36.9861 32.727 35.5123Z" fill="#F3E580"/>
<path fill-rule="evenodd" clip-rule="evenodd" d="M11.0403 40.2092C17.437 40.2099 23.8337 40.2229 30.2304 40.1947C30.9028 40.1916 31.9049 40.6267 32.0103 39.3398C32.224 39.5108 32.4377 39.6818 32.6506 39.8527C32.9307 40.0145 33.004 40.2794 33.0147 40.5771C32.8918 41.3792 32.5484 42.07 31.9698 42.6454C31.6203 42.9164 31.2264 43.0843 30.796 43.1789C24.6221 43.469 18.4467 43.2988 12.2721 43.2621C11.5562 43.2576 10.4594 43.3591 10.6846 42.0005C10.7334 41.3899 10.5464 40.732 11.0403 40.2092Z" fill="#F4E785"/>
<path fill-rule="evenodd" clip-rule="evenodd" d="M63.0619 41.9681C63.1077 41.3652 62.9337 40.7202 63.3955 40.1959C64.1679 39.5761 65.0906 39.6525 65.9882 39.6502C71.0447 39.6395 76.1019 39.628 81.1584 39.6586C82.3986 39.6662 83.5473 39.5151 84.5349 38.7061C85.4707 39.1396 85.1928 39.9944 85.2425 40.737C85.1699 41.4156 84.97 42.0422 84.4891 42.5543C84.1327 42.8566 83.7282 43.0626 83.271 43.168C77.0567 43.49 70.8386 43.2939 64.6228 43.2641C63.8916 43.2595 62.8192 43.3099 63.0619 41.9681Z" fill="#F4E886"/>
<path fill-rule="evenodd" clip-rule="evenodd" d="M50.8989 92.9312C34.7213 92.9427 18.5444 92.9549 2.36681 92.9633C1.83865 92.9633 1.26469 93.0755 0.885361 92.5358C0.949473 91.9153 0.8098 91.2551 1.25172 90.7109C1.47229 90.7796 1.66768 90.8903 1.84094 91.0429C2.67592 91.536 3.59944 91.3627 4.48785 91.365C18.6116 91.3956 32.7354 91.3269 46.8591 91.3414C47.701 91.3421 48.5413 91.3383 49.3725 91.4894C49.9915 91.8543 50.4868 92.3473 50.8989 92.9312Z" fill="#EEDF72"/>
<path fill-rule="evenodd" clip-rule="evenodd" d="M64.2014 35.5135C70.6607 35.5143 77.1208 35.5066 83.5801 35.5288C84.2029 35.5303 84.9089 35.2601 85.4371 35.8631C85.0974 38.7008 85.0982 38.6642 82.3093 38.6344C77.0368 38.5779 71.7644 38.6336 66.4919 38.6031C65.5554 38.5978 64.5518 38.7901 63.7603 38.0368C63.7275 37.1636 63.9053 36.3279 64.2014 35.5135Z" fill="#F1E37A"/>
<path fill-rule="evenodd" clip-rule="evenodd" d="M10.6854 42.002C10.9036 43.1003 11.7882 42.7247 12.4255 42.727C18.7124 42.7507 24.9992 42.7408 31.286 42.74C31.8485 44.7405 31.2875 45.7617 29.3641 45.8014C23.4643 45.9212 17.5629 45.867 11.6623 45.8288C11.054 45.825 10.4587 45.7197 9.99005 45.2701C10.1679 44.1688 10.1809 43.0331 10.6854 42.002Z" fill="#F6EA8B"/>
<path fill-rule="evenodd" clip-rule="evenodd" d="M61.6148 49.2135C61.6118 48.4785 61.5973 47.7405 61.9988 47.078C62.688 46.4636 63.5428 46.501 64.3762 46.4987C69.812 46.4857 75.2478 46.4834 80.6836 46.5002C81.4553 46.5033 82.2475 46.4674 82.923 46.9643C83.3641 49.4639 82.9077 50.1447 80.547 50.1676C74.9128 50.2233 69.277 50.218 63.6428 50.1546C62.8994 50.147 61.8728 50.4118 61.6148 49.2135Z" fill="#F8EE96"/>
<path fill-rule="evenodd" clip-rule="evenodd" d="M29.4763 52.4938C23.1933 52.4953 16.9103 52.5014 10.6266 52.4907C9.8458 52.4892 8.81619 52.7922 8.8803 51.3978C8.97036 50.6696 8.66354 49.8751 9.23826 49.2256C9.45578 50.3231 10.3396 49.9507 10.9777 49.9522C17.266 49.9766 23.5543 49.9667 29.8419 49.9667C30.4052 50.5498 30.1755 51.1886 29.974 51.8259C29.874 52.0969 29.7259 52.3335 29.4763 52.4938Z" fill="#FAF09C"/>
<path fill-rule="evenodd" clip-rule="evenodd" d="M63.0619 41.9678C63.2611 43.063 64.1366 42.7272 64.7861 42.7295C71.0828 42.7486 77.3803 42.7402 83.6778 42.7402C84.2014 43.3073 83.9068 43.924 83.7892 44.533C83.6786 44.9818 83.5023 45.3825 83.0428 45.5863C82.5322 45.7908 81.9956 45.8359 81.4553 45.8382C75.9508 45.858 70.4448 45.887 64.9403 45.8237C62.9528 45.8008 62.6315 45.4382 62.7025 43.7751C62.7444 43.1569 62.5674 42.4952 63.0619 41.9678Z" fill="#F6EA8B"/>
<path fill-rule="evenodd" clip-rule="evenodd" d="M56.9079 73.7125C56.9369 73.5049 56.9652 73.2958 56.9934 73.089C57.4658 72.17 58.3504 72.1822 59.1824 72.1769C64.7594 72.1387 70.3371 72.1418 75.9141 72.1769C76.7361 72.1815 77.6314 72.1281 78.1413 73.0203C78.316 73.9629 78.3649 74.8757 77.5055 75.5619C76.5736 75.9015 75.6035 75.7634 74.6494 75.7649C69.3663 75.7763 64.0824 75.7969 58.7992 75.7565C56.8637 75.7428 56.727 75.5481 56.9079 73.7125Z" fill="#C7A224"/>
<path fill-rule="evenodd" clip-rule="evenodd" d="M63.7603 38.0358C70.4906 38.1442 77.2246 37.8366 83.9503 38.2113C84.7151 38.2548 84.7609 37.9297 84.7555 37.4138C84.7494 36.7848 84.815 36.2063 85.4378 35.8613C85.4378 35.8621 85.4775 35.8713 85.4775 35.8713C85.953 36.3109 85.7569 36.8314 85.6569 37.3405C85.6332 37.5137 85.6019 37.6839 85.5714 37.8564C85.4401 38.2556 85.4394 38.7632 84.8341 38.7861C84.4334 40.0866 83.5107 40.2584 82.2597 40.2431C75.9729 40.1698 69.6838 40.2003 63.3962 40.195C63.5176 39.4753 63.2718 38.6937 63.7603 38.0358Z" fill="#F3E580"/>
<path fill-rule="evenodd" clip-rule="evenodd" d="M32.727 35.5123C32.6071 37.2647 31.7241 37.767 29.9511 37.7311C23.781 37.6051 17.6064 37.6822 11.4333 37.6815C11.4608 36.5442 11.6799 35.4467 12.1248 34.3965C12.0592 35.7696 13.0621 35.5101 13.862 35.5108C20.1503 35.5169 26.4386 35.5131 32.727 35.5123Z" fill="#F1E279"/>
<path fill-rule="evenodd" clip-rule="evenodd" d="M49.3732 91.489C48.9214 92.0683 48.2757 91.8744 47.701 91.8744C32.8178 91.8836 17.9346 91.8867 3.05144 91.8653C2.42558 91.8638 1.52343 92.2751 1.31201 91.1524C2.00809 90.5258 2.86978 90.6273 3.69943 90.6258C9.02302 90.6174 14.3474 90.6304 19.671 90.6136C20.3602 90.6113 21.144 90.8166 21.586 90.0053C21.8393 89.4748 21.9805 88.8261 22.769 88.8421C23.2017 90.5029 24.8625 90.1602 25.9364 90.7792C25.309 92.0385 24.1512 90.9425 23.3223 91.3997C23.2666 91.5669 23.2468 91.4951 23.3674 91.4592C24.4145 91.1509 25.6082 91.65 26.5783 90.8799C33.665 90.8563 40.7524 90.8349 47.8391 90.8013C48.4734 90.799 49.042 90.857 49.3732 91.489Z" fill="#ECDB6E"/>
<path fill-rule="evenodd" clip-rule="evenodd" d="M9.98928 45.2688C16.1608 45.2696 22.3347 45.1765 28.5032 45.323C30.554 45.3711 31.2883 44.6041 31.286 42.7387C31.4218 42.4647 31.6661 42.3907 31.9454 42.3838C32.4209 43.7561 31.8477 44.9971 31.4615 46.2626C31.3272 46.4313 31.157 46.4801 30.9524 46.4122C30.2831 47.1403 29.4122 47.0869 28.5268 47.0846C22.2263 47.0686 15.925 47.0754 9.62445 47.0754C9.74581 46.474 9.86792 45.8718 9.98928 45.2688Z" fill="#F7EC91"/>
<path fill-rule="evenodd" clip-rule="evenodd" d="M59.1282 61.89C59.5724 61.3389 60.1234 61.1496 60.8508 61.1534C66.7484 61.1824 72.6482 61.2595 78.5419 61.1115C80.1676 61.0702 79.9265 62.1899 80.3562 62.9654C81.024 63.7141 80.6912 64.3064 80.0616 64.8529C79.5242 64.8521 79.3678 64.4338 79.177 64.0507C78.7121 63.2226 77.9069 63.5294 77.2414 63.5256C71.7453 63.4989 66.2492 63.5141 60.7524 63.5065C60.1028 63.5057 59.435 63.6286 58.8107 63.3287C58.9168 62.8494 59.0228 62.3693 59.1282 61.89Z" fill="#F4E896"/>
<path fill-rule="evenodd" clip-rule="evenodd" d="M2.33704 85.3157C2.40725 84.57 2.2485 83.7892 2.68584 83.1016C8.2552 83.6541 13.8406 83.226 19.4168 83.3588C20.4365 83.3832 21.4585 83.3137 22.4759 83.4244C23.3086 83.5145 24.0138 83.7793 24.0795 84.7868C24.0764 85.302 23.9047 85.7279 23.4414 86.0011C23.2216 86.1026 22.9911 86.1721 22.7529 86.2118C16.4974 86.4377 10.2389 86.3064 3.98182 86.2728C3.33154 86.2698 2.45381 86.3667 2.33704 85.3157Z" fill="#DEC44F"/>
<path fill-rule="evenodd" clip-rule="evenodd" d="M23.6917 84.9892C23.7719 83.7009 22.8323 83.939 22.0859 83.9375C16.2486 83.9298 10.4106 83.9436 4.57257 83.9207C3.86428 83.9184 2.91862 84.2809 2.6866 83.1033C2.7156 82.4827 2.65073 81.8431 3.04838 81.2959C8.5376 81.8523 14.0413 81.4134 19.5366 81.5615C20.8441 81.5974 22.1706 81.3844 23.4528 81.8225C24.1672 82.169 24.1314 82.9185 24.3657 83.5238C24.371 84.1145 24.6809 84.8518 23.6917 84.9892Z" fill="#DABE48"/>
<path fill-rule="evenodd" clip-rule="evenodd" d="M6.75772 61.8952C7.39655 61.4586 8.12468 61.5304 8.8406 61.5304C14.4084 61.5319 19.9763 61.5739 25.5433 61.4991C26.8111 61.4815 27.7178 61.6724 28.0804 62.9966C28.275 63.7064 28.2017 64.3483 27.6117 64.8596C27.1416 64.8375 26.9378 64.4544 26.6607 64.1674C25.9532 63.6835 25.148 63.8537 24.3832 63.8514C18.9833 63.8369 13.5834 63.8445 8.18269 63.84C7.59042 63.84 6.98059 63.9651 6.40968 63.6896C6.52493 63.0912 6.64094 62.4936 6.75772 61.8952Z" fill="#F2E591"/>
<path fill-rule="evenodd" clip-rule="evenodd" d="M4.50235 74.049C4.54051 73.7338 4.57791 73.4178 4.61607 73.1018C4.78246 72.9316 4.97632 72.8057 5.19766 72.7217C11.8852 72.534 18.5727 72.4218 25.2609 72.7752C25.7288 72.9751 25.9792 73.3613 26.1555 73.8124C26.2532 74.594 26.5585 75.4686 25.351 75.6961C24.4817 75.4183 23.5849 75.4366 22.6873 75.4373C17.308 75.4381 11.9279 75.4702 6.5486 75.4068C5.69606 75.3969 4.30696 75.8067 4.50235 74.049Z" fill="#C6A122"/>
<path fill-rule="evenodd" clip-rule="evenodd" d="M62.7032 43.7754C62.6299 45.1477 63.4848 45.2866 64.577 45.2828C70.8218 45.2576 77.0666 45.2683 83.3115 45.2675C83.5213 45.5698 83.4343 45.8949 83.3885 46.2185C83.3221 46.5437 83.2473 46.8657 82.9512 47.0726C75.9668 47.0741 68.9824 47.0764 61.998 47.0779C62.0499 45.9376 62.2262 44.8241 62.7032 43.7754Z" fill="#F7EC90"/>
<path fill-rule="evenodd" clip-rule="evenodd" d="M54.7487 84.9591C54.8022 84.2165 54.6426 83.441 55.0937 82.7617C56.1371 83.283 57.2499 83.3761 58.3993 83.3723C63.2963 83.3548 68.1932 83.3563 73.0902 83.3715C73.977 83.3738 74.8937 83.2754 75.6943 83.8234C76.3362 84.6897 76.1217 85.3979 75.2982 85.9979C74.8029 86.2429 74.2663 86.3009 73.7259 86.3047C68.039 86.3421 62.3521 86.3612 56.6668 86.2795C55.8753 86.2673 54.5396 86.613 54.7487 84.9591Z" fill="#DDC44F"/>
<path fill-rule="evenodd" clip-rule="evenodd" d="M75.734 83.9342C69.4273 83.9334 63.1222 83.9303 56.8156 83.9365C55.9569 83.938 55.0487 84.0624 55.0945 82.7618C55.1128 82.1589 55.0456 81.5376 55.4448 81.0117C55.5463 81.056 55.6486 81.0987 55.7501 81.1422C56.3263 81.7475 57.0804 81.5811 57.7811 81.5834C63.0436 81.5971 68.3054 81.5864 73.5679 81.5941C74.3411 81.5948 75.1272 81.5124 75.8691 81.8368C76.4537 82.1673 76.4988 82.6962 76.3973 83.2793C76.3324 83.493 76.211 83.6716 76.0378 83.8128C75.937 83.8533 75.8347 83.8937 75.734 83.9342Z" fill="#D9BE48"/>
<path fill-rule="evenodd" clip-rule="evenodd" d="M8.15674 55.0176C8.68414 55.6144 9.3909 55.3755 10.0221 55.3771C16.2677 55.3939 22.514 55.387 28.7596 55.387C28.8489 56.499 28.5849 57.2172 27.2263 57.2096C21.128 57.173 15.0305 57.1936 8.93143 57.1943C8.51165 57.1943 8.08576 57.2134 7.7942 56.8219C7.86595 56.2105 7.61637 55.5343 8.15674 55.0176Z" fill="#FCF6A9"/>
<path fill-rule="evenodd" clip-rule="evenodd" d="M60.9035 53.1859C60.9554 52.5669 60.744 51.8975 61.2592 51.3701C62.2422 51.9212 63.3214 51.9288 64.403 51.9288C69.3205 51.9303 74.2373 51.9212 79.1549 51.9357C80.0456 51.938 80.9637 51.8304 81.7888 52.3249C82.4169 53.192 82.0414 53.8819 81.4018 54.5276C80.9737 54.7688 80.5012 54.8543 80.0219 54.8589C74.2281 54.9123 68.4336 54.9283 62.6406 54.8421C61.695 54.8268 60.3792 54.8871 60.9035 53.1859Z" fill="#FBF3A2"/>
<path fill-rule="evenodd" clip-rule="evenodd" d="M60.9035 53.1865C60.8386 54.5611 61.8423 54.2993 62.6414 54.3001C68.9297 54.307 75.2188 54.3031 81.5079 54.3024C81.8697 54.8214 81.6209 55.1412 81.1522 55.3877C81.1507 55.6274 81.1484 55.8678 81.1461 56.1082C80.5668 56.6318 79.8471 56.6814 79.1251 56.6837C73.6816 56.7012 68.2374 56.7409 62.7948 56.6524C61.7812 56.6364 60.3028 56.8768 60.5402 54.9939C60.6012 54.3787 60.3753 53.7063 60.9035 53.1865Z" fill="#FBF4A5"/>
<path fill-rule="evenodd" clip-rule="evenodd" d="M82.952 47.0731C82.955 46.7136 82.9573 46.3541 82.9596 45.9938C83.1626 45.8664 83.3374 45.8977 83.4847 46.0862C83.9732 47.528 83.4855 48.8888 83.1344 50.2634C83 50.4336 82.8375 50.5679 82.652 50.6763C82.0094 51.4197 81.1622 51.6113 80.2272 51.6136C74.5891 51.6288 68.9503 51.6281 63.3123 51.6105C62.5895 51.609 61.8644 51.5792 61.2805 51.0534C61.3355 50.4306 61.1218 49.7589 61.6148 49.2155C62.1285 49.8314 62.8368 49.5963 63.4657 49.5986C68.7381 49.6154 74.0129 49.5269 79.2831 49.649C81.3011 49.6948 82.942 49.6749 82.952 47.0731Z" fill="#F9F09A"/>
<path fill-rule="evenodd" clip-rule="evenodd" d="M75.3699 85.7387C75.7157 85.1823 75.7684 84.5671 75.734 83.9344V83.9344C76.4812 83.8642 76.382 84.4565 76.4858 84.8908C76.4988 85.3708 76.3423 85.8219 76.2431 86.2821C76.1767 86.763 76.0904 87.2377 75.8477 87.669C75.4791 88.1681 75.2478 88.7978 74.5739 89.0092C72.4864 89.4084 70.3791 89.1809 68.2825 89.2015C64.3785 89.2405 60.473 89.2267 56.5683 89.2015C55.6852 89.1962 54.7434 89.3404 54.0114 88.6222C54.0588 87.991 53.955 87.3308 54.3786 86.7744C56.8301 86.4401 59.2938 86.6668 61.7522 86.6355C65.3555 86.5897 68.9603 86.6439 72.5643 86.6126C73.5702 86.6042 74.6372 86.6783 75.3699 85.7387Z" fill="#E5CF5D"/>
<path fill-rule="evenodd" clip-rule="evenodd" d="M22.9781 85.7393C23.1147 85.7438 23.2521 85.7484 23.3887 85.7522C24.0329 86.9261 24.1352 87.9962 22.8041 88.7899C21.6531 89.1479 20.4754 89.228 19.2733 89.2227C14.313 89.2013 9.35274 89.2219 4.39244 89.2067C3.44755 89.2028 2.45992 89.3288 1.6547 88.6296C1.65241 88.1198 1.58982 87.597 1.9577 87.1635C2.78658 86.5162 3.76887 86.6231 4.71911 86.6208C9.75115 86.6086 14.7832 86.633 19.8152 86.6032C20.9265 86.5971 22.1301 86.775 22.9781 85.7393Z" fill="#E5CF5D"/>
<path fill-rule="evenodd" clip-rule="evenodd" d="M77.9024 73.4529C77.807 72.692 77.2368 72.7324 76.6888 72.7332C70.5791 72.7332 64.4701 72.737 58.3604 72.7271C57.8612 72.7256 57.4178 72.8507 56.9926 73.0896C56.9591 72.4653 56.9934 71.8532 57.3018 71.2876C57.7299 70.9152 58.2367 70.7587 58.7947 70.7625C65.0899 70.803 71.3866 70.6183 77.6795 70.8533C78.2176 70.9739 78.6137 71.3082 78.9533 71.7219C79.0732 71.8776 79.1419 72.057 79.1602 72.2531C79.0953 72.8149 78.9816 73.353 78.3847 73.6155C78.2008 73.6331 78.0397 73.5789 77.9024 73.4529Z" fill="#CDAC36"/>
<path fill-rule="evenodd" clip-rule="evenodd" d="M23.6994 82.1261C17.4439 82.1261 11.1876 82.136 4.93206 82.1139C4.22378 82.1116 3.27812 82.4742 3.04762 81.2957C3.07739 80.6973 3.00564 80.0791 3.3865 79.5487C3.48267 79.5899 3.5796 79.6311 3.67653 79.6708C4.03526 80.0356 4.47412 80.1455 4.97786 80.1455C10.8991 80.1501 16.8195 80.1631 22.7407 80.1341C23.0437 80.1333 23.3345 80.0799 23.5711 79.8685C23.7024 79.7173 23.8619 79.6006 24.0436 79.5166C24.6839 79.5548 24.7351 80.0532 24.832 80.5187C24.8702 80.9431 24.8488 81.3659 24.7381 81.7788C24.6893 81.9223 24.6107 82.0528 24.5099 82.1673C24.2313 82.3581 23.9734 82.0902 23.6994 82.1261Z" fill="#D6B841"/>
<path fill-rule="evenodd" clip-rule="evenodd" d="M61.2805 51.0519C67.5856 51.0519 73.8908 51.0443 80.1959 51.0603C81.0835 51.0626 81.9513 51.1099 82.6238 50.3887C82.7352 50.5146 82.8237 50.6558 82.8932 50.8092C83.0069 51.303 82.9939 51.7717 82.6009 52.1525C82.2826 52.1006 82.0322 52.2052 81.8697 52.4952C75.5783 52.496 69.2869 52.499 62.9955 52.4945C62.1865 52.4945 61.1989 52.7326 61.2607 51.3702C61.25 51.2626 61.2576 51.1573 61.2805 51.0519Z" fill="#FAF19E"/>
<path fill-rule="evenodd" clip-rule="evenodd" d="M60.5402 54.9932C60.6936 56.3456 61.7301 56.1044 62.5986 56.1052C68.7816 56.1136 74.9639 56.1083 81.1461 56.1075C81.0545 57.2256 80.444 57.5821 79.3418 57.5744C73.471 57.5348 67.6002 57.5599 61.7285 57.5485C61.1141 57.5477 60.3349 57.7866 60.1761 56.7975C60.2448 56.1846 60.0097 55.5114 60.5402 54.9932Z" fill="#FCF6AA"/>
<path fill-rule="evenodd" clip-rule="evenodd" d="M75.3699 85.738C75.4241 86.6929 75.0272 87.1897 74.0159 87.1874C67.7848 87.1745 61.5538 87.1798 55.3227 87.1798C54.9487 87.1798 54.6106 87.1004 54.3785 86.7738C54.4121 86.151 54.3259 85.5022 54.7495 84.958C54.9456 86.0502 55.818 85.7258 56.4706 85.7281C62.7704 85.7464 69.0701 85.7388 75.3699 85.738Z" fill="#E2CA56"/>
<path fill-rule="evenodd" clip-rule="evenodd" d="M54.0107 88.623C61.0065 88.6238 68.0024 88.6246 74.9982 88.6253C75.3447 90.0182 74.5334 90.4846 73.3672 90.5815C72.2315 90.6754 71.0889 90.6136 69.9494 90.6143C65.3303 90.6174 60.7111 90.6197 56.092 90.612C55.2608 90.6105 54.393 90.725 53.7031 90.0763C53.7069 89.5702 53.6206 89.0459 54.0107 88.623Z" fill="#E8D363"/>
<path fill-rule="evenodd" clip-rule="evenodd" d="M55.4448 81.0119C55.483 80.5402 55.5204 80.0677 55.5585 79.596C56.1668 79.1465 56.8614 79.0549 57.5971 79.0557C63.2787 79.0618 68.9602 79.0557 74.6418 79.0618C75.302 79.0633 75.9645 79.0625 76.5201 79.5098C76.8331 81.1179 76.5583 81.527 74.8601 81.5599C71.4392 81.627 68.0154 81.5789 64.593 81.5828C62.2514 81.585 59.9097 81.5873 57.5681 81.5797C56.8492 81.5774 56.1126 81.6255 55.5364 81.0592L55.4448 81.0119Z" fill="#D3B43B"/>
<path fill-rule="evenodd" clip-rule="evenodd" d="M22.9781 85.739C23.0727 87.1823 22.1118 87.1945 21.073 87.1907C14.7015 87.1716 8.32999 87.1716 1.9577 87.164C2.01571 86.5336 1.90809 85.8695 2.33703 85.3154C2.89267 85.9985 3.66507 85.7253 4.34664 85.7276C10.5571 85.7482 16.7676 85.7398 22.9781 85.739Z" fill="#E2CA56"/>
<path fill-rule="evenodd" clip-rule="evenodd" d="M56.1714 77.4022C56.2073 76.7702 56.1386 76.1161 56.5377 75.5566C62.7124 75.7101 68.8885 75.5734 75.0631 75.6307C75.876 75.6383 76.7827 75.4277 77.3391 76.3214C77.6642 77.796 76.6201 77.9128 75.6355 77.9433C73.4763 78.0105 71.3156 77.9647 69.1556 77.9662C65.6157 77.9692 62.0758 77.9715 58.5351 77.9639C57.82 77.9624 57.088 78.0425 56.4255 77.6563C56.3408 77.5731 56.2561 77.4876 56.1714 77.4022Z" fill="#CCA92E"/>
<path fill-rule="evenodd" clip-rule="evenodd" d="M64.5235 101.549C65.2906 102.17 66.047 102.858 67.0758 102.002C67.852 101.781 68.6633 101.622 69.1595 100.88C69.5846 100.482 70.0746 100.22 70.6623 100.164C71.5461 100.253 72.4177 100.423 73.3061 100.492C73.9534 100.543 74.6502 100.656 74.638 101.575C73.2497 103.979 70.8248 104.818 68.4206 105.688C68.0222 105.833 67.7375 105.67 67.4666 105.402C66.163 104.118 64.5548 103.164 63.4207 101.694C63.2543 101.389 63.4428 101.244 63.6802 101.121C64.0793 101.03 64.2961 101.301 64.5235 101.549Z" fill="#652E06"/>
<path fill-rule="evenodd" clip-rule="evenodd" d="M3.82383 77.4295C3.81009 76.9174 3.77498 76.4014 4.10547 75.9557C4.7672 75.4329 5.54875 75.4428 6.33336 75.4436C11.6684 75.4451 17.0035 75.4397 22.3385 75.4489C23.2926 75.4504 24.2893 75.3649 24.9396 76.3075C25.2777 77.7676 24.2565 77.9096 23.2636 77.9447C21.3501 78.0134 19.4344 77.9668 17.5194 77.9676C13.7498 77.9699 9.97936 77.9729 6.20896 77.9653C5.37626 77.9645 4.51456 78.0683 3.82383 77.4295Z" fill="#CCA92E"/>
<path fill-rule="evenodd" clip-rule="evenodd" d="M1.65471 88.6299C8.73834 88.6306 15.8212 88.6314 22.9048 88.6314C23.0048 88.7108 23.0384 88.7917 23.0071 88.8726C22.9751 88.9543 22.943 88.9955 22.9102 88.9955C22.208 89.0542 22.2607 89.5839 22.2423 90.0686C21.6279 90.4968 20.9425 90.6189 20.2022 90.6181C14.6397 90.6097 9.07722 90.6349 3.51473 90.5952C2.47672 90.5868 1.1296 90.7158 1.62418 88.9016C1.5906 88.807 1.60128 88.7161 1.65471 88.6299Z" fill="#E8D463"/>
<path fill-rule="evenodd" clip-rule="evenodd" d="M27.6079 64.7604C27.7026 64.1552 27.6018 63.4988 28.0796 62.9966C28.1704 62.9782 28.2612 62.9637 28.3528 62.9538C28.4116 62.9416 28.5207 62.9149 28.5223 62.9195C28.9199 64.2727 29.6626 65.4038 30.7013 66.351C30.7517 66.3968 30.6578 66.5723 30.5983 66.68C30.2983 69.1124 29.8427 71.512 29.1474 73.8636C28.1368 73.7758 26.7859 74.5337 26.4424 72.7782C26.4837 72.1623 26.4997 71.5471 26.299 70.948C26.2341 70.687 26.2058 70.4229 26.2127 70.155C26.2554 69.5352 26.489 68.9506 26.5295 68.3293C26.6333 67.7172 26.8424 67.1264 26.8882 66.5021C27.0263 65.8801 27.1309 65.2428 27.6079 64.7604Z" fill="#8E430A"/>
<path fill-rule="evenodd" clip-rule="evenodd" d="M31.2585 46.3371C31.4875 45.019 31.7164 43.7024 31.9454 42.3843C31.9843 41.6707 32.3942 41.1341 32.7964 40.5938C33.9016 41.1502 33.1506 42.0271 33.1017 42.7293C33.0445 43.5566 32.9613 44.2397 33.9619 44.5382C34.7656 44.7771 34.8656 45.364 34.5694 46.0746C34.2679 48.5101 33.8077 50.9143 33.117 53.2712C32.2507 52.4743 30.6334 52.7918 30.2212 51.3196C30.2128 50.886 29.9633 50.4792 30.0701 50.032C30.2945 49.7755 30.3693 49.4305 30.583 49.1687C31.0242 49.1527 31.1226 49.4588 31.1097 49.5931C31.2478 50.0358 31.4516 49.6397 31.2814 49.8099C30.9524 49.4382 30.9715 48.9825 30.9753 48.5299C31.3531 47.8354 31.3157 47.0874 31.2585 46.3371Z" fill="#A7500F"/>
<path fill-rule="evenodd" clip-rule="evenodd" d="M78.9404 71.9968C78.474 71.9899 78.2726 71.7289 78.2603 71.2869C77.8787 70.8259 77.3704 70.7382 76.8041 70.7382C70.7905 70.7382 64.7769 70.7344 58.7634 70.7382C58.2757 70.7382 57.8276 70.9671 57.3407 70.9168C57.4636 70.3191 57.5849 69.7215 57.7071 69.1224C57.8788 68.9598 58.0742 68.8354 58.294 68.7476C64.983 68.5568 71.6721 68.4408 78.3603 68.8034C78.9503 69.0636 79.0839 69.6368 79.2922 70.1596C79.4266 70.8198 79.525 71.4755 78.9404 71.9968Z" fill="#D6B84B"/>
<path fill-rule="evenodd" clip-rule="evenodd" d="M53.7031 90.0752C60.0693 90.0752 66.4355 90.0401 72.8001 90.1065C74.0053 90.1194 74.7571 89.8531 74.9982 88.625C75.0219 88.1457 74.9471 87.6046 75.6676 87.5664C75.718 87.6343 75.7684 87.7015 75.8203 87.7687C75.8973 88.3693 75.7691 88.9532 75.6806 89.5409C75.4333 90.2003 75.5088 91.0445 74.6517 91.3605C74.3464 91.4154 74.0457 91.4841 73.7404 91.5505C67.5093 91.7948 61.2782 91.6459 55.0487 91.6246C54.3465 91.6223 53.3169 91.6826 53.6634 90.3774C53.6374 90.2713 53.6504 90.1706 53.7031 90.0752Z" fill="#EAD869"/>
<path fill-rule="evenodd" clip-rule="evenodd" d="M26.547 70.1791C26.563 70.4287 26.5791 70.6775 26.5951 70.9271C26.9233 71.5301 26.6478 71.8728 26.0921 72.0964C25.6334 71.9598 25.4708 71.5636 25.2823 71.1881C24.7358 70.4722 23.9497 70.7577 23.2681 70.7538C18.0331 70.7271 12.798 70.747 7.56295 70.7325C6.73865 70.7302 5.85558 70.8874 5.18774 70.1768C5.24117 69.8257 5.2946 69.4754 5.34802 69.1243C5.81818 68.6679 6.4158 68.6206 7.01952 68.6191C13.0018 68.6084 18.9848 68.5878 24.9671 68.6298C25.2678 68.632 25.5632 68.6778 25.8494 68.7694C26.5981 68.9831 26.302 69.7143 26.547 70.1791Z" fill="#D6B84B"/>
<path fill-rule="evenodd" clip-rule="evenodd" d="M82.2567 52.1729C82.8528 51.8363 82.6513 51.228 82.7512 50.722C83.4404 50.4648 82.9367 52.1035 83.89 51.4333C85.0181 51.3723 85.8279 51.6356 85.5371 53.0285C85.4821 55.0809 85.012 57.0576 84.4418 59.0154C83.7236 59.5748 82.9367 59.558 82.12 59.2978C81.3408 58.9711 81.6751 58.0697 81.2286 57.5683C81.3385 57.2477 81.4476 56.9271 81.5568 56.6066C81.7453 55.1213 81.5934 53.5819 82.2567 52.1729Z" fill="#9F4C0E"/>
<path fill-rule="evenodd" clip-rule="evenodd" d="M25.8662 71.2891C25.9708 71.5257 26.0753 71.7615 26.1799 71.9981C26.3188 72.108 26.4043 72.2492 26.4379 72.4232C26.3768 72.9361 26.2921 73.4406 25.8807 73.8139C25.5807 73.665 25.5151 73.3941 25.5044 73.0949C25.0007 72.6461 24.3779 72.7354 23.7848 72.7346C18.0674 72.7278 12.3507 72.7278 6.63331 72.7346C6.03951 72.7354 5.41747 72.6469 4.91373 73.0957C4.81451 73.0987 4.71529 73.101 4.61607 73.1018C4.50006 72.4576 4.72674 71.8752 4.93815 71.2898C5.5663 70.68 6.36465 70.7518 7.13934 70.751C12.6461 70.7456 18.1537 70.7464 23.6612 70.7495C24.4389 70.7495 25.2319 70.6953 25.8662 71.2891Z" fill="#CDAB36"/>
<path fill-rule="evenodd" clip-rule="evenodd" d="M3.82383 77.4291C10.2267 77.4291 16.6295 77.436 23.0315 77.4199C23.7978 77.4176 24.8511 77.7573 24.7847 76.3438C24.9549 76.2362 25.1281 76.2323 25.3045 76.33C26.128 77.1994 25.6624 78.0328 25.2381 78.8693C24.7107 79.0266 24.1535 78.6449 23.6284 78.9609C17.5767 79.1533 11.528 79.0258 5.48083 79.022C4.66798 79.022 3.5193 79.1494 3.78262 77.668C3.73377 77.5779 3.74751 77.4978 3.82383 77.4291Z" fill="#CEAD32"/>
<path fill-rule="evenodd" clip-rule="evenodd" d="M25.1045 76.3492C24.9976 76.3462 24.8915 76.3447 24.7847 76.3439C24.0764 75.9004 23.2849 75.9844 22.5064 75.9829C16.3723 75.9745 10.2389 75.9653 4.10547 75.9554C4.16576 75.3044 4.10928 74.6304 4.50312 74.0488C4.70156 75.241 5.64874 74.8846 6.35321 74.8876C12.1622 74.909 17.9712 74.8899 23.7803 74.9143C24.4176 74.9174 25.3037 74.5426 25.5166 75.644C25.6479 76.0363 25.4579 76.2409 25.1045 76.3492Z" fill="#C9A528"/>
<path fill-rule="evenodd" clip-rule="evenodd" d="M80.7851 61.8915C80.8836 61.6472 80.982 61.403 81.0805 61.1595C80.9278 60.9221 80.8927 60.6794 81.0423 60.4268C81.0988 59.9528 81.1561 59.4789 81.2133 59.0049C81.598 58.8271 81.8735 59.2636 82.2406 59.1865C82.9535 59.2758 83.6961 58.9942 84.3853 59.3636C83.9083 62.0647 83.4359 64.7681 82.9481 67.4677C82.8863 67.8111 82.7405 68.1393 82.6329 68.4744C79.5594 67.7738 79.5739 67.7776 80.4081 64.7093C80.6577 63.7942 80.9851 62.8737 80.7851 61.8915Z" fill="#93460B"/>
<path fill-rule="evenodd" clip-rule="evenodd" d="M76.456 79.5974C69.4907 79.5967 62.5246 79.5959 55.5585 79.5951C55.7631 78.8639 55.9676 78.1335 56.1714 77.4023L56.2592 77.4512C56.8583 78.1663 57.6864 77.9649 58.4443 77.9679C63.729 77.9839 69.0137 77.971 74.2976 77.9794C75.073 77.9809 75.8638 77.8923 76.6049 78.2335C77.0842 78.5052 77.1391 78.9212 76.9964 79.402C76.8804 79.6409 76.6995 79.7066 76.456 79.5974Z" fill="#D1B037"/>
<path fill-rule="evenodd" clip-rule="evenodd" d="M85.5371 53.0277C85.4188 51.518 84.2831 51.8035 83.326 51.7737C83.0023 51.3394 83.2306 50.7563 82.9337 50.3144C83.084 48.8811 83.2344 47.4469 83.3847 46.0136C83.4198 45.7296 83.4817 45.4549 83.632 45.2068C83.7488 45.1503 83.8717 45.1297 83.9984 45.1511C84.367 44.8794 84.4403 44.1787 85.1318 44.3581C86.0767 44.5603 87.4803 44.2696 86.9552 46.0502C86.659 48.4124 86.2278 50.7464 85.5371 53.0277Z" fill="#A7500E"/>
<path fill-rule="evenodd" clip-rule="evenodd" d="M3.78185 77.6689C3.98716 78.8695 4.94274 78.4978 5.64644 78.5001C11.9042 78.5222 18.162 78.5123 24.4199 78.5116C24.7961 79.0367 24.5374 79.3534 24.0627 79.5984V79.5984C23.4276 80.1869 22.6354 80.135 21.8584 80.1357C16.4738 80.1388 11.0899 80.1403 5.70521 80.1334C4.93358 80.1327 4.13217 80.2212 3.50021 79.6137L3.38725 79.5488C3.45442 78.9084 3.36436 78.2353 3.78185 77.6689Z" fill="#D1B037"/>
<path fill-rule="evenodd" clip-rule="evenodd" d="M1.62417 88.9023C1.56387 90.2136 2.48129 90.0793 3.33459 90.0785C9.63666 90.0709 15.9395 90.0716 22.2416 90.0693C21.9576 91.1096 21.1822 91.1768 20.2686 91.1722C13.9497 91.1447 7.6301 91.1554 1.31124 91.1531C1.2914 91.0066 1.27155 90.8593 1.25095 90.712C1.29598 90.0915 1.18531 89.4404 1.62417 88.9023Z" fill="#EAD869"/>
<path fill-rule="evenodd" clip-rule="evenodd" d="M25.8662 71.2898C18.8902 71.2898 11.9142 71.2898 4.93816 71.2898C4.90457 70.8922 4.90534 70.5037 5.1885 70.1778C11.4944 70.1862 17.801 70.1877 24.1077 70.2129C24.8725 70.2152 25.9372 69.8618 25.8662 71.2898Z" fill="#D2B242"/>
<path fill-rule="evenodd" clip-rule="evenodd" d="M25.1045 76.3494C25.2411 76.1135 25.3777 75.8792 25.5151 75.6434C25.996 75.1053 25.841 74.4398 25.8807 73.8139C25.9204 73.3071 25.9166 72.7881 26.2906 72.3767C26.6714 72.1943 26.7645 72.5507 26.9515 72.7301C26.7126 73.2827 26.9019 73.4682 27.4896 73.4689C28.0613 73.4689 28.7131 73.2529 29.1489 73.8643C28.8062 76.4326 28.4719 79.0024 27.7155 81.4929C27.1317 80.4075 25.7288 80.5281 25.0022 79.6496C24.8938 79.3749 24.8992 79.1093 25.064 78.8559C24.9144 78.0178 25.8906 77.1989 25.1045 76.3494Z" fill="#853E09"/>
<path fill-rule="evenodd" clip-rule="evenodd" d="M58.8115 63.3294C59.3404 62.9829 59.9319 62.9714 60.5379 62.9722C66.4042 62.9798 72.2697 62.976 78.1359 62.9775C78.9045 62.9775 79.8021 62.8065 79.6952 64.0667C79.0511 64.6536 78.2481 64.5635 77.478 64.5651C71.972 64.5765 66.466 64.578 60.9592 64.5628C60.1952 64.5605 59.3831 64.6841 58.7527 64.0606C58.7718 63.8171 58.7916 63.5728 58.8115 63.3294Z" fill="#F0E08A"/>
<path fill-rule="evenodd" clip-rule="evenodd" d="M86.9544 46.0497C87.1399 44.2156 85.2661 45.3834 84.7662 44.5484C84.2861 44.0332 84.3869 43.4608 84.567 42.8578C84.7517 42.2396 85.0761 41.6297 84.8074 40.9505C84.8158 40.2292 84.8242 39.5064 84.8326 38.7851C85.3172 38.5669 85.1875 38.0975 85.2714 37.7151C85.5546 37.5991 85.5142 37.9364 85.6691 37.999C85.6348 37.6922 85.4165 37.5121 85.2012 37.3319C85.2928 36.845 85.3844 36.358 85.476 35.8711C85.6096 35.636 85.7439 35.4009 85.8775 35.1651C86.2476 35.1063 86.4865 35.349 86.498 35.6345C86.5499 36.9541 87.4711 37.5327 88.4679 38.0677C88.0153 40.7383 87.7237 43.4394 86.9544 46.0497Z" fill="#AE5410"/>
<path fill-rule="evenodd" clip-rule="evenodd" d="M57.3399 70.9176C57.8085 70.2483 58.4771 70.1872 59.2335 70.1895C65.0502 70.2124 70.8668 70.2017 76.6835 70.2033C77.4528 70.204 78.3504 70.03 78.2596 71.2878C71.2736 71.2871 64.2877 71.2863 57.3025 71.2863C57.3155 71.1634 57.3277 71.0405 57.3399 70.9176Z" fill="#D2B242"/>
<path fill-rule="evenodd" clip-rule="evenodd" d="M74.2869 90.7979C74.4167 90.9368 74.5464 91.0741 74.6762 91.2123C75.0173 91.3352 75.1761 91.5695 75.1181 91.9358C74.9189 92.3655 74.7052 92.7815 74.2243 92.967C67.8253 92.98 61.4263 92.9914 55.0273 93.0036C54.59 92.6281 54.1534 92.2526 53.7176 91.8763C54.3373 91.3306 55.0937 91.5344 55.7944 91.5321C61.2714 91.5138 66.7491 91.5283 72.2262 91.5161C72.9833 91.5145 73.8358 91.7107 74.2869 90.7979Z" fill="#EEDE71"/>
<path fill-rule="evenodd" clip-rule="evenodd" d="M30.5998 66.6795C30.57 66.5665 30.5784 66.4116 30.5052 66.3467C30.0091 65.8987 28.4536 63.4724 28.3536 62.9534C28.375 62.0787 28.2437 61.1834 28.72 60.3744C29.0398 60.6568 28.9115 60.9781 28.8627 61.2948C28.9779 60.5392 29.0428 59.779 28.8138 59.0173C28.9176 58.1686 29.0207 57.3191 29.1245 56.4704C29.4481 56.1018 29.2718 55.353 30.0106 55.2988C30.4014 55.4706 30.525 55.8507 30.406 56.1689C29.7908 57.8122 30.5937 58.5914 32.0507 59.0128C31.5676 61.5673 31.0837 64.1242 30.5998 66.6795Z" fill="#95470C"/>
<path fill-rule="evenodd" clip-rule="evenodd" d="M80.7851 61.8916C81.6903 63.1242 80.7355 64.2889 80.5813 65.4567C80.4119 66.7428 79.9089 67.9525 82.0139 67.7258C82.4421 67.68 82.5589 68.1135 82.6337 68.4753C82.0811 70.2353 82.349 72.1618 81.5453 73.8707C80.3386 73.9538 79.1976 73.9264 78.9579 72.3571C78.9518 72.2373 78.9465 72.1175 78.9404 71.9977C78.9404 71.3909 78.9411 70.7849 78.9419 70.1789C78.706 69.569 79.0487 68.9577 78.9312 68.3478C79.0144 67.7273 79.2396 67.1343 79.2815 66.5054C79.4204 65.8826 79.5242 65.2438 79.999 64.7583C80.0081 64.1386 80.5424 63.6249 80.3562 62.9655C80.4997 62.6083 80.6424 62.2496 80.7851 61.8916Z" fill="#8C420A"/>
<path fill-rule="evenodd" clip-rule="evenodd" d="M32.0515 59.0129C29.4534 58.9862 29.4519 58.9862 29.8877 56.5194C29.9541 56.1416 30.3266 55.7737 29.9045 55.3905C28.6871 54.3449 29.8854 53.1878 29.7526 52.0926C30.0419 51.7659 29.7122 50.9378 30.5754 51.0759C30.6197 51.9002 31.141 52.1475 31.8676 52.1368C32.6423 52.1246 33.0468 52.5124 33.1177 53.271C32.9979 55.2295 32.656 57.1445 32.0515 59.0129Z" fill="#9D4B0D"/>
<path fill-rule="evenodd" clip-rule="evenodd" d="M25.2045 79.6006C25.9792 80.3142 28.0445 79.3144 27.7148 81.4927C27.4537 82.994 27.2179 84.4983 26.9187 85.992C26.808 86.5438 26.9172 87.2192 26.2745 87.5665C23.9604 87.8367 23.549 87.3994 24.1161 85.2509C24.2222 84.8471 24.2748 84.4334 24.3817 84.032C24.3954 83.3824 24.2268 82.7337 24.3611 82.0804C24.384 81.6194 24.4069 81.1591 24.4298 80.6981C24.7397 80.3684 24.5267 79.6708 25.2045 79.6006Z" fill="#7E3B09"/>
<path fill-rule="evenodd" clip-rule="evenodd" d="M74.2251 92.967C74.2365 92.4213 74.5617 92.1038 75.0173 91.8825C75.1784 91.4589 75.2547 90.9612 75.8584 90.9238C76.6819 90.9956 77.5413 90.9299 78.2336 91.5214C77.8207 93.3441 77.7497 95.2545 76.8331 96.9458C75.5623 97.448 74.2686 98.1883 73.2077 96.5848C73.4954 95.3651 74.454 94.334 74.2251 92.967Z" fill="#703307"/>
<path fill-rule="evenodd" clip-rule="evenodd" d="M34.5694 46.0745C34.5954 45.28 34.2847 44.8426 33.4154 44.9014C32.3278 44.9747 32.269 44.2473 32.4423 43.4802C32.6575 42.5262 33.0407 41.6019 32.7957 40.5944C32.7476 40.3479 32.6987 40.1014 32.6506 39.8533C32.7338 38.7207 32.7254 37.5636 33.5108 36.6172C34.1855 37.498 34.8213 38.423 35.9662 38.7672C35.609 40.8669 35.2586 42.9673 34.8885 45.064C34.8282 45.4089 34.6786 45.7387 34.5694 46.0745Z" fill="#AE5410"/>
<path fill-rule="evenodd" clip-rule="evenodd" d="M73.2069 96.5859C74.3556 97.3118 75.6294 96.7745 76.8323 96.9469C76.121 98.4986 76.1293 100.393 74.6372 101.574C74.1716 100.719 73.3512 100.945 72.6177 100.918C71.8766 100.892 71.0591 101.078 70.6615 100.165C71.5102 98.9711 72.3582 97.7789 73.2069 96.5859Z" fill="#693006"/>
<path fill-rule="evenodd" clip-rule="evenodd" d="M79.2709 68.3645C79.4067 69.0148 79.0984 69.5834 78.9419 70.1795C78.5534 69.9131 78.6359 69.5025 78.6168 69.1239C78.1146 68.6698 77.4925 68.7606 76.8987 68.7599C71.1813 68.753 65.4646 68.753 59.7472 68.7599C59.1534 68.7606 58.5321 68.6721 58.0261 69.1178C57.9192 69.1193 57.8124 69.1216 57.7063 69.1239C57.6307 68.6003 57.7757 68.1248 58.0253 67.6738C58.4001 67.3372 58.8504 67.1868 59.3427 67.1891C65.7379 67.2219 72.1353 66.9952 78.5298 67.3051C79.0869 67.441 79.1411 67.9287 79.2709 68.3645Z" fill="#DDC35D"/>
<path fill-rule="evenodd" clip-rule="evenodd" d="M79.999 64.7587C80.1738 65.4189 79.6586 65.9402 79.6349 66.5599C78.9663 66.579 78.9694 65.8967 78.6114 65.5899C77.9543 65.1426 77.2093 65.2975 76.5003 65.2953C71.1408 65.2823 65.7814 65.2914 60.4219 65.283C59.767 65.2823 59.0954 65.4197 58.4611 65.1289C58.5581 64.7724 58.655 64.4152 58.7519 64.0596C65.7325 64.0611 72.7131 64.0634 79.6945 64.0657C79.796 64.2969 79.8982 64.5274 79.999 64.7587Z" fill="#ECDB82"/>
<path fill-rule="evenodd" clip-rule="evenodd" d="M77.178 76.3453C76.4728 75.9034 75.6844 75.9835 74.9082 75.9835C69.4563 75.9843 64.0045 75.9942 58.5527 75.9713C57.8696 75.969 57.0942 76.2446 56.5378 75.5569C56.5614 74.9226 56.5179 74.2739 56.9072 73.7129C56.7728 75.0012 57.4124 75.2951 58.613 75.2844C65.0296 75.2264 71.4476 75.2447 77.8657 75.2363C77.9291 75.2974 77.9932 75.3584 78.0565 75.4195C78.2328 75.898 78.1687 76.2881 77.6513 76.5079C77.4688 76.527 77.3124 76.4689 77.178 76.3453Z" fill="#C9A528"/>
<path fill-rule="evenodd" clip-rule="evenodd" d="M27.2416 66.563C27.3568 67.2079 27.0752 67.7796 26.9126 68.3734C26.3882 68.4429 26.318 68.0193 26.1616 67.6873C26.0791 67.4087 25.9769 67.14 25.7395 66.9469C25.0518 66.621 24.3229 66.7431 23.6131 66.7416C18.5322 66.7286 13.4513 66.7447 8.37044 66.7263C7.55149 66.7241 6.67682 66.8904 5.98761 66.2272C6.01203 65.9883 6.03646 65.7494 6.06164 65.5113C6.53333 65.0602 7.12942 65.0068 7.73314 65.006C13.7734 65.0007 19.8137 64.964 25.854 65.0251C26.0936 65.0274 26.328 65.0816 26.5577 65.1503C27.3072 65.3685 27.0477 66.0753 27.2416 66.563Z" fill="#E6D071"/>
<path fill-rule="evenodd" clip-rule="evenodd" d="M79.338 65.5098C79.3579 65.8823 79.2731 66.2845 79.6357 66.5601C79.8158 67.2218 79.293 67.7431 79.2708 68.3644C79.1731 68.1346 79.0747 67.9057 78.977 67.6759C78.7702 67.437 78.5519 67.2096 78.3008 67.015C77.5734 66.6051 76.7766 66.7448 76.008 66.7432C70.9126 66.7295 65.8172 66.7478 60.7218 66.7264C59.9067 66.7234 59.0213 66.9173 58.3436 66.2166C58.371 65.9808 58.3978 65.7457 58.4252 65.5091C58.9481 65.1297 59.5541 65.1481 60.1547 65.1481C65.976 65.1435 71.798 65.1427 77.6192 65.1496C78.2138 65.1504 78.832 65.0763 79.338 65.5098Z" fill="#E6D072"/>
<path fill-rule="evenodd" clip-rule="evenodd" d="M27.2416 66.5624C26.8821 66.2853 26.9637 65.8831 26.9447 65.5107C26.3257 64.9878 25.5785 65.1504 24.8763 65.1489C19.3695 65.1367 13.8635 65.1512 8.35672 65.1321C7.66217 65.1298 6.9058 65.3389 6.30284 64.765C6.33032 64.5307 6.35703 64.2963 6.38374 64.062C6.90733 63.6873 7.51334 63.7018 8.11477 63.7018C13.9375 63.6972 19.761 63.6964 25.5838 63.7033C26.1776 63.7041 26.7966 63.6285 27.3011 64.0666C27.4034 64.2979 27.5064 64.5276 27.6079 64.7596C27.7766 65.4191 27.2645 65.9411 27.2416 66.5624Z" fill="#ECDB82"/>
<path fill-rule="evenodd" clip-rule="evenodd" d="M26.5821 67.6774C26.692 67.9102 26.8019 68.1415 26.9126 68.3735C26.7905 68.9757 26.6691 69.5771 26.547 70.1793C26.1608 69.9122 26.2425 69.5023 26.2242 69.1238C25.6036 68.6025 24.8564 68.7643 24.152 68.7628C18.6383 68.7498 13.1247 68.7643 7.61179 68.746C6.91724 68.7437 6.15858 68.9536 5.55867 68.3728C5.59302 68.14 5.62812 67.9079 5.66323 67.6752C6.29978 67.0752 7.10423 67.1707 7.87205 67.1691C13.3727 67.1569 18.8726 67.1577 24.3725 67.1684C25.1411 67.1699 25.9425 67.0859 26.5821 67.6774Z" fill="#DDC25B"/>
<path fill-rule="evenodd" clip-rule="evenodd" d="M74.2869 90.7975C74.3525 92.2072 73.3031 91.8714 72.5368 91.8729C66.2637 91.8866 59.9906 91.8775 53.7176 91.876C53.0787 91.3982 53.3268 90.8891 53.6649 90.377C53.7519 91.1036 54.2648 91.1616 54.8495 91.1608C60.9294 91.1547 67.0102 91.1631 73.0901 91.1402C73.4893 91.1387 73.8877 90.9173 74.2869 90.7975Z" fill="#ECDA6D"/>
<path fill-rule="evenodd" clip-rule="evenodd" d="M58.3436 66.2151C64.6403 66.2189 70.937 66.2128 77.233 66.2441C77.8642 66.2472 78.7572 65.8465 78.9824 66.9516C78.3565 67.4523 77.6123 67.3027 76.9079 67.3035C70.6256 67.3111 64.3426 67.3172 58.0604 67.3058C58.0337 66.9104 58.0253 66.5204 58.3436 66.2151Z" fill="#E3CC6C"/>
<path fill-rule="evenodd" clip-rule="evenodd" d="M6.30284 64.7652C12.6026 64.7713 18.9016 64.766 25.2014 64.7996C25.8296 64.8034 26.7279 64.3943 26.9439 65.5109C19.9824 65.5117 13.0216 65.5117 6.06089 65.5117C6.01815 65.2224 6.06318 64.9621 6.30284 64.7652Z" fill="#E9D57A"/>
<path fill-rule="evenodd" clip-rule="evenodd" d="M5.55791 68.3729C11.8646 68.3813 18.1705 68.3782 24.4771 68.4134C25.1075 68.4172 26.0051 68.0096 26.2242 69.1247C19.2649 69.1247 12.3065 69.1255 5.34802 69.1255C5.41824 68.8744 5.4877 68.624 5.55791 68.3729Z" fill="#DABE55"/>
<path fill-rule="evenodd" clip-rule="evenodd" d="M5.98762 66.2278C12.2729 66.2278 18.5582 66.2171 24.8442 66.2446C25.4747 66.2476 26.3661 65.8485 26.5898 66.9529C26.0242 67.4177 25.3449 67.3055 24.6977 67.3055C18.3651 67.3078 12.0317 67.3238 5.69911 67.3009C5.79528 66.9429 5.89145 66.585 5.98762 66.2278Z" fill="#E3CC6C"/>
<path fill-rule="evenodd" clip-rule="evenodd" d="M27.3011 64.0668C20.3289 64.0653 13.3559 64.0638 6.38374 64.0622C6.39214 63.9378 6.39977 63.8134 6.40817 63.6898C6.9951 63.3028 7.6553 63.3341 8.31627 63.3349C14.0665 63.3395 19.816 63.325 25.5655 63.3547C26.1921 63.3578 27.092 62.9456 27.3011 64.0668Z" fill="#EFDF89"/>
<path fill-rule="evenodd" clip-rule="evenodd" d="M79.338 65.51C72.3674 65.51 65.3959 65.5092 58.4253 65.5085C58.4375 65.3825 58.4489 65.2566 58.4611 65.1307C59.0458 64.7346 59.7083 64.7803 60.3677 64.7811C66.1119 64.7842 71.856 64.7704 77.6001 64.7994C78.2275 64.8032 79.1228 64.398 79.338 65.51Z" fill="#E9D57A"/>
<path fill-rule="evenodd" clip-rule="evenodd" d="M58.0604 67.3061C58.7618 66.8466 59.5533 66.9519 60.3249 66.9512C66.5438 66.9496 72.7635 66.9512 78.9831 66.9519C78.9816 67.1931 78.9793 67.4343 78.9778 67.6755C71.9941 67.6747 65.0105 67.674 58.0268 67.6732C58.0375 67.5503 58.049 67.4282 58.0604 67.3061Z" fill="#E0C764"/>
<path fill-rule="evenodd" clip-rule="evenodd" d="M5.69835 67.3006C6.33794 66.8663 7.06607 66.9503 7.77894 66.9503C14.049 66.9503 20.319 66.9518 26.589 66.9526C26.5867 67.1938 26.5844 67.4357 26.5821 67.6769C19.6084 67.6761 12.6354 67.6754 5.66248 67.6746C5.67469 67.5502 5.68614 67.4258 5.69835 67.3006Z" fill="#E0C763"/>
<path fill-rule="evenodd" clip-rule="evenodd" d="M88.4687 38.0682C85.8386 38.6765 86.4575 36.3868 85.8782 35.1656C85.7057 33.7643 86.4835 32.5385 86.6079 31.1914C88.1077 32.5721 89.0678 33.8551 89.1472 34.5848C89.1388 35.7884 88.8511 36.9378 88.4687 38.0682Z" fill="#B55711"/>
<path fill-rule="evenodd" clip-rule="evenodd" d="M24.7816 83.9296C24.5977 84.6669 24.4458 85.4141 24.2206 86.1392C24.0077 86.8261 24.2138 87.1192 24.9259 87.1963C25.3838 87.2444 25.825 87.4375 26.2745 87.5657C26.2417 88.5533 26.2089 89.5402 26.1761 90.5263C26.115 90.6721 26.0104 90.7721 25.8677 90.8354C25.2793 90.8293 24.6832 90.7606 24.1023 90.8293C22.4194 91.0278 22.3492 90.2302 22.9094 88.9968C22.9079 88.8754 22.9063 88.7541 22.9041 88.6319C23.5353 87.7512 23.2559 86.717 23.388 85.7522C23.7398 85.5973 23.6704 85.2752 23.691 84.989C24.1268 84.5761 24.0497 84.0525 24.0031 83.5373C24.0817 83.5152 24.1596 83.4931 24.2382 83.4717C24.5023 83.5274 24.6328 83.7381 24.7816 83.9296Z" fill="#753208"/>
<path fill-rule="evenodd" clip-rule="evenodd" d="M80.8332 77.8726C80.2974 79.6502 80.5157 81.5774 79.7517 83.3099C78.8976 82.984 77.894 82.9558 77.3063 82.0903C77.0475 81.5133 77.0819 80.9202 77.2002 80.3219C77.5734 79.2655 77.3818 77.9909 78.4061 77.1842C79.3311 77.0063 80.3562 76.4789 80.8332 77.8726Z" fill="#813C09"/>
<path fill-rule="evenodd" clip-rule="evenodd" d="M78.2329 91.5212C77.3834 91.499 76.5079 91.6524 75.7264 91.1586C75.3516 90.7694 75.3516 90.3168 75.5035 89.839C75.8508 89.2582 75.6279 88.5575 75.8935 87.9591C76.1904 87.4775 75.9798 86.8356 76.3873 86.3884C77.2536 86.0312 78.052 86.3334 78.8511 86.6395C78.9129 86.7128 78.9732 86.7853 79.0343 86.8593C78.9999 88.4545 78.6855 89.9993 78.2329 91.5212Z" fill="#773708"/>
<path fill-rule="evenodd" clip-rule="evenodd" d="M80.8332 77.8726C80.0959 77.0483 79.1205 77.5887 78.268 77.4253C77.7177 76.5842 78.6588 75.6195 78.0466 74.7838C77.9978 74.3189 77.9421 73.8526 78.329 73.4824C78.5389 73.1077 78.7481 72.7329 78.9579 72.3574C79.4495 73.4962 80.7516 73.2504 81.5453 73.8709C80.9027 75.1326 81.5056 76.6163 80.8332 77.8726Z" fill="#88400B"/>
<path fill-rule="evenodd" clip-rule="evenodd" d="M35.9669 38.7673C34.471 38.8237 33.3055 38.5032 33.5116 36.6172C33.5169 36.3653 33.5223 36.1127 33.5268 35.8608C33.6222 35.512 33.7902 35.2296 34.1809 35.1533C35.019 35.1541 35.8562 35.1541 36.6935 35.1541C36.6172 36.3913 36.3775 37.5965 35.9669 38.7673Z" fill="#B35712"/>
<path fill-rule="evenodd" clip-rule="evenodd" d="M77.5391 82.127C78.1329 82.7902 79.5281 81.9552 79.7525 83.31C79.1518 84.4205 79.6998 85.7646 79.0335 86.8613L78.9289 86.7812C78.7381 86.6301 78.5259 86.5308 78.2832 86.4904C77.6001 86.3759 76.5965 86.5171 76.5629 85.5882C76.5178 84.3854 76.0942 82.9551 77.5391 82.127Z" fill="#7C3A08"/>
<path fill-rule="evenodd" clip-rule="evenodd" d="M36.1692 107.376C28.3047 107.384 20.4411 107.391 12.5767 107.397C12.1599 107.183 11.7745 106.944 11.8073 106.388C12.1622 106.486 12.5171 106.585 12.8713 106.683C12.9865 106.686 13.1018 106.69 13.217 106.693C20.0541 106.706 26.8912 106.689 33.7283 106.707C34.4916 106.708 35.2998 106.525 35.9883 107.055C36.0486 107.162 36.1089 107.269 36.1692 107.376Z" fill="#4F1601"/>
<path fill-rule="evenodd" clip-rule="evenodd" d="M89.1472 34.5852C89.0945 34.2272 89.0228 33.7425 88.6534 33.7227C86.9926 33.6326 86.9765 32.2832 86.6087 31.1918C86.4728 30.6484 86.843 30.2255 86.9575 29.7432C87.8688 30.1324 88.8075 30.4133 89.8059 30.4598C89.4823 31.8184 89.7959 33.2785 89.1472 34.5852Z" fill="#B95710"/>
<path fill-rule="evenodd" clip-rule="evenodd" d="M3.09799 98.0234C4.76796 99.0011 6.22728 100.186 7.0386 102.011C5.34344 101.058 3.60936 100.145 3.09799 98.0234Z" fill="#6F3817"/>
<path fill-rule="evenodd" clip-rule="evenodd" d="M89.8051 30.459C88.6534 31.023 87.6115 31.1497 86.9567 29.7423C86.9277 29.2866 87.0155 28.8692 87.3475 28.5303C88.4618 28.7966 89.1907 29.5545 89.8051 30.459Z" fill="#BA5A12"/>
<path fill-rule="evenodd" clip-rule="evenodd" d="M63.871 101.251C63.7206 101.398 63.5703 101.546 63.4199 101.693C62.0277 100.413 60.1029 99.6578 59.4457 97.6543C60.3898 98.1596 61.5347 98.3733 62.0743 99.4655C62.7498 99.9852 63.7115 100.215 63.871 101.251Z" fill="#6C3614"/>
<path fill-rule="evenodd" clip-rule="evenodd" d="M7.45914 102.406C9.38403 102.657 10.1709 104.168 11.0113 105.617C9.39624 105.024 8.24527 103.917 7.45914 102.406Z" fill="#6C391A"/>
<path fill-rule="evenodd" clip-rule="evenodd" d="M55.9524 94.6819C56.1874 94.5109 56.4973 94.2117 56.7248 94.433C57.746 95.4268 58.9618 96.2671 59.474 97.6913C57.8918 97.1662 56.8392 96.0213 55.9524 94.6819Z" fill="#79401C"/>
<path fill-rule="evenodd" clip-rule="evenodd" d="M25.8677 90.8353C25.9708 90.7315 26.0746 90.6284 26.1768 90.5254C26.3096 90.6445 26.444 90.7628 26.5775 90.8803C25.525 92.1244 24.1993 91.2329 23.0132 91.4382C23.8986 90.8383 25.0129 91.5733 25.8677 90.8353Z" fill="#F2E477"/>
<path fill-rule="evenodd" clip-rule="evenodd" d="M43.2322 113.908C42.9948 113.909 42.7575 113.91 42.5193 113.911C42.0041 113.733 41.8133 113.322 41.7424 112.824C42.124 112.948 42.5064 113.07 42.8887 113.193C42.9994 113.352 43.2055 113.399 43.3184 113.556C43.3238 113.62 43.3284 113.683 43.3337 113.746C43.2994 113.8 43.2658 113.855 43.2322 113.908Z" fill="#450E01"/>
<path fill-rule="evenodd" clip-rule="evenodd" d="M84.3853 59.3646C83.5481 59.3639 82.7108 59.3631 81.8735 59.3624C81.7674 59.2784 81.7346 59.1967 81.7728 59.1181C81.8109 59.0403 81.8483 59.0021 81.885 59.0021C82.7375 59.0059 83.5893 59.0105 84.4418 59.0151C84.4227 59.1311 84.4036 59.2471 84.3853 59.3646Z" fill="#9C4D10"/>
<path fill-rule="evenodd" clip-rule="evenodd" d="M64.1122 33.692C64.3411 31.9488 63.3527 31.8633 61.9499 31.8717C52.9337 31.9305 43.9184 31.9022 34.9022 31.9022C34.6862 31.5443 34.6954 31.2291 35.0724 30.9818C35.6502 30.7536 36.2577 30.823 36.8546 30.8223C45.5059 30.8169 54.1572 30.8154 62.8085 30.8253C63.5161 30.8261 64.2633 30.6788 64.8922 31.1794C64.7922 31.4206 64.6922 31.6633 64.593 31.9045C64.6785 31.9824 64.7151 32.0663 64.7021 32.1572C64.6884 32.2518 64.6701 32.2991 64.6457 32.2991C64.68 32.8441 64.4571 33.2913 64.1122 33.692Z" fill="#B6540C"/>
<path fill-rule="evenodd" clip-rule="evenodd" d="M34.1802 30.8246C34.6435 30.2621 35.2876 30.4644 35.8608 30.4636C44.9754 30.4522 54.0893 30.4522 63.2039 30.4636C63.7786 30.4644 64.4197 30.2652 64.8922 30.8109C64.4548 31.1055 63.9603 30.9865 63.4901 30.9865C54.0664 30.9949 44.6427 30.9895 35.2189 30.9941C34.8633 30.9956 34.4962 31.0712 34.1802 30.8246Z" fill="#F6F080"/>
<path fill-rule="evenodd" clip-rule="evenodd" d="M34.1802 30.8244C44.4175 30.8198 54.6548 30.8153 64.8929 30.8107C64.8929 30.9328 64.8929 31.0557 64.8929 31.1778C54.8953 31.1938 44.8984 31.2099 34.9014 31.2259C34.6786 31.3938 34.4511 31.4045 34.2183 31.2473C34.2054 31.1068 34.1932 30.9656 34.1802 30.8244Z" fill="#E8CB65"/>
<path fill-rule="evenodd" clip-rule="evenodd" d="M34.2183 31.2487C34.4458 31.2411 34.674 31.2334 34.9014 31.2266C34.9014 31.4517 34.9014 31.6776 34.9022 31.9028C34.4534 32.94 34.1695 34.0147 34.1809 35.1542C33.9626 35.3908 33.7451 35.6259 33.5268 35.8617C33.2246 35.5373 33.2391 35.1771 33.4009 34.797C33.2109 33.9277 33.062 33.0675 33.884 32.4035C33.9955 32.0173 34.1069 31.6334 34.2183 31.2487Z" fill="#B4510C"/>
<path fill-rule="evenodd" clip-rule="evenodd" d="M33.884 32.4024C33.5238 33.1596 33.4246 33.9701 33.4009 34.7959C33.1788 34.7952 32.9567 34.7936 32.7346 34.7921C33.02 33.7091 33.3055 32.6268 33.6993 31.1309C33.8016 31.8391 33.8428 32.1208 33.884 32.4024Z" fill="#F1E175"/>
<path fill-rule="evenodd" clip-rule="evenodd" d="M64.6464 32.2989C64.6289 32.1676 64.6113 32.0363 64.5938 31.9043C65.5325 32.1195 65.212 32.7736 65.1822 33.6575C64.9273 33.0102 64.7869 32.6546 64.6464 32.2989Z" fill="#F1E276"/>
<path fill-rule="evenodd" clip-rule="evenodd" d="M397.587 42.725C397.347 42.712 397.107 42.6998 396.866 42.6998C385.973 42.6922 375.079 42.7014 364.185 42.6563C363.092 42.6517 362.76 43.054 362.589 44.0637C362.024 47.38 361.369 50.6818 360.729 53.9851C358.168 67.1991 355.612 80.4146 353.009 93.6201C352.778 94.7864 352.898 95.1642 354.211 95.1466C359.626 95.0726 365.043 95.1161 370.46 95.1161C375.335 95.1161 380.21 95.1085 385.085 95.1191C387.141 95.1237 389.158 94.8535 391.164 94.4055C394.872 93.5759 397.154 91.3365 398.096 87.6501C400.035 80.0742 401.215 72.3471 402.737 64.688C403.579 60.4452 404.444 56.2023 405.107 51.9297C406.045 45.8978 403.642 43.0463 397.587 42.725ZM388.606 75.8145C388.141 77.9264 387.665 80.0375 387.293 82.167C387.136 83.0668 386.664 83.1485 385.919 83.1409C382.972 83.1119 380.025 83.1286 377.078 83.1286C374.252 83.1286 371.422 83.0607 368.599 83.1592C367.359 83.2027 367.159 82.7341 367.373 81.6953C367.772 79.7536 368.15 77.8066 368.513 75.8588C368.644 75.1543 368.977 74.8956 369.733 74.8994C375.748 74.933 381.763 74.9269 387.777 74.9078C388.469 74.9055 388.775 75.0528 388.606 75.8145ZM391.282 61.8968C391.147 62.7372 390.79 62.9509 389.981 62.9463C384.036 62.9158 378.088 62.9066 372.141 62.9532C371.137 62.9608 371.09 62.6028 371.258 61.7915C371.684 59.7361 372.049 57.6685 372.416 55.6009C372.524 54.9941 372.744 54.6361 373.448 54.6377C379.804 54.6537 386.159 54.6476 392.598 54.6476C392.13 57.1838 391.659 59.5323 391.282 61.8968Z" fill="#21A44B"/>
<path fill-rule="evenodd" clip-rule="evenodd" d="M43.2024 113.57C43.0979 113.445 42.9933 113.319 42.888 113.193C51.2996 113.197 59.7105 113.197 68.1222 113.203C69.0503 113.204 69.9937 113.303 70.7348 112.562C70.692 112.88 70.6485 113.197 70.6058 113.516C70.0677 114.058 69.3732 113.915 68.7282 113.915C60.8554 113.926 52.9826 113.925 45.1098 113.917C44.4587 113.917 43.7771 114.023 43.2024 113.57Z" fill="#FEFD88"/>
<path fill-rule="evenodd" clip-rule="evenodd" d="M12.8713 106.684C13.2842 106.18 13.8597 106.343 14.3787 106.343C21.086 106.333 27.7926 106.333 34.4992 106.342C35.0167 106.343 35.5975 106.181 35.9806 106.73C34.3183 107.041 32.6407 106.853 30.9715 106.862C25.5189 106.891 20.0663 106.878 14.6137 106.867C14.0238 106.865 13.4139 106.999 12.8446 106.719L12.8713 106.684Z" fill="#FEFE87"/>
<path fill-rule="evenodd" clip-rule="evenodd" d="M12.8438 106.718C20.5556 106.722 28.2681 106.725 35.9806 106.729C35.9814 106.838 35.9837 106.947 35.9883 107.055C28.894 107.056 21.7997 107.065 14.7053 107.043C14.0841 107.04 13.3727 107.333 12.8438 106.718Z" fill="#C1A551"/>
<path fill-rule="evenodd" clip-rule="evenodd" d="M63.871 101.25C63.5161 100.41 62.2651 100.471 62.0751 99.4651C63.5321 99.4063 63.9855 100.528 64.5235 101.548C64.306 101.45 64.0885 101.35 63.871 101.25Z" fill="#F8F281"/>
<path fill-rule="evenodd" clip-rule="evenodd" d="M69.1587 100.88C68.9183 101.828 68.4084 102.103 67.075 102.002C67.6925 101.484 68.3611 101.062 69.1587 100.88Z" fill="#62280A"/>
<path fill-rule="evenodd" clip-rule="evenodd" d="M29.8625 52.1777C30.2861 53.2432 29.2245 54.3285 29.9037 55.3917C29.6442 55.752 29.3847 56.1114 29.1245 56.4717C29.1054 56.0756 29.1832 55.6466 28.7589 55.3879C28.9978 54.4232 29.2367 53.4592 29.4756 52.4944C29.4779 52.2556 29.4801 52.0159 29.4824 51.777C29.816 51.7137 30.0259 51.7686 29.8625 52.1777Z" fill="#FCF6A9"/>
<path fill-rule="evenodd" clip-rule="evenodd" d="M28.8138 59.0176C29.3947 59.6938 29.0062 60.4448 28.8634 61.1898C28.8154 60.9188 28.768 60.6471 28.7199 60.3754C28.7512 59.9228 28.7833 59.4702 28.8138 59.0176Z" fill="#8A2E00"/>
<path fill-rule="evenodd" clip-rule="evenodd" d="M70.6516 113.851C70.3035 114.453 69.7113 114.279 69.1976 114.28C60.9783 114.289 52.7597 114.287 44.5404 114.282C44.0763 114.282 43.5627 114.399 43.2314 113.909L43.2475 113.888C43.8252 113.635 44.4358 113.755 45.0304 113.754C52.9727 113.745 60.9157 113.746 68.858 113.753C69.4564 113.753 70.0624 113.664 70.6516 113.851Z" fill="#450E01"/>
<path fill-rule="evenodd" clip-rule="evenodd" d="M70.6516 113.852C61.5171 113.864 52.3827 113.875 43.2482 113.887C43.2276 113.782 43.2123 113.677 43.2024 113.57C52.3369 113.552 61.4721 113.534 70.6066 113.516C70.6394 113.625 70.6546 113.737 70.6516 113.852Z" fill="#B69949"/>
<path fill-rule="evenodd" clip-rule="evenodd" d="M82.2567 52.1726C82.0842 53.6594 82.0368 55.1668 81.5568 56.6055C81.4896 56.1773 81.6049 55.6888 81.153 55.3874C81.2721 55.0263 81.3904 54.6646 81.5087 54.302C81.6285 53.6998 81.7491 53.0976 81.8697 52.4954C81.9643 52.3458 81.7155 51.7864 82.2567 52.1726Z" fill="#FCF6AA"/>
<path fill-rule="evenodd" clip-rule="evenodd" d="M81.885 59.0015C81.8773 59.1213 81.8735 59.2412 81.8735 59.3625C81.6529 59.2435 81.4331 59.1244 81.2133 59.0053C81.2186 58.526 81.2232 58.0475 81.2286 57.5674C82.1422 57.7277 81.7972 58.4634 81.885 59.0015Z" fill="#8D2F00"/>
<path fill-rule="evenodd" clip-rule="evenodd" d="M81.0423 60.4275C81.0553 60.6718 81.0683 60.916 81.0805 61.1603C80.0242 60.8817 80.5607 60.049 80.5928 59.3682C80.7431 59.7208 80.8927 60.0742 81.0423 60.4275Z" fill="#FEFEC3"/>
<path fill-rule="evenodd" clip-rule="evenodd" d="M31.2585 46.3369C31.9973 47.0566 31.6058 47.7901 31.2837 48.5236C31.0608 48.7343 30.8128 48.7404 30.5479 48.6121C30.409 48.4404 30.4311 48.2931 30.6136 48.1702C31.3692 47.7085 30.8173 46.9941 30.9517 46.4125C31.0517 46.3751 31.1532 46.3499 31.2585 46.3369Z" fill="#9D3A01"/>
<path fill-rule="evenodd" clip-rule="evenodd" d="M29.8625 52.1772C29.7358 52.0428 29.6091 51.9093 29.4832 51.7765C29.8244 51.2178 29.8824 50.6026 29.8427 49.9676C29.9617 49.8462 30.0816 49.7256 30.2006 49.6035C30.3014 49.6921 30.338 49.7836 30.3121 49.879C30.2846 49.9767 30.2556 50.0248 30.2243 50.0248C30.3411 50.3752 30.4578 50.7247 30.5746 51.0758C30.1503 51.3216 30.4136 52.0131 29.8625 52.1772Z" fill="#FBF3A3"/>
<path fill-rule="evenodd" clip-rule="evenodd" d="M30.2243 50.0254C30.2159 49.8842 30.2083 49.7445 30.1999 49.6033C30.264 49.1049 30.0159 48.5149 30.6136 48.1699C30.5701 48.2898 30.5754 48.4081 30.6288 48.5241C30.7845 48.7614 30.8196 49.0041 30.6609 49.2552C30.6151 49.5689 30.6242 49.9132 30.2243 50.0254Z" fill="#FEFEAD"/>
<path fill-rule="evenodd" clip-rule="evenodd" d="M84.8082 40.9512C85.7149 42.1609 84.5456 43.347 84.7662 44.5491C84.2365 44.8887 84.5044 45.4993 84.2319 46.2519C84.1098 45.7115 84.048 45.4352 83.9862 45.1589C83.5496 44.1621 83.6786 43.2386 84.3426 42.383C84.4975 41.906 84.6532 41.4282 84.8082 40.9512Z" fill="#A7490A"/>
<path fill-rule="evenodd" clip-rule="evenodd" d="M84.3426 42.3838C84.2235 43.3096 84.1045 44.2346 83.9862 45.1605C83.9053 45.2375 83.8221 45.3108 83.7351 45.3818C83.2992 45.0864 83.6977 44.5025 83.3206 44.1873C83.5664 43.7363 83.7381 43.2669 83.6786 42.7402C83.8167 42.4655 84.061 42.3899 84.3426 42.3838Z" fill="#F7EC90"/>
<path fill-rule="evenodd" clip-rule="evenodd" d="M83.3206 44.1865C83.7694 44.4766 83.6511 44.9643 83.735 45.381C83.7724 45.6779 83.7083 45.9176 83.384 46.013C83.242 46.0061 83.1008 45.9992 82.9588 45.9931C83.0764 45.7512 83.1939 45.5085 83.3107 45.2673C83.3145 44.9063 83.3176 44.546 83.3206 44.1865Z" fill="#F8EE96"/>
<path fill-rule="evenodd" clip-rule="evenodd" d="M78.329 73.4819C78.3107 73.9566 78.2924 74.4314 78.2741 74.9054C78.3855 75.2763 78.2237 75.3549 77.897 75.258C77.897 75.258 77.8665 75.2374 77.8665 75.2366C77.404 74.6321 77.8482 74.0459 77.9031 73.4521C78.0451 73.4613 78.1871 73.472 78.329 73.4819Z" fill="#C9A528"/>
<path fill-rule="evenodd" clip-rule="evenodd" d="M85.202 37.332C86.1339 37.5496 85.8027 38.1991 85.7821 39.1066C85.5325 38.4265 85.402 38.0708 85.2715 37.7152C85.2486 37.5877 85.2257 37.4595 85.202 37.332Z" fill="#A94001"/>
<path fill-rule="evenodd" clip-rule="evenodd" d="M23.6994 82.126C23.8467 81.852 23.9673 81.9359 24.0772 82.1542C24.4481 82.6251 24.4618 83.1067 24.1169 83.5975L24.0039 83.5372C23.5322 83.1464 23.7574 82.606 23.6994 82.126Z" fill="#E7D251"/>
<path fill-rule="evenodd" clip-rule="evenodd" d="M4.91374 73.0949C5.03891 72.2034 5.7327 72.3759 6.3036 72.3752C12.2408 72.3675 18.1789 72.3675 24.1153 72.3752C24.6847 72.3759 25.3823 72.2004 25.5044 73.0941C18.6414 73.0949 11.7776 73.0949 4.91374 73.0949Z" fill="#CAA62D"/>
<path fill-rule="evenodd" clip-rule="evenodd" d="M76.456 79.5978C76.5759 79.597 76.6957 79.5963 76.8163 79.5947C77.2536 79.9557 77.1498 80.461 77.1735 80.9304C77.2078 81.5585 77.0743 82.1638 76.9071 82.7622C76.0302 83.3285 76.5026 82.16 76.0927 82.1256C69.7579 82.1264 63.423 82.1302 57.0881 82.1211C56.3531 82.1203 55.399 82.3645 55.5356 81.0579C61.9759 81.0518 68.4153 81.0281 74.8555 81.0594C75.9447 81.0655 76.6392 80.8739 76.456 79.5978Z" fill="#D6B941"/>
<path fill-rule="evenodd" clip-rule="evenodd" d="M76.0912 85.0111C76.0668 84.6203 76.1561 84.1921 75.7332 83.9342C75.8523 83.8136 75.9714 83.693 76.0897 83.5716C76.2874 83.4495 76.4553 83.4816 76.5957 83.667C76.6713 84.2066 76.956 84.8256 76.0912 85.0111Z" fill="#DDC44F"/>
<path fill-rule="evenodd" clip-rule="evenodd" d="M76.3927 83.5663C76.2919 83.5693 76.1912 83.5716 76.0904 83.5724C76.0912 83.0908 76.092 82.6084 76.0927 82.126C76.7934 82.0772 76.2751 82.6389 76.456 82.8504C76.6728 83.1099 76.6385 83.3465 76.3927 83.5663Z" fill="#E8D250"/>
<path fill-rule="evenodd" clip-rule="evenodd" d="M82.9336 50.3145C83.487 50.6877 83.2748 51.2662 83.3259 51.7738C82.5222 51.7577 83.2893 50.8831 82.7512 50.7213C82.7092 50.6098 82.6665 50.4992 82.6238 50.3885C82.7245 50.3526 82.8275 50.3282 82.9336 50.3145Z" fill="#973501"/>
<path fill-rule="evenodd" clip-rule="evenodd" d="M76.3927 83.5666C76.4133 83.3277 76.4347 83.0895 76.456 82.8506C76.9659 82.3278 76.7445 81.6577 76.8193 81.0486C77.0643 80.8357 76.9499 80.4838 77.1315 80.2449C77.2803 80.2014 77.4177 80.2236 77.5421 80.3205C77.5414 80.9219 77.5406 81.5249 77.5398 82.1271C76.9407 83.0414 77.1422 84.142 76.8567 85.1358C76.6789 85.7555 77.0933 86.0906 77.7597 86.1036C78.2542 86.1135 78.8877 85.9608 78.9297 86.7813C78.0665 86.9805 77.2735 86.6424 76.4599 86.4623C76.1614 86.4829 75.9561 86.331 75.7913 86.1028C75.8912 85.7387 75.992 85.3762 76.0927 85.0114C76.4942 84.5931 76.4484 84.0802 76.3927 83.5666Z" fill="#7A3609"/>
<path fill-rule="evenodd" clip-rule="evenodd" d="M75.7905 86.1025C76.0736 86.1109 76.3202 86.1865 76.4591 86.462C76.4041 86.9604 76.6217 87.5275 76.0996 87.9091C75.9347 87.8343 75.8248 87.7107 75.7714 87.5382L75.6684 87.5664C75.7088 87.0787 75.75 86.5895 75.7905 86.1025Z" fill="#763409"/>
<path fill-rule="evenodd" clip-rule="evenodd" d="M3.49946 79.6137C10.3533 79.6083 17.208 79.603 24.0619 79.5977C24.1352 80.4983 23.6368 80.6929 22.8445 80.6906C16.7966 80.6731 10.7487 80.6746 4.7008 80.6876C3.93603 80.6899 3.37428 80.5609 3.49946 79.6137Z" fill="#D3B43B"/>
<path fill-rule="evenodd" clip-rule="evenodd" d="M25.2045 79.6007C24.9465 79.9662 24.6885 80.3326 24.4298 80.6982C24.4061 80.299 24.4908 79.8624 24.0627 79.5984C24.1817 79.2358 24.3008 78.8741 24.4199 78.5115C24.9083 78.1154 24.7748 78.8802 25.0633 78.8565C25.1098 79.1038 25.1572 79.3526 25.2045 79.6007Z" fill="#D3B43B"/>
<path fill-rule="evenodd" clip-rule="evenodd" d="M24.1169 83.5972C24.1031 83.1163 24.0901 82.6355 24.0772 82.1539C24.1718 82.1287 24.2672 82.1043 24.3626 82.0791C25.0343 82.5744 24.7045 83.2995 24.7824 83.9292C24.5603 83.8185 24.3382 83.7071 24.1169 83.5972Z" fill="#702600"/>
<path fill-rule="evenodd" clip-rule="evenodd" d="M77.1781 76.3457C77.3147 76.3495 77.4505 76.3526 77.5872 76.3556C78.1977 77.2372 77.8001 78.1523 77.678 79.0552C76.772 79.8627 77.2231 78.4988 76.8132 78.5118C70.4806 78.5125 64.148 78.5179 57.8154 78.508C57.085 78.5064 56.1248 78.7629 56.2592 77.4516C62.6422 77.4448 69.0251 77.4448 75.4081 77.4203C76.1744 77.4173 77.2414 77.7737 77.1781 76.3457Z" fill="#CEAD32"/>
<path fill-rule="evenodd" clip-rule="evenodd" d="M26.9515 72.7297C26.7309 72.6122 26.5104 72.4939 26.2898 72.3764C26.2532 72.2504 26.2165 72.1245 26.1791 71.9978C26.318 71.6406 26.4562 71.2842 26.5943 70.9277C27.1958 71.433 26.8668 72.1222 26.9515 72.7297Z" fill="#813102"/>
<path fill-rule="evenodd" clip-rule="evenodd" d="M30.6609 49.2546C30.6502 49.0111 30.6395 48.7661 30.6288 48.5234C30.8471 48.5234 31.0654 48.5234 31.2837 48.5234C31.2837 48.9951 31.2837 49.4668 31.2837 49.9553C30.757 49.9698 31.0158 49.3477 30.6609 49.2546Z" fill="#9A3800"/>
<path fill-rule="evenodd" clip-rule="evenodd" d="M58.0268 69.1182C58.1558 68.229 58.8496 68.4015 59.4213 68.4007C65.3585 68.3931 71.2965 68.3931 77.2338 68.4015C77.8031 68.4023 78.5015 68.226 78.6175 69.1235C71.7537 69.122 64.8906 69.1197 58.0268 69.1182Z" fill="#DABE55"/>
<path fill-rule="evenodd" clip-rule="evenodd" d="M75.7416 89.7098C75.7363 90.193 75.7309 90.6769 75.7256 91.1592C75.489 91.3996 75.2524 91.6416 75.0158 91.882C74.9028 91.6591 74.7891 91.4355 74.6754 91.2119C75.4653 90.8165 74.7654 89.8167 75.4249 89.3679C75.721 89.3068 75.9042 89.3488 75.7416 89.7098Z" fill="#651E00"/>
<path fill-rule="evenodd" clip-rule="evenodd" d="M75.7416 89.7095C75.6363 89.5965 75.531 89.4821 75.4256 89.3683C75.2883 88.7112 75.3302 88.0861 75.7706 87.5381C75.8798 87.6617 75.9897 87.7854 76.0988 87.909C76.0049 88.5143 76.3324 89.2027 75.7416 89.7095Z" fill="#75340A"/>
<path fill-rule="evenodd" clip-rule="evenodd" d="M76.8132 78.511C77.5337 78.453 77.0109 79.0193 77.1788 79.2383C77.4925 79.5971 77.465 79.9573 77.1872 80.3206C77.0643 80.5633 76.9415 80.806 76.8186 81.048C76.8178 80.5641 76.8171 80.0787 76.8163 79.5948C76.8155 79.2345 76.8148 78.8728 76.8132 78.511Z" fill="#D3B43B"/>
<path fill-rule="evenodd" clip-rule="evenodd" d="M77.1872 80.3214C77.1842 79.9604 77.1819 79.6002 77.1788 79.2392C77.8291 78.3508 77.388 77.3082 77.5864 76.3556C78.0192 76.0839 77.8444 75.6397 77.8963 75.2589C78.0222 75.1413 78.1481 75.0238 78.2733 74.9062C79.0938 75.7481 78.3191 76.5854 78.268 77.4257C78.0627 78.3996 78.084 79.4307 77.5414 80.3207C77.4231 80.3199 77.3055 80.3207 77.1872 80.3214Z" fill="#823907"/>
</svg>