<svg width="490" height="132" viewBox="0 0 490 132" fill="none" xmlns="http://www.w3.org/2000/svg">
<path d="M180 16.5998V25.7998C177 24.2998 171.1 22.4998 166.8 22.4998C163.6 22.4998 161.2 23.4998 161.2 26.2998C161.2 33.0998 183 33.9998 183 48.0998C183 56.1998 176.7 62.2998 166.2 62.2998C162.1 62.2998 156.1 61.5998 150.3 58.0998V47.7998C154.1 51.1998 160.6 53.3998 165.7 53.3998C169.7 53.3998 172.8 51.9998 172.8 48.4998C172.8 40.3998 150.7 40.1998 150.7 26.7998C150.7 17.8998 157.9 13.2998 166.1 13.2998C169.4 13.2998 174.5 13.9998 180 16.5998Z" fill="white"/>
<path d="M200.6 47.9998V61.5998H190.3V14.2998H205.3C217.4 14.2998 223.6 22.2998 223.6 31.1998C223.6 39.5998 217.3 47.9998 204.7 47.9998H200.6ZM200.6 22.7998V39.5998H205.2C211.3 39.5998 213.3 34.9998 213.3 30.9998C213.3 27.9998 211.5 22.7998 204.9 22.7998C205 22.7998 200.6 22.7998 200.6 22.7998Z" fill="white"/>
<path d="M228.1 37.7998C228.1 24.0998 239.2 13.2998 253.2 13.2998C267.2 13.2998 278 24.1998 278 37.7998C278 51.3998 267.5 62.2998 253.2 62.2998C237.4 62.2998 228.1 51.5998 228.1 37.7998ZM267.3 37.8998C267.3 29.7998 261.5 23.1998 253.1 23.1998C244.7 23.1998 239 29.6998 239 37.8998C239 46.0998 244.2 52.5998 253.1 52.5998C262 52.5998 267.3 45.9998 267.3 37.8998Z" fill="white"/>
<path d="M295.7 61.5998H285.4V14.2998H301.9C313.9 14.2998 320.2 21.4998 320.2 30.4998C320.2 36.0998 317.4 41.3998 311.8 44.2998L322.7 61.6998H311.1L302 46.4998H295.7V61.5998ZM295.7 22.7998V38.0998H301.8C307.9 38.0998 309.9 34.2998 309.9 30.2998C309.9 27.2998 308.1 22.7998 301.5 22.7998H295.7Z" fill="white"/>
<path d="M358.5 22.9998H347.3V61.5998H337.2V22.9998H325V14.2998H361.7L358.5 22.9998Z" fill="white"/>
<path d="M365.4 61.5998V14.2998H376V61.5998H365.4V61.5998Z" fill="white"/>
<path d="M394.9 14.2998L416.6 43.7998H416.7V14.2998H426.7V61.5998H417.8L396.2 32.1998H396V61.5998H386V14.2998H394.9Z" fill="white"/>
<path d="M459.4 13.2998C462.5 13.2998 468.5 13.6998 473.4 16.4998V26.1998C466.7 22.5998 462 22.2998 459.6 22.2998C451.3 22.2998 444.7 28.0998 444.7 38.1998C444.7 46.8998 449.7 53.0998 459.3 53.0998C461.1 53.0998 463.5 52.6998 465.5 52.0998V35.9998H475.2V58.7998C470.2 61.0998 464 62.2998 458.3 62.2998C442.5 62.2998 434.1 52.2998 434.1 38.2998C434.1 24.2998 444.9 13.2998 459.4 13.2998Z" fill="white"/>
<path d="M224.2 72.5V119.8H221.2V72.5H224.2Z" fill="white"/>
<path d="M237 119.9V72.5H239.7C250.3 86.6 260.8 100.7 271.3 114.8C271.4 114.7 271.4 114.7 271.4 114.7V72.5H274.3V119.8H271.6L240 77.5H239.9V119.9H237Z" fill="white"/>
<path d="M286.9 119.9V72.5H302.6C316.9 72.5 325.7 82 325.7 96C325.7 110 317.5 119.8 303.3 119.8L286.9 119.9ZM303 117.1C315.9 117.1 322.7 108.3 322.7 96.2C322.7 84.1 315.7 75.4 302.4 75.4H289.7V117.2L303 117.1Z" fill="white"/>
<path d="M360.4 96.4H339V117.1H364V119.8H336V72.5H362.8L361.8 75.3H339V93.7H360.4V96.4Z" fill="white"/>
<path d="M385.8 97.5L370.9 119.8H367.5L384.2 95.3L368.9 72.5H372.3L385.9 92.9L399.7 72.5H403L387.5 95.2L404.3 119.8H400.8L385.8 97.5Z" fill="white"/>
<g clip-path="url(#clip0_0_4455)">
<path d="M142.954 109.484C142.805 109.634 142.506 109.933 142.356 110.082C142.207 110.232 142.207 110.232 142.207 110.232C134.287 116.956 117.402 112.921 103.057 107.841C104.851 105.151 104.253 105.898 105.299 104.404C71.2299 100.071 41.3448 84.5304 29.2414 72.7258C28.4943 71.9786 27.7471 71.0821 27 70.335C32.0805 86.6223 55.5402 114.864 81.9885 128.76C83.4828 127.864 83.0345 128.163 84.2299 127.415C104.701 135.933 127.563 128.76 143.851 108.588C143.552 109.036 143.253 109.335 142.954 109.484Z" fill="#00B796"/>
<path d="M139.218 89.6089C138.77 89.0112 138.322 88.4135 138.023 87.8158C122.184 91.2526 101.862 87.0687 86.1724 82.8848C96.4828 89.3101 110.379 100.965 115.46 111.126C143.552 118 150.126 105.597 139.218 89.6089Z" fill="url(#paint0_linear_0_4455)"/>
<path fill-rule="evenodd" clip-rule="evenodd" d="M68.092 2.64348C65.1034 3.39061 62.8621 4.58601 61.6667 6.67797C59.1264 11.0113 61.3678 16.6895 65.4023 22.3676C90.8046 27.2987 122.034 44.7814 141.011 66.5975C144.747 59.2757 148.034 49.1147 147.736 40.5975C122.333 15.3446 84.2299 -0.793297 68.092 2.64348Z" fill="url(#paint1_linear_0_4455)"/>
<path d="M138.621 87.517L137.874 87.6664C138.322 88.2641 138.77 88.8618 139.069 89.4595C139.069 89.4595 139.069 89.4595 139.069 89.6089C149.977 105.747 143.402 117.85 115.31 111.276C111.874 110.528 107.989 109.333 103.954 107.988C105.149 106.046 104.402 107.092 106.793 103.505C59.5747 97.0802 32.3793 75.563 27.4483 69.2871L27 70.3331C27.7471 71.0802 28.4943 71.9768 29.2414 72.7239C41.3448 84.5285 71.2299 100.069 105.448 104.551C104.552 106.046 105 105.299 103.207 107.988C117.701 113.069 134.437 117.103 142.356 110.379C142.506 110.23 142.506 110.23 142.506 110.23C142.655 110.08 142.954 109.781 143.103 109.632C146.839 105.149 145.943 97.6779 138.621 87.517Z" fill="white"/>
<path d="M103.057 107.839L103.805 107.69C105 105.747 104.253 106.793 106.644 103.207L105.299 104.253C104.402 106.046 104.851 105.299 103.057 107.839Z" fill="#97999B"/>
<path d="M83.0345 34.4721L79.7471 37.9089C67.1954 27.8974 55.2414 12.8055 60.7701 5.18477C60.7701 5.18477 60.7701 5.03535 60.9195 5.03535C61.069 4.88592 61.2184 4.58707 61.3678 4.43765C61.6667 4.1388 61.9655 3.83994 62.2644 3.54109C62.4138 3.39167 62.4138 3.39167 62.4138 3.39167C62.7126 3.24224 63.1609 2.94339 63.4598 2.64454C63.6092 2.49512 63.7586 2.49512 63.908 2.49512C64.0575 2.64454 64.2069 2.64454 64.3563 2.49512C52.7011 7.725 42.5402 16.0928 35.3678 27.1503C28.7931 39.8514 45.8276 58.679 56.5862 67.9434C54.3448 71.8285 54.6437 71.2308 54.4942 71.679C90.6552 89.3112 128.161 93.1963 144.897 85.4262C128.31 80.794 98.8736 59.5756 83.0345 34.4721Z" fill="#00B796"/>
<path d="M83.0345 34.4721L79.7471 37.9089C67.1954 27.8974 55.2414 12.8055 60.7701 5.18477C60.7701 5.18477 60.7701 5.03535 60.9195 5.03535C61.069 4.88592 61.2184 4.58707 61.3678 4.43765C61.6667 4.1388 61.9655 3.83994 62.2644 3.54109C62.4138 3.39167 62.4138 3.39167 62.4138 3.39167C62.7126 3.24224 63.1609 2.94339 63.4598 2.64454C63.6092 2.49512 63.7586 2.49512 63.908 2.49512C64.0575 2.64454 64.2069 2.64454 64.3563 2.49512C52.7011 7.725 42.5402 16.0928 35.3678 27.1503C28.7931 39.8514 45.8276 58.679 56.5862 67.9434C54.3448 71.8285 54.6437 71.2308 54.4942 71.679C90.6552 89.3112 128.161 93.1963 144.897 85.4262C128.31 80.794 98.8736 59.5756 83.0345 34.4721Z" fill="url(#paint2_radial_0_4455)"/>
<path d="M105.598 58.8273L103.506 57.4824C111.276 64.8043 119.494 71.0801 127.264 75.8617C121.437 70.0341 112.471 63.4594 105.598 58.8273Z" fill="url(#paint3_linear_0_4455)"/>
<path d="M105.598 58.8264C112.471 63.3091 121.586 70.0333 127.414 75.8609C128.161 76.3091 128.759 76.608 129.506 77.0563C124.575 71.9758 115.31 64.2057 102.012 55.9873C102.46 56.4356 103.058 57.0333 103.506 57.631L105.598 58.8264Z" fill="url(#paint4_linear_0_4455)"/>
<path d="M129.506 77.2064C128.759 76.7581 128.161 76.4593 127.414 76.011C119.644 71.2294 111.276 64.9535 103.655 57.6317C103.057 57.1834 102.609 56.5857 102.161 55.988C95.4368 49.4133 89.1609 41.942 83.7816 33.873C83.4828 34.1719 83.3333 34.3213 83.0345 34.6202C98.8736 59.7236 128.31 80.942 145.046 85.7236L145.943 84.6776C140.862 83.034 135.333 80.4937 129.506 77.2064Z" fill="white"/>
<path d="M147.586 40.598L148.333 40.1497C122.333 13.4026 79.1494 -4.82731 64.0574 2.64395C63.908 2.79338 63.7586 2.79338 63.6092 2.79338C63.1609 2.9428 62.862 3.24165 62.5632 3.5405C62.4138 3.5405 62.4138 3.68993 62.4138 3.68993C61.9655 3.98878 61.6666 4.28763 61.5172 4.58648C61.3678 4.73591 61.0689 5.03476 61.0689 5.18418C61.0689 5.18418 61.0689 5.33361 60.9195 5.33361C55.2413 12.8049 67.3448 27.8968 79.7471 37.9083C79.8965 37.7589 80.0459 37.6095 80.1954 37.46C72.2758 30.7359 56.2873 15.644 61.6666 6.67843C69.5862 -6.47099 117.701 10.5635 147.586 40.598Z" fill="url(#paint5_linear_0_4455)"/>
<path d="M142.954 109.484C142.805 109.634 142.506 109.933 142.356 110.082C142.207 110.232 142.207 110.232 142.207 110.232C134.287 116.956 117.402 112.921 103.057 107.841C104.851 105.151 104.253 105.898 105.299 104.404C71.2299 100.071 41.3448 84.5304 29.2414 72.7258C28.4943 71.9786 27.7471 71.0821 27 70.335C32.0805 86.6223 55.5402 114.864 81.9885 128.76C83.4828 127.864 83.0345 128.163 84.2299 127.415C104.701 135.933 127.563 128.76 143.851 108.588C143.552 109.036 143.253 109.335 142.954 109.484Z" fill="url(#paint6_radial_0_4455)"/>
</g>
<defs>
<linearGradient id="paint0_linear_0_4455" x1="86.1673" y1="97.9559" x2="144.434" y2="97.9559" gradientUnits="userSpaceOnUse">
<stop stop-color="#97999B" stop-opacity="0"/>
<stop offset="1" stop-color="#97999B"/>
</linearGradient>
<linearGradient id="paint1_linear_0_4455" x1="71.4954" y1="-3.47503" x2="141.265" y2="66.2949" gradientUnits="userSpaceOnUse">
<stop stop-color="#97999B"/>
<stop offset="0.07" stop-color="#97999B" stop-opacity="0.87"/>
<stop offset="0.25" stop-color="#97999B" stop-opacity="0.56"/>
<stop offset="0.43" stop-color="#97999B" stop-opacity="0.32"/>
<stop offset="0.59" stop-color="#97999B" stop-opacity="0.14"/>
<stop offset="0.74" stop-color="#97999B" stop-opacity="0.04"/>
<stop offset="0.85" stop-color="#97999B" stop-opacity="0"/>
</linearGradient>
<radialGradient id="paint2_radial_0_4455" cx="0" cy="0" r="1" gradientUnits="userSpaceOnUse" gradientTransform="translate(89.4055 45.8885) scale(49.8381 49.8381)">
<stop stop-color="#008459" stop-opacity="0"/>
<stop offset="1" stop-color="#008459"/>
</radialGradient>
<linearGradient id="paint3_linear_0_4455" x1="102.775" y1="66.7804" x2="127.778" y2="66.7804" gradientUnits="userSpaceOnUse">
<stop stop-color="#97999B" stop-opacity="0"/>
<stop offset="0.13" stop-color="#97999B" stop-opacity="0.04"/>
<stop offset="0.3" stop-color="#97999B" stop-opacity="0.14"/>
<stop offset="0.49" stop-color="#97999B" stop-opacity="0.32"/>
<stop offset="0.7" stop-color="#97999B" stop-opacity="0.56"/>
<stop offset="0.92" stop-color="#97999B" stop-opacity="0.87"/>
<stop offset="1" stop-color="#97999B"/>
</linearGradient>
<linearGradient id="paint4_linear_0_4455" x1="101.177" y1="66.5823" x2="129.841" y2="66.5823" gradientUnits="userSpaceOnUse">
<stop stop-color="white" stop-opacity="0"/>
<stop offset="1" stop-color="white"/>
</linearGradient>
<linearGradient id="paint5_linear_0_4455" x1="59.237" y1="20.8268" x2="148.482" y2="20.8268" gradientUnits="userSpaceOnUse">
<stop stop-color="white"/>
<stop offset="0.6" stop-color="white"/>
<stop offset="0.64" stop-color="white" stop-opacity="0.98"/>
<stop offset="0.68" stop-color="white" stop-opacity="0.93"/>
<stop offset="0.73" stop-color="white" stop-opacity="0.84"/>
<stop offset="0.78" stop-color="white" stop-opacity="0.71"/>
<stop offset="0.82" stop-color="white" stop-opacity="0.55"/>
<stop offset="0.87" stop-color="white" stop-opacity="0.36"/>
<stop offset="0.92" stop-color="white" stop-opacity="0.13"/>
<stop offset="0.95" stop-color="white" stop-opacity="0"/>
</linearGradient>
<radialGradient id="paint6_radial_0_4455" cx="0" cy="0" r="1" gradientUnits="userSpaceOnUse" gradientTransform="translate(85.3926 100.702) scale(46.5406)">
<stop stop-color="#008459" stop-opacity="0"/>
<stop offset="1" stop-color="#008459"/>
</radialGradient>
<clipPath id="clip0_0_4455">
<rect width="121.483" height="130" fill="white" transform="translate(27 1)"/>
</clipPath>
</defs>
</svg>