<svg width="490" height="132" viewBox="0 0 490 132" fill="none" xmlns="http://www.w3.org/2000/svg">
<path fill-rule="evenodd" clip-rule="evenodd" d="M349.987 106.209H482.637V29.4214H349.987V106.209Z" fill="white"/>
<path fill-rule="evenodd" clip-rule="evenodd" d="M342.269 112H490V20H342.269V112ZM409.545 93.1773H364.359V39.7574H408.762V51.1508H380.968V59.7158H406.674V70.6084H380.968V81.1118H409.545V93.1773ZM452.643 93.1773L442.055 76.0081L431.486 93.1773H413.05L431.486 65.339L414.709 39.7574H432.884L442.372 56.1986L451.581 39.7574H469.625L452.979 65.6183L471.21 93.1773H452.643Z" fill="#FD0000"/>
<path fill-rule="evenodd" clip-rule="evenodd" d="M297.959 51.8034V80.9991H301.986C304.497 81.1704 307.011 80.7775 309.349 79.8447C310.948 78.9658 312.188 77.5563 312.853 75.86C313.839 72.8604 314.255 69.7025 314.084 66.5502C314.084 60.9643 313.17 57.0169 311.306 54.9129C309.442 52.8088 306.387 51.7848 302.116 51.7848L297.959 51.8034ZM281.48 39.7564H306.031C310.033 39.6093 314.02 40.2741 317.756 41.7115C320.671 42.9218 323.235 44.8415 325.212 47.2974C327.203 49.8278 328.642 52.7455 329.446 55.8625C330.341 59.2345 330.784 62.7089 330.769 66.1964C330.991 70.7061 330.357 75.2158 328.905 79.4909C327.69 82.4887 325.839 85.1904 323.479 87.4043C321.38 89.4096 318.819 90.8675 316.022 91.6496C312.82 92.5601 309.509 93.0479 306.18 93.1019H281.48V39.7564ZM252.438 72.8995L246.622 53.6095L240.731 72.825L252.438 72.8995ZM255.923 84.4437H237.282L234.505 93.1764H217.616L237.767 39.7564H255.961L275.888 93.1764H258.571L255.923 84.4437ZM169.056 39.7564H213.459V51.1517H185.665V59.7168H211.39V70.6093H185.665V81.1108H214.242V93.1764H169.056V39.7564ZM127.747 61.4111H134.719C136.201 61.3032 137.666 61.0537 139.1 60.6664C140.174 60.4764 141.13 59.875 141.765 58.9906C142.459 58.1043 142.826 57.0057 142.809 55.8811C142.906 54.371 142.3 52.9019 141.169 51.8965C139.316 50.7793 137.15 50.2952 134.999 50.5186H127.747V61.4111ZM111.138 93.1764V39.7564H138.708C142.655 39.6112 146.599 40.0506 150.415 41.0598C153.084 41.9051 155.39 43.6219 156.958 45.9382C158.669 48.4947 159.536 51.5222 159.437 54.5963C159.637 59.8918 156.88 64.8614 152.279 67.4998C150.46 68.5108 148.489 69.2258 146.444 69.6224C147.962 70.073 149.405 70.7378 150.732 71.5961C151.722 72.4266 152.611 73.3706 153.379 74.4077C154.251 75.4374 155.027 76.5471 155.69 77.722L163.725 93.1578H145.084L136.285 76.8469C135.582 75.2866 134.568 73.8864 133.302 72.7319C132.113 71.9145 130.7 71.4863 129.257 71.503H127.803V93.1764H111.138ZM73.4832 62.5656H77.5469C79.9069 62.8114 82.2799 62.2472 84.2764 60.9643C85.5085 59.903 86.1927 58.3426 86.1405 56.719C86.174 55.127 85.5626 53.589 84.4441 52.4551C83.3257 51.282 81.2192 50.7048 78.1248 50.7048H73.4832V62.5656ZM56.874 39.7564H84.3696C90.3589 39.7564 94.8459 41.1771 97.8284 44.0203C100.958 47.2769 102.58 51.6917 102.302 56.1976C102.55 60.927 100.783 65.541 97.437 68.8963C94.1748 71.9499 89.2162 73.4767 82.5241 73.4767H73.4832V93.1764H56.874V39.7564ZM0 75.4877L15.7144 74.5008C15.8785 76.5974 16.5924 78.6139 17.7836 80.3474C19.5582 82.5371 22.2761 83.7418 25.0909 83.5872C27.0464 83.7157 28.9832 83.1255 30.5341 81.9301C32.6443 80.3697 33.0898 77.3962 31.5277 75.2884C31.5258 75.2866 31.5239 75.2847 31.5221 75.2828C31.263 74.944 30.9628 74.6367 30.6273 74.3705C29.4156 73.2905 26.6008 72.2478 22.1643 71.2796C14.8458 69.6653 9.66168 67.5072 6.61759 64.7999C3.53808 62.2677 1.78768 58.4692 1.86411 54.4846C1.86411 51.7084 2.70296 48.9955 4.26881 46.7016C6.03785 44.0967 8.55253 42.0857 11.4829 40.9295C15.7014 39.3654 20.1864 38.656 24.6808 38.8441C31.5407 38.8441 36.7733 40.1176 40.3766 42.6611C44.1794 45.5769 46.5207 50.0029 46.7891 54.7825L31.2238 55.6949C30.9945 53.6914 30.0569 51.8369 28.5768 50.4628C26.9643 49.2767 24.9846 48.6957 22.9845 48.8242C21.4261 48.7069 19.8751 49.1426 18.6038 50.0531C17.6773 50.7569 17.133 51.8518 17.1312 53.0137C17.1666 53.9744 17.6662 54.857 18.4733 55.3784C20.1697 56.4397 22.0785 57.1137 24.0656 57.3521C29.4156 58.3035 34.6351 59.8843 39.6123 62.0628C42.4103 63.3476 44.7833 65.4014 46.4536 67.9839C47.8703 70.3654 48.5992 73.0913 48.56 75.86C48.5805 79.2321 47.587 82.5333 45.7079 85.3375C43.7618 88.2664 40.9936 90.5529 37.7482 91.9102C33.6546 93.532 29.2684 94.2917 24.8672 94.1446C15.7461 94.1074 9.43985 92.3571 5.94651 88.8938C2.38979 85.3021 0.275888 80.5317 0 75.4877V75.4877Z" fill="white"/>
</svg>