<svg width="490" height="132" viewBox="0 0 490 132" fill="none" xmlns="http://www.w3.org/2000/svg">
<path d="M22.7228 132C22.2306 132 21.7383 132 21.1641 132C21.082 132 21 131.754 21 131.672" fill="#FDFEFD"/>
<path fill-rule="evenodd" clip-rule="evenodd" d="M73.3122 94.2211C73.9778 94.2211 75.0149 94.1476 75.607 94.0659C79.0166 93.6249 80.4213 91.1055 81.9035 87.406L100.491 40.8764C101.377 38.7286 101.826 37.916 102.565 37.916C103.231 37.916 103.676 38.5775 104.415 40.2843L122.782 85.8054C125.599 92.4449 127.743 93.482 129.295 93.923C130.348 94.1354 131.394 94.2089 132.259 94.2211H132.406C133.447 94.2048 134.289 94.0659 134.922 93.923C136.404 93.6249 136.775 91.9998 137.069 89.8478C137.441 86.7363 137.441 80.8809 137.441 74.0699V61.0277L137.294 45.3232C137.147 42.7997 136.551 41.6155 134.109 41.101C133.517 40.9499 132.259 40.8764 131.222 40.8764C130.405 40.8764 129.956 40.7294 129.956 40.2068C129.956 39.6882 130.479 39.5412 131.59 39.5412C135.51 39.5412 140.181 39.7658 141.737 39.7658L152.178 39.5412C156.841 39.5412 161.806 39.9863 165.804 42.7303C167.878 44.1349 170.834 47.9161 170.834 52.8773C170.834 58.3613 168.544 63.4001 161.067 69.4761C167.654 77.7694 172.766 84.3639 177.135 88.9536C181.28 93.2533 184.318 93.7719 185.424 93.9965C186.241 94.1476 186.906 94.2211 187.499 94.2211C188.095 94.2211 188.393 94.4457 188.393 94.8132C188.393 95.4053 187.87 95.5564 186.984 95.5564H179.953C175.808 95.5564 173.95 95.1848 172.031 94.1476C168.846 92.4408 166.028 88.9577 161.884 83.2533C158.923 79.1781 155.514 74.1433 154.55 73.0286C154.183 72.5835 153.733 72.51 153.219 72.51L146.775 72.363C146.408 72.363 146.183 72.51 146.183 72.9592V73.9923C146.183 80.8809 146.183 86.7363 146.551 89.8478C146.775 91.9998 147.221 93.6249 149.442 93.923C150.553 94.0659 152.178 94.2211 153.072 94.2211C153.664 94.2211 153.958 94.4457 153.958 94.8132C153.958 95.3318 153.439 95.5564 152.476 95.5564L141.594 95.3318C140.185 95.3318 135.518 95.5564 132.557 95.5564C132.336 95.5574 132.114 95.5397 131.896 95.5033C131.41 95.5441 130.781 95.5564 129.968 95.5564L115.971 95.4053C114.64 95.3318 113.754 95.3318 113.754 94.8132C113.754 94.364 114.043 94.2211 114.787 94.1476C115.305 93.9965 115.824 93.3309 115.456 92.4408L109.527 76.7363C109.38 76.3606 109.16 76.2177 108.788 76.2177H92.2711C91.9036 76.2177 91.7566 76.3606 91.6055 76.8057L87.6038 87.406C86.8688 89.2558 86.5013 91.032 86.5013 91.9222C86.5013 93.2534 87.1628 94.2211 89.4577 94.2211H90.5683C91.4585 94.2211 91.6831 94.364 91.6831 94.8132C91.6831 95.4053 91.2339 95.5564 90.4213 95.5564C88.053 95.5564 84.868 95.3318 82.5732 95.3318C81.7565 95.3318 77.6854 95.5564 73.8348 95.5564C72.8712 95.5564 72.4302 95.4053 72.4302 94.8132C72.4302 94.364 72.7242 94.2211 73.3163 94.2211H73.3122ZM12.2255 96.5894C7.92984 96.5894 4.59376 96.0709 1.41284 94.6621C0.228673 94.1476 0.00408936 93.776 0.00408936 92.1468C0.00408936 88.0716 0.302173 83.6289 0.371589 82.4366C0.449173 81.33 0.669673 80.5134 1.26584 80.5134C1.93142 80.5134 2.00084 81.1789 2.00084 81.771C2.00084 82.7306 2.30301 84.2945 2.67459 85.5481C4.29976 91.032 8.66892 93.0369 13.2586 93.0369C19.9226 93.0369 23.1811 88.5126 23.1811 84.5885C23.1811 80.9544 22.0786 77.5529 15.9291 72.7346L12.5195 70.0641C4.37326 63.6941 1.55576 58.5083 1.55576 52.5058C1.55576 44.3595 8.37084 38.5081 18.6649 38.5081C23.4751 38.5081 26.5866 39.2513 28.5058 39.7698C29.1754 39.9168 29.5511 40.1414 29.5511 40.6559C29.5511 41.6196 29.253 43.7674 29.253 49.5454C29.253 51.1787 29.0284 51.7708 28.4363 51.7708C27.9178 51.7708 27.7013 51.3298 27.7013 50.4355C27.7013 49.7699 27.3257 47.4751 25.774 45.5478C24.6633 44.139 22.5155 41.9177 17.7013 41.9177C12.2214 41.9177 8.88942 45.1027 8.88942 49.5454C8.88942 52.9549 10.5922 55.5479 16.7376 60.2151L18.8078 61.7749C27.7708 68.5124 30.9558 73.6248 30.9558 80.6644C30.9558 84.9642 29.3265 90.0724 23.9937 93.5596C20.2942 95.9279 16.1496 96.5976 12.2214 96.5976L12.2255 96.5894ZM54.7289 74.0739V43.6939L43.6917 43.992C39.396 44.139 37.6238 44.5106 36.5091 46.1398C35.7659 47.2546 35.3984 48.1407 35.2514 48.7287C35.1044 49.3249 34.8839 49.6229 34.4348 49.6229C33.9162 49.6229 33.7692 49.2554 33.7692 48.4388C33.7692 47.2546 35.1779 40.513 35.3208 39.9168C35.5495 38.9573 35.77 38.5081 36.211 38.5081C36.8031 38.5081 37.5463 39.2513 39.396 39.4023C41.5438 39.6269 44.3613 39.7698 46.8032 39.7698H76.1256C78.4939 39.7698 80.1273 39.5453 81.2379 39.4023C82.3486 39.1778 82.9407 39.0308 83.2388 39.0308C83.7573 39.0308 83.8308 39.4718 83.8308 40.5824L83.6063 49.1778C83.5328 49.921 83.3817 50.362 82.9407 50.362C82.3486 50.362 82.2016 49.9945 82.124 48.8838L82.0505 48.0672C81.9035 46.1398 79.9027 44.0655 73.3122 43.9185L63.9858 43.6939V74.0739C63.9858 80.8849 63.9858 86.7404 64.3574 89.9254C64.5779 92.0039 65.023 93.629 67.2443 93.9271C68.2815 94.07 69.9108 94.2252 71.0214 94.2252C71.8381 94.2252 72.2056 94.4498 72.2056 94.8173C72.2056 95.3359 71.6135 95.5604 70.8009 95.5604C65.9132 95.5604 61.2459 95.3358 59.1716 95.3358C57.4688 95.3358 52.8016 95.5604 49.8412 95.5604C48.8775 95.5604 48.363 95.3359 48.363 94.8173C48.363 94.4498 48.657 94.2252 49.5472 94.2252C50.6578 94.2252 51.548 94.07 52.2136 93.9271C53.6918 93.629 54.1328 92.0039 54.3573 89.8519C54.7289 86.7404 54.7289 80.8849 54.7289 74.0739ZM93.7574 72.5141H107.384C107.751 72.5141 107.825 72.2977 107.751 72.0731L101.087 53.7716C101.014 53.4776 100.936 53.106 100.72 53.106C100.495 53.106 100.352 53.4735 100.27 53.7716L93.4594 71.9996C93.3858 72.2977 93.4594 72.5141 93.7574 72.5141ZM146.183 44.3636V66.8832C146.183 67.7039 146.33 67.9939 146.849 68.2225C148.405 68.7329 150.626 68.9575 152.476 68.9575C155.44 68.9575 156.4 68.6635 157.735 67.7039C159.956 66.0706 162.104 62.661 162.104 56.5891C162.104 46.0663 155.146 43.0283 150.773 43.0283C148.923 43.0283 147.588 43.1018 146.853 43.3264C146.33 43.4693 146.183 43.7674 146.183 44.3636ZM224.159 96.5976C219.863 96.5976 216.535 96.0749 213.35 94.6662C212.166 94.1517 211.937 93.7801 211.937 92.1509C211.937 88.0757 212.235 83.633 212.309 82.4407C212.382 81.3341 212.607 80.5174 213.199 80.5174C213.865 80.5174 213.938 81.183 213.938 81.7751C213.938 82.7347 214.236 84.2986 214.608 85.5522C216.241 91.0361 220.606 93.041 225.196 93.041C231.864 93.041 235.118 88.5167 235.118 84.5926C235.118 80.9584 234.008 77.557 227.862 72.7387L224.457 70.0682C216.311 63.6982 213.497 58.5124 213.497 52.5098C213.497 44.3636 220.304 38.5081 230.602 38.5081C235.421 38.5081 238.524 39.2513 240.451 39.7698C241.121 39.9168 241.488 40.1414 241.488 40.6559C241.488 41.6196 241.19 43.7674 241.19 49.5454C241.19 51.1787 240.966 51.7708 240.374 51.7708C239.859 51.7708 239.635 51.3298 239.635 50.4355C239.635 49.7699 239.267 47.4751 237.711 45.5478C236.601 44.139 234.453 41.9177 229.639 41.9177C224.159 41.9177 220.827 45.1027 220.827 49.5454C220.827 52.9549 222.529 55.5479 228.675 60.2151L230.749 61.7749C239.712 68.5124 242.897 73.6248 242.897 80.6644C242.897 84.9642 241.264 90.0724 235.935 93.5596C232.227 95.9279 228.083 96.5976 224.159 96.5976ZM256.813 74.0739V61.0277L256.666 45.3232C256.515 42.7997 255.927 41.6155 253.481 41.101C252.885 40.9499 251.627 40.8764 250.594 40.8764C249.773 40.8764 249.328 40.7294 249.328 40.2068C249.328 39.6882 249.851 39.5412 250.962 39.5412C254.886 39.5412 259.549 39.7658 261.623 39.7658C264.661 39.7658 268.957 39.5412 272.362 39.5412C281.619 39.5412 284.951 42.6568 286.135 43.7634C287.769 45.3232 289.839 48.6552 289.839 52.5833C289.839 63.1061 282.138 70.5092 271.619 70.5092C271.252 70.5092 270.435 70.5092 270.068 70.4357C269.7 70.3622 269.182 70.2887 269.182 69.7701C269.182 69.178 269.696 68.9534 271.256 68.9534C275.396 68.9534 281.178 64.2903 281.178 56.732C281.178 54.282 280.954 49.3208 276.809 45.6131C274.784 43.766 272.143 42.7384 269.402 42.7303C268.291 42.7303 267.177 42.7997 266.511 43.0243C266.144 43.1753 265.919 43.6204 265.919 44.433V74.0699C265.919 80.8809 265.919 86.7363 266.295 89.9213C266.511 91.9998 266.956 93.6249 269.182 93.923C270.215 94.0659 271.844 94.2211 272.95 94.2211C273.767 94.2211 274.139 94.4457 274.139 94.8132C274.139 95.3318 273.547 95.5564 272.734 95.5564C267.846 95.5564 263.179 95.3318 261.252 95.3318C259.549 95.3318 254.886 95.5564 251.921 95.5564C250.962 95.5564 250.443 95.3318 250.443 94.8132C250.443 94.4457 250.737 94.2211 251.627 94.2211C252.738 94.2211 253.628 94.0659 254.294 93.923C255.776 93.6249 256.148 91.9998 256.446 89.8478C256.813 86.7363 256.813 80.8809 256.813 74.0699V74.0739ZM323.388 96.5935C302.126 96.5935 293.539 80.6604 293.539 67.5488C293.539 54.8823 301.909 38.504 324.123 38.504C342.563 38.504 354.041 49.2473 354.041 66.2135C354.041 83.1798 342.192 96.5935 323.388 96.5935ZM326.491 92.8859C331.677 92.8859 343.674 90.3664 343.674 68.9575C343.674 52.3588 334.119 42.0647 321.975 42.0647C313.461 42.0647 303.755 46.8013 303.755 65.2539C303.755 80.6604 312.277 92.8859 326.491 92.8859ZM365.814 74.0699V61.0277L365.663 45.3232C365.516 42.7997 364.928 41.6155 362.482 41.101C361.885 40.9499 360.628 40.8764 359.595 40.8764C358.778 40.8764 358.333 40.7294 358.333 40.2068C358.333 39.6882 358.852 39.5412 359.962 39.5412C363.89 39.5412 368.554 39.7658 370.109 39.7658L380.546 39.5412C385.218 39.5412 390.179 39.9863 394.176 42.7303C396.251 44.1349 399.215 47.9161 399.215 52.8773C399.215 58.3613 396.916 63.4001 389.436 69.4761C396.026 77.7694 401.139 84.3639 405.504 88.9536C409.652 93.2533 412.69 93.7719 413.801 93.9965C414.618 94.1476 415.283 94.2211 415.875 94.2211C416.467 94.2211 416.765 94.4457 416.765 94.8132C416.765 95.4053 416.243 95.5564 415.353 95.5564H408.317C404.172 95.5564 402.323 95.1848 400.395 94.1476C397.214 92.4408 394.401 88.9577 390.252 83.2533C387.288 79.1781 383.882 74.1433 382.919 73.0286C382.551 72.5835 382.106 72.51 381.588 72.51L375.144 72.363C374.777 72.363 374.552 72.51 374.552 72.9592V73.9923C374.552 80.8809 374.552 86.7363 374.919 89.8478C375.144 91.9998 375.589 93.6249 377.81 93.923C378.921 94.0659 380.546 94.2211 381.441 94.2211C382.029 94.2211 382.327 94.4457 382.327 94.8132C382.327 95.3318 381.812 95.5564 380.848 95.5564L369.962 95.3318C368.553 95.3318 363.89 95.5564 360.926 95.5564C359.962 95.5564 359.448 95.3318 359.448 94.8132C359.448 94.4457 359.742 94.2211 360.632 94.2211C361.738 94.2211 362.633 94.0659 363.294 93.923C364.776 93.6249 365.144 91.9998 365.446 89.8478C365.814 86.7363 365.814 80.8809 365.814 74.0699ZM374.552 44.3595V66.8791C374.552 67.6999 374.699 67.9898 375.218 68.2184C376.769 68.7289 378.999 68.9534 380.848 68.9534C383.809 68.9534 384.777 68.6594 386.104 67.6998C388.325 66.0665 390.473 62.6569 390.473 56.585C390.473 46.0623 383.515 43.0243 379.142 43.0243C377.292 43.0243 375.957 43.0978 375.218 43.3223C374.699 43.4653 374.552 43.7633 374.552 44.3595ZM425.055 74.0699V43.6898L414.026 43.9879C409.73 44.1349 407.95 44.5065 406.839 46.1358C406.096 47.2505 405.728 48.1366 405.577 48.7246C405.43 49.3208 405.21 49.6188 404.765 49.6188C404.242 49.6188 404.099 49.2514 404.099 48.4347C404.099 47.2505 405.504 40.5089 405.655 39.9128C405.871 38.9532 406.096 38.504 406.541 38.504C407.137 38.504 407.876 39.2472 409.726 39.3983C411.878 39.6228 414.687 39.7658 417.133 39.7658H446.455C448.824 39.7658 450.457 39.5412 451.568 39.3983C452.678 39.1737 453.266 39.0267 453.564 39.0267C454.087 39.0267 454.157 39.4677 454.157 40.5783L453.932 49.1738C453.863 49.9169 453.716 50.3579 453.266 50.3579C452.678 50.3579 452.531 49.9904 452.454 48.8798L452.38 48.0631C452.237 46.1358 450.232 44.0614 443.642 43.9144L434.312 43.6898V74.0699C434.312 80.8809 434.312 86.7363 434.687 89.9213C434.904 91.9998 435.353 93.6249 437.57 93.923C438.607 94.0659 440.241 94.2211 441.347 94.2211C442.164 94.2211 442.531 94.4457 442.531 94.8132C442.531 95.3318 441.939 95.5564 441.127 95.5564C436.235 95.5564 431.572 95.3318 429.497 95.3318C427.795 95.3318 423.127 95.5564 420.167 95.5564C419.203 95.5564 418.689 95.3318 418.689 94.8132C418.689 94.4457 418.983 94.2211 419.869 94.2211C420.979 94.2211 421.87 94.0659 422.539 93.923C424.017 93.6249 424.458 91.9998 424.687 89.8478C425.055 86.7363 425.055 80.8809 425.055 74.0699ZM470.817 96.5935C466.525 96.5935 463.193 96.0709 460.008 94.6621C458.824 94.1476 458.603 93.776 458.603 92.1468C458.603 88.0716 458.897 83.6289 458.971 82.4366C459.044 81.33 459.269 80.5134 459.861 80.5134C460.527 80.5134 460.604 81.1789 460.604 81.771C460.604 82.7306 460.894 84.2945 461.266 85.5481C462.895 91.032 467.264 93.0369 471.854 93.0369C478.522 93.0369 481.78 88.5126 481.78 84.5885C481.78 80.9544 480.67 77.5529 474.524 72.7346L471.119 70.0641C462.968 63.6941 460.155 58.5083 460.155 52.5058C460.155 44.3595 466.97 38.504 477.264 38.504C482.078 38.504 485.186 39.2472 487.113 39.7658C487.775 39.9128 488.146 40.1373 488.146 40.6518C488.146 41.6155 487.848 43.7634 487.848 49.5413C487.848 51.1746 487.632 51.7667 487.036 51.7667C486.521 51.7667 486.301 51.3257 486.301 50.4314C486.301 49.7659 485.929 47.471 484.369 45.5437C483.263 44.1349 481.115 41.9136 476.296 41.9136C470.817 41.9136 467.485 45.0986 467.485 49.5413C467.485 52.9508 469.191 55.5438 475.333 60.211L477.407 61.7708C486.37 68.5084 489.555 73.6207 489.555 80.6604C489.555 84.9601 487.926 90.0684 482.593 93.5555C478.889 95.9239 474.745 96.5935 470.817 96.5935Z" fill="#FEFEFE"/>
<path fill-rule="evenodd" clip-rule="evenodd" d="M187.458 40.3297L170.647 40.6767L184.044 50.8402L179.177 66.9448L192.978 57.3327L206.776 66.9448L201.905 50.8402L215.306 40.6727L198.499 40.3297L192.974 24.4414L187.458 40.3297Z" fill="#FDC500"/>
</svg>