<svg width="490" height="132" viewBox="0 0 490 132" fill="none" xmlns="http://www.w3.org/2000/svg">
<g clip-path="url(#clip0_0_3355)">
<path d="M212.726 80.0523L198.689 47.9688H183.337L207.086 98.8826H218.397L242.146 47.9688H226.794L212.726 80.0523Z" fill="white"/>
<path d="M337.708 46.4644C330.394 46.3131 323.319 49.0678 318.033 54.1246C312.747 59.1814 309.682 66.1278 309.509 73.4409C309.698 80.7486 312.768 87.6853 318.051 92.7387C323.333 97.792 330.399 100.552 337.708 100.417C343.349 100.497 348.885 98.8826 353.599 95.7826C358.313 92.6826 361.989 88.2398 364.151 83.0284H348.486C347.072 84.514 345.37 85.6966 343.485 86.5045C341.6 87.3124 339.571 87.7287 337.52 87.7281C334.363 87.7741 331.276 86.8069 328.71 84.9684C326.144 83.13 324.235 80.5173 323.264 77.514H365.718C365.906 76.2171 366.001 74.9082 366 73.5976C366.021 71.7113 365.821 69.8291 365.405 67.9892C363.934 61.7812 360.386 56.2623 355.348 52.3475C350.311 48.4326 344.087 46.3569 337.708 46.4644ZM324.078 67.8326C325.31 65.2674 327.242 63.1025 329.65 61.5872C332.059 60.0719 334.846 59.268 337.692 59.268C340.537 59.268 343.325 60.0719 345.734 61.5872C348.142 63.1025 350.074 65.2674 351.306 67.8326H324.078Z" fill="white"/>
<path d="M277.394 46.4645C272.016 46.4725 266.765 48.0992 262.324 51.1329L262.574 31.8013C257.843 33.2425 253.175 34.7464 248.475 36.2817V98.9449H261.666V95.3417C265.115 97.8246 269.104 99.4563 273.304 100.103C277.505 100.75 281.799 100.394 285.836 99.0647C289.873 97.735 293.538 95.4691 296.532 92.4522C299.526 89.4353 301.764 85.7529 303.063 81.7059C304.361 77.6589 304.684 73.3621 304.005 69.1664C303.326 64.9707 301.664 60.9952 299.155 57.5646C296.645 54.1341 293.36 51.3457 289.567 49.4275C285.775 47.5092 281.582 46.5153 277.332 46.5271L277.394 46.4645ZM276.172 87.5088C273.39 87.5088 270.67 86.6838 268.357 85.138C266.043 83.5922 264.24 81.3951 263.175 78.8245C262.11 76.2539 261.832 73.4254 262.375 70.6965C262.918 67.9675 264.257 65.4609 266.225 63.4935C268.192 61.526 270.699 60.1862 273.428 59.6434C276.157 59.1006 278.985 59.3792 281.556 60.4439C284.126 61.5087 286.323 63.3118 287.869 65.6253C289.415 67.9387 290.24 70.6586 290.24 73.441V73.441C290.24 75.2884 289.876 77.1177 289.169 78.8245C288.462 80.5313 287.426 82.0821 286.12 83.3885C284.813 84.6948 283.263 85.731 281.556 86.438C279.849 87.145 278.02 87.5088 276.172 87.5088V87.5088Z" fill="white"/>
<path d="M400.183 60.0624V47.9684H385.927V31.8013C381.196 33.2425 376.527 34.7464 371.796 36.2817V73.441C371.559 80.3347 374.064 87.0414 378.762 92.0919C383.46 97.1424 389.969 100.125 396.862 100.386H399.995V87.7282C398.139 87.7323 396.301 87.3709 394.585 86.6645C392.869 85.9582 391.309 84.9208 389.994 83.6116C388.679 82.3024 387.634 80.7469 386.92 79.0341C386.207 77.3213 385.837 75.4846 385.833 73.629V73.629V60.0624H400.183Z" fill="white"/>
<path d="M162.846 7.77011C162.798 6.69162 162.536 5.63342 162.076 4.65702C161.615 3.68061 160.965 2.80548 160.163 2.08249C159.362 1.3595 158.424 0.803074 157.406 0.445547C156.387 0.088021 155.307 -0.0634708 154.23 -0.000122551H152.413C150.237 0.348456 148.212 1.32643 146.586 2.81307C144.96 4.2997 143.805 6.22992 143.264 8.36541C142.412 10.7119 141.916 13.1725 141.791 15.6657V17.8276C141.205 18.8116 140.742 19.8639 140.413 20.9607C139.12 25.6811 138.415 30.5429 138.313 35.4359V37.0965C137.44 38.4053 136.685 39.7894 136.057 41.2323C135.234 43.2683 134.564 45.3629 134.052 47.4986L133.614 38.5377C132.74 27.4697 131.15 16.4701 128.851 5.60823C128.352 4.04614 127.334 2.70114 125.967 1.79538C124.6 0.889628 122.965 0.4773 121.332 0.626509C119.551 0.657892 117.794 1.04123 116.162 1.75445C107.89 5.42024 108.58 16.167 110.272 21.932L110.867 23.9372C110.836 24.4798 110.836 25.0238 110.867 25.5665C111.235 30.4214 112.128 35.2222 113.53 39.885L114.063 42.0155C113.677 43.1384 113.445 44.3083 113.373 45.4934C113.201 48.4883 113.201 51.4906 113.373 54.4855H108.486C108.091 54.5714 107.704 54.6866 107.326 54.8302C106.665 55.0563 106.034 55.3614 105.446 55.7388C103.453 57.0648 101.869 58.9201 100.872 61.0965C100.247 62.8986 100.117 64.8354 100.496 66.7048H99.6815C98.0667 66.7098 96.4805 67.1306 95.0757 67.9268C93.8233 68.74 92.7558 69.8075 91.9426 71.0599L91.6606 71.4359C88.7154 75.2584 90.282 80.8354 91.6606 84.4072L91.9426 85.2531L91.7859 88.3863C91.9665 91.6296 92.7307 94.8138 94.0418 97.7858C94.3864 98.7571 94.7937 99.885 94.9191 100.324C96.1078 106.208 98.9312 111.637 103.065 115.989V132H151.692L149.311 114.861V114.235C152.967 108.556 155.311 102.134 156.172 95.4359C158.166 83.3589 157.34 70.9844 153.76 59.2793C154.355 55.8641 155.326 51.1017 156.36 46.0573C156.893 43.3941 157.457 40.6683 157.958 38.0991L158.616 34.4646C158.836 33.368 159.055 32.2401 159.243 31.1435C159.431 30.0469 159.65 28.9503 159.838 27.8537L160.966 21.5873C161.373 19.3001 161.624 17.6396 161.906 15.885V15.6657C162.188 14.0678 162.407 12.5325 162.627 11.3732C162.592 10.9364 162.656 10.4973 162.815 10.0887C163.003 9.68134 162.815 9.02338 162.815 8.52207C162.815 8.02077 162.846 8.08343 162.846 7.77011ZM160.841 10.0573C160.858 10.4397 160.805 10.822 160.684 11.1853C160.433 12.5325 160.183 14.1304 159.901 15.8537C159.619 17.5769 159.274 19.5195 158.93 21.5247L157.833 27.791C157.645 28.8563 157.426 29.9529 157.238 30.9242C157.05 31.8954 156.83 33.1174 156.611 34.214L155.953 37.5978C155.42 40.1983 154.856 42.9555 154.324 45.7127C153.227 51.0077 152.225 56.0208 151.629 59.4359C155.257 70.9908 156.116 83.2372 154.136 95.1853C153.34 101.919 150.945 108.365 147.149 113.984L147.337 115.425L149.185 128.741L149.405 130.308H146.742L144.611 115.927C142.997 116.973 141.233 117.766 139.379 118.277L138.658 118.465L139.222 118.214C145.488 115.394 150.063 104.898 151.755 92.4594C151.755 91.4568 152.005 90.4229 152.099 89.3263V87.979C152.071 86.9321 152.123 85.8846 152.256 84.8458C152.599 76.5091 151.442 68.1784 148.841 60.2505C149.311 57.3367 150.188 53.0443 151.097 48.4385L151.253 47.6552L151.911 44.5221L152.319 42.0469L153.227 37.4725L153.885 34.0887V33.8067L154.449 30.6735C154.668 29.5769 154.856 28.5116 155.044 27.5403L155.326 25.9424L155.608 24.3445C155.604 23.7441 155.667 23.145 155.796 22.5586C155.893 22.1031 155.966 21.643 156.016 21.18L156.486 18.4855C156.674 17.3889 156.83 16.355 157.018 15.3524C157.269 13.6918 157.551 12.2192 157.77 10.8406V8.20875C157.758 7.36065 157.43 6.54761 156.851 5.92791C156.271 5.30822 155.482 4.92621 154.637 4.85627C154.304 4.82494 153.968 4.82494 153.634 4.85627H152.663C151.561 5.14226 150.552 5.71222 149.739 6.50935C148.925 7.30647 148.335 8.30291 148.026 9.39936L147.744 10.0887C147.684 10.4292 147.567 10.7574 147.399 11.0599C147.399 11.3732 147.243 11.6866 147.149 11.9999L146.867 13.3158V15.509C146.898 15.5896 146.898 15.6791 146.867 15.7597H152.162V16.6056C150.532 16.8117 148.998 17.4915 147.75 18.5608C146.503 19.6301 145.597 21.0419 145.144 22.6213C144.956 23.3419 144.736 24.1565 144.517 25.0652C144.532 25.3051 144.532 25.5458 144.517 25.7858C143.975 27.9323 143.556 30.1082 143.264 32.3028C143.34 33.3457 143.34 34.3929 143.264 35.4359C143.85 35.0949 144.484 34.8416 145.144 34.684L145.77 34.4646L146.867 34.2766H149.123V35.4359H148.308L147.337 35.7179C146.556 35.9719 145.81 36.3191 145.112 36.7518C144.449 37.1693 143.83 37.6521 143.264 38.1931C142.383 39.1175 141.653 40.1748 141.102 41.3262L140.851 41.8902V42.1722L140.475 43.0182L139.911 44.4594C139.859 44.7778 139.753 45.0851 139.598 45.368C139.598 45.6813 139.598 45.7127 139.441 45.9007V46.308C139.441 46.59 139.441 46.8719 139.191 47.1539V47.6239C139.222 47.9473 139.133 48.271 138.94 48.5325C138.689 48.8458 138.94 49.1278 138.721 49.4411V49.6605C138.658 50.1285 138.553 50.5899 138.407 51.039L138.219 51.8537C138.253 52.2327 138.177 52.6135 138 52.9503C138.031 53.1685 138.031 53.39 138 53.6082C137.812 54.7048 137.593 55.8954 137.342 57.2114C136.527 57.838 135.713 58.5586 134.93 59.2793C134.522 59.6552 134.146 59.9999 133.802 60.3759C132.39 61.7698 131.062 63.2449 129.822 64.7936C129.484 65.274 129.118 65.7343 128.726 66.1722H128.507L127.598 65.7962L128.726 63.9163L130.355 61.0965L128.789 38.7257C128.82 38.497 128.82 38.2651 128.789 38.0364C128.82 37.8708 128.82 37.7008 128.789 37.5351V36.6265C128.507 33.4934 127.786 27.227 126.971 21.368V16.261L126.783 15.1644C126.729 14.3794 126.593 13.6023 126.376 12.8458C126.376 12.0939 126.376 12.1879 126.376 11.8432C126.33 11.4624 126.257 11.0855 126.157 10.7153V9.68134C126.189 9.38635 126.123 9.08897 125.969 8.83539L124.465 7.98943V6.8615C124.497 6.73819 124.497 6.60882 124.465 6.48552C124.323 6.25528 124.136 6.05609 123.915 5.89995C123.695 5.7438 123.444 5.63392 123.18 5.5769C122.732 5.45086 122.268 5.3876 121.802 5.38891C121.05 5.39861 120.302 5.5039 119.577 5.70223C119.11 5.79829 118.65 5.92387 118.198 6.07821C116.897 6.74775 115.811 7.7697 115.063 9.02734C114.315 10.285 113.936 11.7276 113.969 13.1905V14.4124C113.922 15.2368 113.922 16.0632 113.969 16.8876V17.8589C113.998 18.3804 114.093 18.8961 114.251 19.3941V20.4281C114.75 20.2492 115.264 20.113 115.786 20.0208C117.39 19.1847 119.178 18.7645 120.987 18.7988V19.9268C120.138 19.9376 119.302 20.1412 118.543 20.5221L118.198 20.5847L117.478 21.086C116.784 21.6648 116.245 22.408 115.911 23.2479C115.662 23.9632 115.535 24.7151 115.535 25.4725C115.603 27.2203 115.813 28.9597 116.162 30.6735C116.35 31.7075 116.601 32.8667 116.914 34.1826C116.962 34.6124 117.068 35.0339 117.227 35.4359C117.446 36.4385 117.728 37.5351 118.042 38.5691C119.493 38.1131 120.982 37.7881 122.491 37.5978L124.089 37.3785L124.433 38.8511H123.807C122.629 39.1399 121.548 39.7343 120.674 40.5743L120.454 40.7309L120.235 40.9503C119.001 42.2259 118.277 43.9086 118.198 45.6813V46.3706C118.233 46.5781 118.233 46.7898 118.198 46.9973V54.3289C118.23 54.5366 118.23 54.7478 118.198 54.9555V57.5873C118.23 57.7424 118.23 57.9022 118.198 58.0573V59.0286C118.234 59.1938 118.234 59.3647 118.198 59.5299C118.23 59.7376 118.23 59.9488 118.198 60.1565V60.4072C118.198 61.2845 118.512 62.0364 118.668 62.7257L118.198 62.4437L117.728 62.1304L116.475 61.3471L116.068 61.0965L116.413 60.7518L115.661 60.3445L115.065 60.0939H114.815L113.311 59.5299H113.091C112.726 59.3091 112.337 59.1304 111.932 58.9973H109.175L108.799 59.1853L108.329 59.5299C108.047 59.7179 107.765 59.9685 107.452 60.2192L106.512 60.8458C105.88 61.413 105.359 62.093 104.977 62.8511C104.722 63.8799 104.722 64.9554 104.977 65.9842V66.6735C105.076 67.1636 105.212 67.6454 105.384 68.1148C105.462 68.3915 105.556 68.6634 105.666 68.9294C105.854 69.462 106.042 69.9947 106.261 70.5586C106.48 71.1226 106.982 72.3132 107.42 73.2218C107.42 73.5351 107.702 73.8484 107.859 74.1618H108.36L109.676 73.8798H110.491L111.65 73.6918H111.932C112.496 73.6604 113.06 73.6604 113.624 73.6918H115.974L117.76 73.8798H118.042C118.798 73.9409 119.544 74.088 120.266 74.3184C119.893 72.0101 119.073 69.7966 117.854 67.8014L117.634 67.4255H117.854L118.794 66.9868L119.358 67.5508C119.671 67.8954 119.953 68.2714 120.235 68.6161L120.674 69.2114L120.987 69.65L121.332 70.12C122.332 71.7116 123.141 73.4152 123.744 75.1957C124.391 75.1556 125.04 75.2407 125.655 75.4464C126.937 75.6677 128.204 75.9712 129.446 76.355L131.076 76.9189L146.146 83.1853V84.5952L135.493 80.8041L130.104 78.9242H129.948C129.285 78.6753 128.604 78.4763 127.911 78.3289L126.815 78.0155L125.749 77.8276H121.582L120.642 77.6709C119.56 76.9147 118.266 76.52 116.945 76.543C116.01 76.4764 115.08 76.3614 114.157 76.1983H112.465C111.085 76.265 109.728 76.5725 108.454 77.1069C108.149 77.239 107.856 77.3962 107.577 77.5769L106.919 78.0155C106.234 78.5233 105.684 79.1919 105.318 79.9623C104.952 80.7327 104.781 81.5813 104.82 82.4333C104.911 83.1757 105.101 83.9027 105.384 84.5952L111.963 85.0025V83.8746C112.109 83.0553 112.319 82.2487 112.59 81.462C112.59 81.086 112.935 80.7101 113.123 80.3341L113.311 79.9894H115.065C114.547 81.0766 114.209 82.2405 114.063 83.4359V84.5952C114.062 85.5786 114.189 86.5579 114.439 87.509H113.185L107.232 87.0077L107.734 87.4777C108.509 88.1624 109.4 88.7035 110.366 89.0756L111.18 89.3263C112.935 89.7336 114.877 90.1409 116.193 90.3289C116.642 90.3603 117.092 90.3603 117.54 90.3289C118.041 90.3602 118.544 90.3602 119.044 90.3289H119.546L119.264 89.9216C119.076 89.6138 118.918 89.2885 118.794 88.9503C118.706 88.6723 118.633 88.3899 118.574 88.1043C118.543 87.8337 118.543 87.5603 118.574 87.2897V86.9137C118.573 86.3341 118.636 85.7562 118.762 85.1905C119.166 86.1722 119.692 87.0986 120.329 87.9477C121.253 89.1924 122.401 90.2547 123.713 91.0808L134.554 98.0991L134.115 98.6317L132.172 97.7858L129.916 96.7832C129.295 96.5072 128.622 96.3683 127.943 96.3759C126.868 96.3781 125.823 96.73 124.966 97.3785L124.715 97.6291L124.496 97.8171C124.141 98.1986 123.845 98.6317 123.619 99.1017V99.697C123.318 100.911 123.119 102.147 123.023 103.394V105.18C122.992 105.764 122.992 106.35 123.023 106.935C123.282 108.321 123.769 109.655 124.465 110.882C124.592 111.133 124.739 111.374 124.903 111.603C125.213 112.078 125.558 112.529 125.937 112.95C127.54 114.645 129.561 115.888 131.796 116.553L132.924 116.929L130.856 123.196V123.478L130.543 120.752L130.261 119.06C128.204 118.315 126.319 117.164 124.715 115.676L124.026 114.987C122.675 113.442 121.671 111.626 121.081 109.66C120.83 108.883 120.642 108.087 120.517 107.279C120.134 104.527 120.305 101.725 121.018 99.039C120.896 98.7753 120.749 98.5235 120.58 98.2871C120.736 97.8171 120.893 97.3471 121.081 96.8458C121.269 96.3445 121.394 96.0625 121.582 95.6552L121.833 95.1226L122.303 94.1513C122.318 94.1166 122.325 94.0793 122.325 94.0417C122.325 94.004 122.318 93.9667 122.303 93.932L122.585 93.4307L121.332 92.5221C120.873 92.6944 120.402 92.8306 119.922 92.9294H116.569L115.473 92.7414H115.065C115.097 93.0958 115.097 93.4523 115.065 93.8067V94.308C115.02 95.1156 114.786 95.9014 114.384 96.603C113.981 97.3047 113.421 97.9027 112.747 98.3497L112.465 98.5064C112.22 98.6629 111.957 98.7891 111.681 98.8824C111.267 99.0446 110.837 99.1602 110.397 99.227H109.269C108.409 99.225 107.554 99.0983 106.731 98.8511C99.8381 96.7518 96.611 88.6056 96.611 88.6056C96.5794 89.1796 96.5794 89.7549 96.611 90.3289L96.799 91.1435L96.9869 91.8641C97.3629 93.274 97.9269 94.7779 98.3969 96.1252C98.8668 97.4725 99.2742 98.5377 99.4621 99.2584C100.524 104.671 103.086 109.676 106.856 113.702C107.422 114.257 108.018 114.78 108.642 115.269C111.708 117.508 115.35 118.823 119.138 119.06H108.799L108.172 130.245H105.227V115.3C101.035 111.156 98.1759 105.853 97.0183 100.073C96.8278 99.1386 96.5766 98.2175 96.2663 97.3158C95.0494 94.5586 94.318 91.6119 94.1044 88.6056L94.2924 85.0965C94.1358 84.7205 94.0104 84.3132 93.8851 83.9372V83.6866C92.6319 80.3967 91.2219 75.6657 93.5718 72.5952L93.8225 72.2505C94.4478 71.2579 95.2817 70.4133 96.2663 69.7753C97.3838 69.213 98.6185 68.9231 99.8695 68.9294C100.973 68.9408 102.054 69.2435 103.003 69.8067C101.936 67.3088 101.769 64.5179 102.533 61.9111C103.407 60.0715 104.773 58.5099 106.48 57.3994C106.938 57.1157 107.42 56.8745 107.922 56.6787L108.799 56.3967H112.151C112.804 56.4962 113.445 56.6643 114.063 56.8981L115.661 57.5247C115.135 53.6212 114.936 49.6806 115.065 45.744C115.125 44.5617 115.379 43.3973 115.817 42.2975L115.065 39.5717C113.757 35.0444 112.927 30.3923 112.59 25.6918C112.542 25.1079 112.542 24.5211 112.59 23.9372L111.932 21.5247C110.648 16.2296 109.927 6.67351 116.945 3.57168C118.33 2.96864 119.821 2.64904 121.332 2.63173C122.546 2.46924 123.779 2.7462 124.807 3.41265C125.836 4.0791 126.592 5.09114 126.94 6.2662C129.19 16.9631 130.739 27.7955 131.577 38.6944L132.486 57.4934C133.144 56.8667 133.77 56.3341 134.366 55.8328C135.031 51.1339 136.208 46.5217 137.875 42.0782C138.439 40.4972 139.196 38.9923 140.131 37.5978V35.4046C140.226 30.6801 140.91 25.9859 142.167 21.4307C142.505 20.3265 142.99 19.2727 143.608 18.2975V15.6657C143.608 15.1644 144.172 3.13304 152.381 2.19309H153.728C154.55 2.11547 155.378 2.20071 156.166 2.44394C156.954 2.68716 157.686 3.08357 158.321 3.61043C158.956 4.1373 159.48 4.78426 159.864 5.5142C160.248 6.24415 160.484 7.04271 160.559 7.86411V8.14609C160.589 8.39584 160.589 8.64831 160.559 8.89805C160.774 9.24448 160.873 9.65071 160.841 10.0573Z" fill="white"/>
<path d="M102 72.3446L101.279 72.0626C101.094 71.9573 100.893 71.8833 100.684 71.8433H98.5222C98.114 71.9398 97.7231 72.0983 97.3629 72.3132H97.1123C96.5465 72.8048 96.0417 73.3623 95.6083 73.9738L95.4204 74.2558C95.0174 74.8399 94.7792 75.5217 94.7311 76.2297C94.6684 76.9071 94.6684 77.5888 94.7311 78.2662C95.0807 79.9116 95.595 81.5176 96.2663 83.06C97.0397 85.156 98.0937 87.1375 99.3995 88.9503L100.245 90.2036L100.903 91.0809L101.436 91.7702L102.564 93.3054L102.783 93.5874V93.8067C102.971 94.0574 103.191 94.2767 103.379 94.496L103.692 94.872C104.654 96.1244 106.032 96.9913 107.577 97.3158C107.858 97.3471 108.142 97.3471 108.423 97.3158C109.003 97.3511 109.583 97.2601 110.124 97.0492C110.665 96.8382 111.153 96.5123 111.556 96.0939V96.0939L111.932 95.4359L112.12 94.9973C112.151 94.8633 112.151 94.724 112.12 94.59C112.207 94.1823 112.211 93.7615 112.133 93.3521C112.055 92.9427 111.896 92.553 111.666 92.2058C111.435 91.8586 111.138 91.5609 110.791 91.3301C110.444 91.0992 110.054 90.94 109.645 90.8615H108.392C107.888 90.9546 107.414 91.1697 107.013 91.4882L106.762 91.6448C106.265 92.0534 105.804 92.5042 105.384 92.9921V93.2114L104.695 92.8981L104.256 92.6474C104.446 92.3021 104.655 91.9673 104.882 91.6448C105.164 91.3002 105.478 90.9555 105.791 90.6422H105.666C105.979 90.2662 106.292 89.9216 106.637 89.5769C104.624 88.503 103.058 86.7484 102.219 84.6266C102.033 83.9529 101.939 83.2575 101.937 82.5587V80.9608C101.906 80.7531 101.906 80.5418 101.937 80.3341V79.6762C101.978 79.4331 102.063 79.1996 102.188 78.9869L102.533 78.7049C102.65 78.4545 102.786 78.2136 102.94 77.9843L103.159 77.6083C103.437 77.2426 103.741 76.8971 104.068 76.5743L105.29 75.6657C105.304 75.631 105.312 75.5937 105.312 75.5561C105.312 75.5184 105.304 75.4811 105.29 75.4464C104.312 74.2934 103.208 73.253 102 72.3446V72.3446Z" fill="white"/>
</g>
<defs>
<clipPath id="clip0_0_3355">
<rect width="310.151" height="132" fill="white" transform="translate(90)"/>
</clipPath>
</defs>
</svg>